<svg width="19" height="19" viewBox="0 0 19 19" fill="none" xmlns="http://www.w3.org/2000/svg">
<path d="M18.0965 14.7371L15.3167 11.9507C14.763 11.398 13.846 11.4148 13.2731 11.9893L11.8726 13.3926C11.7841 13.3437 11.6925 13.2927 11.5962 13.2385C10.7118 12.7474 9.5014 12.0742 8.22766 10.7967C6.95015 9.51641 6.27788 8.30136 5.78635 7.41439C5.73449 7.32043 5.68479 7.22983 5.63572 7.14379L6.57565 6.20313L7.03775 5.73941C7.61161 5.16409 7.62743 4.24536 7.07504 3.69103L4.29522 0.904295C3.74282 0.350751 2.82549 0.367544 2.25163 0.942856L1.46818 1.73259L1.48959 1.75389C1.22689 2.08985 1.00737 2.47733 0.844011 2.89519C0.693424 3.29293 0.599668 3.67248 0.556799 4.05281C0.189741 7.10269 1.5803 9.89005 5.35409 13.6724C10.5706 18.9004 14.7744 18.5055 14.9558 18.4862C15.3508 18.4389 15.7293 18.3443 16.114 18.1946C16.5273 18.0327 16.9136 17.813 17.2486 17.5503L17.2658 17.5655L18.0594 16.7866C18.6321 16.2114 18.6486 15.2923 18.0965 14.7371Z" fill="#292929"/>
</svg>
