<?xml version="1.0" standalone="no"?>
<!DOCTYPE svg PUBLIC "-//W3C//DTD SVG 20010904//EN"
 "http://www.w3.org/TR/2001/REC-SVG-20010904/DTD/svg10.dtd">
<svg version="1.0" xmlns="http://www.w3.org/2000/svg"
 width="128.000000pt" height="128.000000pt" viewBox="0 0 128.000000 128.000000"
 preserveAspectRatio="xMidYMid meet">
<metadata>
Created by potrace 1.14, written by Peter Selinger 2001-2017
</metadata>
<g transform="translate(0.000000,128.000000) scale(0.100000,-0.100000)"
fill="#000000" stroke="none">
<path d="M157 1029 c-19 -15 -19 -17 -2 -52 10 -22 26 -39 39 -42 41 -8 96
-11 96 -4 0 3 18 3 40 -1 22 -4 40 -4 40 -1 0 4 27 4 60 1 33 -3 60 -3 60 0 0
3 27 3 60 0 33 -3 60 -2 60 2 0 5 9 4 20 -2 15 -8 20 -8 20 2 0 8 3 9 8 3 4
-5 21 -10 37 -10 17 0 33 5 37 10 5 7 8 7 8 0 0 -6 19 -9 45 -7 54 5 58 -8 17
-56 -15 -17 -36 -44 -47 -58 -11 -15 -36 -45 -55 -67 l-36 -39 -147 -1 c-81
-1 -147 -3 -147 -6 0 -16 57 -74 88 -90 32 -15 60 -18 192 -17 184 2 194 6
267 105 26 36 50 68 53 71 3 3 21 25 40 50 19 25 42 52 52 61 10 9 18 19 18
22 0 4 14 26 31 50 26 38 29 48 20 66 -7 11 -17 21 -24 22 -7 1 -219 2 -471 3
-404 1 -462 -1 -479 -15z"/>
<path d="M196 458 c-9 -5 -15 -20 -14 -33 2 -20 7 -24 24 -21 33 6 46 -31 32
-86 -4 -16 -2 -28 3 -28 6 0 5 -8 -1 -20 -7 -14 -21 -20 -44 -20 -38 0 -59
-19 -50 -45 5 -11 14 -15 30 -12 14 2 24 -1 24 -7 0 -7 3 -8 8 -1 4 6 17 10
29 9 13 -1 33 11 48 27 14 16 20 29 14 29 -5 0 -7 5 -3 11 7 13 10 186 3 194
-10 9 -88 11 -103 3z"/>
<path d="M364 446 c-10 -14 -11 -23 -2 -33 8 -10 7 -13 -2 -13 -9 0 -9 -4 -3
-12 6 -7 9 -22 6 -33 -8 -41 -9 -75 -2 -86 4 -7 3 -25 -1 -41 -5 -17 -5 -26 1
-23 5 4 9 1 9 -5 0 -8 17 -10 50 -8 29 3 52 0 55 -6 3 -7 7 -7 11 2 3 6 10 10
15 6 5 -3 9 9 9 25 0 30 -1 31 -45 31 -41 0 -45 2 -45 24 0 17 6 23 23 23 43
1 47 3 47 32 0 26 -3 28 -35 26 -32 -1 -35 1 -35 28 0 24 3 27 14 18 9 -8 16
-8 20 -2 4 5 15 8 26 6 16 -3 20 2 20 26 0 16 -3 29 -7 30 -90 6 -116 3 -129
-15z"/>
<path d="M555 455 c-3 -8 -7 -22 -10 -30 -4 -15 2 -18 36 -18 14 0 16 -15 16
-106 0 -58 2 -104 5 -101 3 3 13 -2 23 -10 15 -12 17 -12 10 -1 -6 11 -4 13 7
9 12 -5 15 10 16 93 1 109 4 119 30 114 13 -2 18 4 20 26 1 16 -2 29 -8 30
-49 4 -119 1 -130 -6 -9 -5 -11 -4 -6 3 4 7 5 12 1 12 -3 0 -8 -7 -10 -15z"/>
<path d="M758 455 c-6 -25 3 -50 20 -51 6 -1 16 -2 20 -2 5 -1 8 -45 8 -98 -1
-53 2 -100 5 -106 4 -5 17 -8 30 -6 23 3 24 6 25 101 1 98 9 122 38 111 7 -3
12 8 12 28 0 30 -3 33 -33 34 -18 0 -33 -3 -33 -8 0 -5 -8 -5 -17 1 -10 5 -26
5 -39 1 -15 -6 -24 -5 -27 3 -2 6 -6 3 -9 -8z"/>
<path d="M999 453 c-6 -6 -11 -21 -12 -32 -1 -12 -4 -21 -7 -21 -3 0 -6 -8 -7
-17 -1 -31 -11 -87 -26 -139 -13 -50 -13 -51 7 -50 12 1 24 -2 27 -7 3 -5 12
5 19 22 9 24 18 30 37 29 16 -2 28 -11 34 -25 6 -16 17 -23 34 -23 31 0 31 8
4 130 -32 140 -34 145 -70 145 -17 0 -35 -5 -40 -12z m47 -122 c4 -24 2 -31
-12 -31 -12 0 -15 6 -10 23 3 12 6 28 6 36 0 24 11 5 16 -28z"/>
</g>
</svg>
