<?xml version="1.0" standalone="no"?>
<!DOCTYPE svg PUBLIC "-//W3C//DTD SVG 20010904//EN"
 "http://www.w3.org/TR/2001/REC-SVG-20010904/DTD/svg10.dtd">
<svg version="1.0" xmlns="http://www.w3.org/2000/svg"
 width="180.000000pt" height="180.000000pt" viewBox="0 0 180.000000 180.000000"
 preserveAspectRatio="xMidYMid meet">
<metadata>
Created by potrace 1.14, written by Peter Selinger 2001-2017
</metadata>
<g transform="translate(0.000000,180.000000) scale(0.100000,-0.100000)"
fill="#000000" stroke="none">
<path d="M777 1164 c-1 -1 -33 -4 -72 -8 -38 -3 -79 -7 -90 -10 -11 -2 -40 -7
-65 -11 -77 -13 -83 -14 -180 -45 -101 -31 -191 -80 -239 -127 -29 -30 -58
-81 -56 -98 14 -94 126 -177 320 -238 44 -14 98 -28 120 -31 22 -4 47 -9 55
-11 61 -18 400 -37 423 -23 6 4 18 3 28 -2 9 -5 19 -6 23 -3 3 4 19 8 34 9 44
3 122 13 161 20 20 4 44 8 53 10 29 5 171 46 187 54 9 4 45 21 81 38 75 36
147 102 159 146 9 37 -3 82 -33 115 -23 26 -130 101 -144 101 -5 0 -36 11 -70
25 -55 22 -124 42 -177 50 -11 2 -42 8 -70 13 -82 16 -192 25 -323 27 -68 0
-124 0 -125 -1z m-14 -83 c-10 -9 -59 -52 -109 -96 -50 -44 -106 -93 -124
-110 -78 -69 -107 -78 -173 -50 -69 28 -85 82 -41 134 55 66 250 125 452 137
7 0 5 -5 -5 -15z m357 3 c30 -3 66 -8 80 -9 14 -2 25 -4 25 -5 0 -2 12 -4 55
-13 14 -3 58 -17 97 -32 77 -29 133 -78 133 -116 0 -50 -66 -99 -132 -99 -29
0 -75 31 -143 95 -62 59 -142 130 -173 155 -35 28 -42 44 -14 36 9 -3 42 -8
72 -12z m-162 -111 c72 -50 162 -137 162 -159 0 -11 -11 -31 -24 -44 -24 -22
-32 -23 -183 -22 -199 0 -201 0 -226 51 -15 29 -15 30 50 87 36 32 75 65 86
73 12 8 28 21 35 28 21 20 56 15 100 -14z"/>
</g>
</svg>
