<?xml version="1.0" standalone="no"?>
<!DOCTYPE svg PUBLIC "-//W3C//DTD SVG 20010904//EN"
 "http://www.w3.org/TR/2001/REC-SVG-20010904/DTD/svg10.dtd">
<svg version="1.0" xmlns="http://www.w3.org/2000/svg"
 width="356.000000pt" height="356.000000pt" viewBox="0 0 356.000000 356.000000"
 preserveAspectRatio="xMidYMid meet">
<metadata>
Created by potrace 1.14, written by Peter Selinger 2001-2017
</metadata>
<g transform="translate(0.000000,356.000000) scale(0.100000,-0.100000)"
fill="#000000" stroke="none">
<path d="M14 2469 c-6 -10 27 -33 106 -74 74 -37 214 -110 460 -239 69 -37
167 -87 218 -114 50 -26 91 -51 89 -56 -2 -5 -56 -24 -121 -42 -65 -18 -120
-34 -122 -36 -5 -5 22 -25 406 -303 335 -243 361 -262 399 -297 40 -37 244
-188 253 -188 8 0 395 275 408 290 3 3 52 39 110 80 58 41 112 80 120 87 36
29 320 235 372 270 31 21 57 43 58 49 0 7 -37 22 -82 34 -139 36 -157 42 -162
55 -2 7 34 31 87 58 94 48 209 109 442 232 72 38 178 93 238 123 59 30 107 58
107 62 0 14 -35 16 -305 15 l-270 -2 -220 -57 c-121 -31 -281 -73 -355 -93
-74 -19 -142 -37 -150 -38 -8 -2 -94 -24 -190 -50 -208 -55 -212 -56 -270 -39
-25 7 -108 29 -185 49 -162 42 -374 97 -460 120 -33 9 -139 36 -235 62 l-175
46 -283 1 c-156 1 -285 -2 -288 -5z m961 -199 c605 -189 709 -220 729 -220 11
0 150 41 310 91 160 50 305 95 321 99 46 13 374 116 430 136 33 11 86 18 153
20 98 2 116 -2 90 -23 -7 -6 -230 -97 -496 -203 -284 -113 -481 -197 -479
-204 2 -6 49 -26 106 -45 88 -28 101 -35 89 -47 -12 -12 -191 -107 -444 -236
l-81 -41 -239 123 c-131 68 -249 128 -261 134 -47 23 -34 35 70 67 56 18 106
35 110 39 11 10 -7 18 -484 209 -518 207 -509 203 -509 219 0 10 21 13 88 11
81 -1 114 -10 497 -129z"/>
</g>
</svg>
