<?xml version="1.0" standalone="no"?>
<!DOCTYPE svg PUBLIC "-//W3C//DTD SVG 20010904//EN"
 "http://www.w3.org/TR/2001/REC-SVG-20010904/DTD/svg10.dtd">
<svg version="1.0" xmlns="http://www.w3.org/2000/svg"
 width="700.000000pt" height="700.000000pt" viewBox="0 0 700.000000 700.000000"
 preserveAspectRatio="xMidYMid meet">
<metadata>
Created by potrace 1.14, written by Peter Selinger 2001-2017
</metadata>
<g transform="translate(0.000000,700.000000) scale(0.100000,-0.100000)"
fill="#000000" stroke="none">
<path d="M1637 4244 c-1 -1 -67 -5 -147 -8 -80 -4 -158 -9 -175 -11 -16 -3
-54 -7 -84 -11 -30 -3 -64 -8 -75 -10 -12 -2 -41 -7 -66 -10 -25 -3 -54 -8
-65 -11 -11 -2 -51 -10 -90 -18 -157 -32 -383 -109 -518 -176 -243 -122 -399
-295 -414 -456 -28 -307 355 -582 992 -712 55 -11 123 -23 150 -26 28 -3 60
-7 71 -9 12 -2 61 -7 110 -11 49 -4 107 -9 129 -11 106 -10 479 -3 605 11 92
11 135 16 150 20 8 2 35 7 60 10 97 13 315 66 417 100 536 183 777 480 625
769 -55 104 -209 234 -377 319 -123 61 -390 152 -506 171 -19 3 -45 8 -59 11
-41 9 -122 24 -165 29 -22 3 -56 8 -75 11 -86 13 -483 36 -493 29z m-383 -136
c-3 -13 -57 -147 -119 -298 -149 -367 -222 -550 -230 -577 -6 -22 -4 -23 57
-24 168 -3 390 5 408 15 3 2 29 7 59 10 29 4 56 8 60 10 3 2 22 7 41 10 55 8
158 44 237 82 190 91 390 294 462 469 27 66 37 189 21 259 -5 22 -7 43 -4 47
2 4 50 -4 106 -17 393 -92 647 -243 746 -442 32 -65 36 -83 35 -146 -1 -111
-45 -200 -148 -299 -72 -70 -249 -169 -395 -222 -82 -29 -252 -77 -257 -71 -2
1 9 25 24 52 24 42 28 60 28 129 0 94 -18 135 -89 207 -53 54 -50 59 44 80 63
14 65 15 80 56 8 23 12 43 10 46 -6 6 -115 16 -208 20 -72 3 -73 3 -137 -43
-70 -50 -80 -71 -72 -144 6 -52 -9 -112 -35 -148 -43 -58 -182 -106 -353 -124
-33 -3 -73 -8 -90 -10 -88 -13 -455 -6 -555 11 -14 2 -52 6 -86 10 l-60 5 -19
-43 c-10 -24 -20 -44 -21 -46 -3 -5 -150 56 -217 89 -97 49 -176 106 -245 176
-141 142 -162 297 -62 453 106 165 389 317 735 394 165 37 182 41 222 44 32 2
34 0 27 -20z m300 -29 c27 -30 28 -36 23 -96 -12 -152 -216 -465 -369 -565
-50 -33 -117 -62 -125 -55 -2 2 10 35 26 73 16 38 66 161 111 274 130 324 161
394 176 406 9 7 33 8 71 3 47 -6 63 -14 87 -40z"/>
<path d="M3739 3881 c-7 -145 -2 -791 6 -793 5 -1 140 -2 298 -3 l288 -1 -3
81 -3 80 -210 1 -210 1 0 326 c0 283 -2 328 -15 331 -8 2 -45 4 -82 4 -66 0
-68 -1 -69 -27z"/>
<path d="M4746 3901 c-4 -6 -93 -221 -193 -466 -24 -60 -51 -123 -58 -140 -17
-36 -85 -207 -85 -212 0 -2 40 -3 88 -2 l88 1 29 79 c23 62 33 79 50 80 70 3
346 1 350 -2 2 -2 17 -38 34 -79 l30 -75 85 -2 c47 0 86 0 86 2 0 5 -157 392
-170 420 -5 11 -32 76 -60 145 -28 69 -63 154 -79 190 l-27 65 -82 2 c-45 1
-84 -2 -86 -6z m152 -338 l60 -153 -27 -1 c-129 -4 -221 -3 -221 3 0 3 23 66
51 140 28 73 54 143 56 156 3 13 9 20 14 15 4 -4 34 -77 67 -160z"/>
<path d="M5368 3897 c-2 -6 -4 -192 -4 -412 l1 -400 210 0 c141 0 231 5 273
14 122 27 215 107 257 224 27 72 28 258 2 336 -38 114 -103 178 -221 219 -66
23 -87 25 -292 28 -171 3 -223 1 -226 -9z m399 -162 c80 -15 146 -67 174 -135
20 -51 17 -176 -5 -220 -25 -48 -54 -79 -96 -100 -49 -25 -93 -32 -210 -34
l-100 -2 0 251 0 251 100 -2 c55 -1 117 -5 137 -9z"/>
<path d="M6491 3896 c-4 -6 -36 -81 -71 -166 -35 -85 -71 -173 -81 -195 -27
-60 -107 -260 -139 -345 -16 -41 -31 -83 -35 -92 -6 -15 2 -17 73 -17 51 0 84
4 90 12 5 7 20 39 32 72 13 33 29 65 35 70 7 6 83 10 186 9 l174 0 13 -25 c6
-13 23 -50 37 -82 l25 -59 82 4 c56 3 82 8 81 16 -3 11 -112 280 -138 337 -7
17 -31 75 -53 130 -36 89 -82 198 -129 307 l-17 38 -78 -2 c-43 -1 -82 -6 -87
-12z m153 -335 c31 -80 52 -147 47 -150 -7 -5 -159 -6 -222 -2 -13 1 -5 31 44
161 36 96 64 156 68 148 4 -7 32 -78 63 -157z"/>
</g>
</svg>
