<svg width="22" height="24" viewBox="0 0 22 24" fill="none" xmlns="http://www.w3.org/2000/svg">
<path d="M10.4918 0.000114497C10.5343 3.84773e-05 10.5771 0.00451195 10.6171 0.0188889C10.7637 0.0714862 10.8837 0.168743 10.9999 0.28254C11.9658 1.22655 13.0295 2.01825 14.2163 2.61349C15.2115 3.1126 16.2523 3.45204 17.3399 3.6301C18.1615 3.7645 18.9864 3.79957 19.8153 3.76009C20.1856 3.74243 20.4928 4.05096 20.4877 4.44755C20.4694 5.92941 20.4561 7.41152 20.4176 8.89289C20.3988 9.61396 20.3284 10.3333 20.2793 11.0833C20.2236 11.0451 20.195 11.0225 20.1638 11.0043C19.8332 10.8113 19.5068 10.6095 19.1691 10.4321C19.0526 10.3711 19.0198 10.3112 19.0295 10.1788C19.0668 9.6662 19.106 9.15311 19.1202 8.63954C19.15 7.56628 19.1645 6.49278 19.1851 5.41927C19.1865 5.34226 19.1851 5.265 19.1851 5.16984C15.8786 5.16592 13.0006 3.95016 10.4919 1.65968C7.99332 3.94231 5.11783 5.16518 1.80126 5.16911C1.80126 5.22625 1.80057 5.27359 1.80126 5.32092C1.81822 6.41478 1.81914 7.50963 1.85651 8.60275C1.91565 10.3372 2.07567 12.0604 2.47159 13.7498C2.81501 15.2155 3.33426 16.5997 4.13366 17.8545C4.96331 19.1565 6.02222 20.1982 7.2721 21.024C8.25925 21.6761 9.31495 22.1661 10.4156 22.5497C10.4649 22.5669 10.5307 22.5642 10.5793 22.5441C11.1746 22.2964 11.7693 22.0462 12.3615 21.7894C12.4431 21.7541 12.4892 21.7622 12.5616 21.8179C12.9075 22.084 13.2615 22.3383 13.6125 22.5968C13.6338 22.6125 13.6547 22.6287 13.6962 22.6601C13.2952 22.8615 12.9174 23.0748 12.5231 23.2441C11.9231 23.5013 11.3142 23.7348 10.7035 23.9614C10.582 24.0066 10.4248 24.0139 10.3028 23.9737C8.98116 23.5379 7.71409 22.9669 6.53276 22.1889C4.29161 20.7127 2.70336 18.6589 1.76366 16.0297C1.3666 14.9187 1.09723 13.7716 0.912912 12.6C0.692832 11.2013 0.578894 9.79177 0.547716 8.37539C0.519289 7.06129 0.512182 5.74669 0.500032 4.4321C0.496364 4.02889 0.811125 3.7412 1.20589 3.76131C2.73775 3.83857 4.23292 3.63329 5.68339 3.08856C7.19186 2.52226 8.52862 1.64496 9.73104 0.525348C9.8232 0.439506 9.91719 0.355627 10.0032 0.263164C10.1039 0.154801 10.2184 0.0751657 10.3494 0.024106C10.3946 0.00646868 10.4432 0.000201209 10.4918 0.000114497Z" fill="white"/>
<path d="M16.669 22.2422C13.8089 22.2341 11.4896 19.745 11.496 16.6903C11.5026 13.6343 13.8169 11.1638 16.6754 11.1611C19.5358 11.1584 21.8551 13.6424 21.8501 16.7035C21.8453 19.769 19.5241 22.2501 16.6688 22.242L16.669 22.2422ZM16.6722 12.0119C14.2465 12.0186 12.2917 14.1197 12.2961 16.7155C12.3004 19.2927 14.2679 21.3905 16.6784 21.388C19.0959 21.3855 21.0612 19.2788 21.0541 16.6971C21.047 14.1035 19.0844 12.0051 16.6722 12.0119Z" fill="white"/>
<path d="M19.8304 17.4221H16.2419V17.2968C16.2419 16.0145 16.2433 14.7323 16.2394 13.4501C16.2389 13.3346 16.2713 13.3056 16.3744 13.3088C16.6138 13.3164 16.8535 13.3113 17.1041 13.3113V16.5048H19.8304V17.4221Z" fill="white"/>
</svg>
