<svg width="21" height="20" viewBox="0 0 21 20" fill="none" xmlns="http://www.w3.org/2000/svg">
<path d="M9.33721 4.37086C9.33721 5.25386 9.13657 6.0309 8.73529 6.70199C8.35226 7.35541 7.8233 7.85872 7.14843 8.21192C6.47355 8.56512 5.72572 8.74172 4.90492 8.74172C4.08413 8.74172 3.3363 8.56512 2.66142 8.21192C2.00479 7.85872 1.47583 7.35541 1.07456 6.70199C0.691518 6.0309 0.5 5.25386 0.5 4.37086C0.5 3.48786 0.691518 2.71965 1.07456 2.06623C1.47583 1.39514 2.00479 0.883001 2.66142 0.529801C3.3363 0.1766 4.08413 0 4.90492 0C5.72572 0 6.47355 0.1766 7.14843 0.529801C7.8233 0.883001 8.35226 1.39514 8.73529 2.06623C9.13657 2.71965 9.33721 3.48786 9.33721 4.37086ZM15.2196 0.29139H17.7367L5.78044 19.7086H3.26334L15.2196 0.29139ZM7.14843 4.37086C7.14843 3.6468 6.92955 3.06402 6.49179 2.62252C6.07228 2.16336 5.54332 1.93378 4.90492 1.93378C4.28477 1.93378 3.75581 2.16336 3.31806 2.62252C2.89854 3.06402 2.68878 3.6468 2.68878 4.37086C2.68878 5.09492 2.89854 5.68653 3.31806 6.1457C3.73757 6.5872 4.26653 6.80795 4.90492 6.80795C5.54332 6.80795 6.07228 6.5872 6.49179 6.1457C6.92955 5.68653 7.14843 5.09492 7.14843 4.37086ZM20.5 15.6291C20.5 16.5121 20.2994 17.2892 19.8981 17.9603C19.515 18.6137 18.9861 19.117 18.3112 19.4702C17.6363 19.8234 16.8885 20 16.0677 20C15.2469 20 14.4991 19.8234 13.8242 19.4702C13.1676 19.117 12.6386 18.6137 12.2373 17.9603C11.8543 17.2892 11.6628 16.5121 11.6628 15.6291C11.6628 14.7461 11.8543 13.9779 12.2373 13.3245C12.6386 12.6534 13.1676 12.1413 13.8242 11.7881C14.4991 11.4349 15.2469 11.2583 16.0677 11.2583C16.8885 11.2583 17.6363 11.4349 18.3112 11.7881C18.9861 12.1413 19.515 12.6534 19.8981 13.3245C20.2994 13.9779 20.5 14.7461 20.5 15.6291ZM18.3112 15.6291C18.3112 14.9051 18.0923 14.3223 17.6546 13.8808C17.2351 13.4216 16.7061 13.1921 16.0677 13.1921C15.4476 13.1921 14.9186 13.4216 14.4808 13.8808C14.0613 14.3223 13.8516 14.9051 13.8516 15.6291C13.8516 16.3532 14.0613 16.9448 14.4808 17.404C14.9004 17.8455 15.4293 18.0662 16.0677 18.0662C16.7061 18.0662 17.2351 17.8455 17.6546 17.404C18.0923 16.9448 18.3112 16.3532 18.3112 15.6291Z" fill="white"/>
</svg>
