<svg width="26" height="21" viewBox="0 0 26 21" fill="none" xmlns="http://www.w3.org/2000/svg">
<path d="M25.1508 9.23875V9.58584C25.0542 9.722 24.9275 9.83227 24.8173 9.95669C24.774 9.98376 24.7378 10.0203 24.7117 10.0635C24.6021 10.1523 24.5017 10.2512 24.4116 10.3588L24.3019 10.4656C24.1929 10.5542 24.0926 10.6526 24.0024 10.7593C23.9582 10.7877 23.9208 10.8249 23.8926 10.8685C23.7842 10.9569 23.684 11.0545 23.5931 11.16L23.4818 11.2684C23.3858 11.3405 23.3103 11.4321 23.2302 11.5194L23.0583 11.6876C22.9607 11.7658 22.8711 11.8529 22.7908 11.9479L22.6183 12.1153L22.3849 12.3465L22.245 12.487C22.1164 12.6021 21.9899 12.7198 21.81 12.7558L21.7826 12.759C21.6103 12.7628 21.4463 12.7369 21.3108 12.6231C21.2285 12.5543 21.152 12.4792 21.0727 12.4069L21.048 12.3829C20.9342 12.2468 20.8078 12.1211 20.6704 12.0075L20.6287 11.9599L20.2485 11.5861L20.2211 11.5594L19.839 11.1841L19.8116 11.1574C19.4219 10.7684 19.0323 10.3793 18.6429 9.99006C18.5134 9.8603 18.376 9.73722 18.2723 9.58477C18.2002 9.44406 18.213 9.31163 18.3145 9.18828C18.4059 9.12768 18.4539 9.01153 18.5784 8.99338H19.8097C19.9742 8.99498 20.1369 8.99605 20.3003 8.99925C20.3527 8.99925 20.3928 8.99925 20.3686 8.9285C20.3283 8.81156 20.3286 8.6842 20.2713 8.57153L20.2186 8.38463C20.1889 8.24671 20.1436 8.11241 20.0837 7.98414C19.9953 7.70576 19.8787 7.43664 19.7356 7.18076C19.6089 6.89921 19.4515 6.63167 19.2663 6.38272C19.1897 6.24661 19.0977 6.11927 18.992 6.00306C18.9927 6.00111 18.9931 5.99905 18.9929 5.99698C18.9928 5.99492 18.9923 5.9929 18.9913 5.99105C18.9904 5.9892 18.989 5.98756 18.9874 5.98623C18.9858 5.9849 18.9839 5.9839 18.9819 5.9833C18.5245 5.38142 17.9727 4.85327 17.3469 4.41818L17.2413 4.3485L16.936 4.14772C16.6856 3.99633 16.439 3.83854 16.1603 3.73789C15.8858 3.59087 15.5945 3.47564 15.2925 3.39453C15.1617 3.33444 15.0234 3.29127 14.8811 3.26611C14.7295 3.21548 14.5734 3.17909 14.4148 3.15744L14.3624 3.15184C14.2475 3.10698 14.1243 3.10378 14.0058 3.08402C13.8873 3.06426 13.7713 3.0413 13.6512 3.04531C13.5063 3.01327 13.3582 3.01514 13.2123 3.00419C13.0847 2.99231 12.9562 2.99106 12.8283 3.00045C12.6637 2.99831 12.4973 2.98416 12.3346 3.01861L12.1171 3.03089C11.7937 3.05714 11.4729 3.10685 11.1571 3.1796C11.0134 3.19549 10.8727 3.231 10.7391 3.28507C10.6089 3.31021 10.4817 3.34833 10.3595 3.3988C10.2264 3.42928 10.0975 3.47508 9.97549 3.53524L9.94422 3.54939C9.78898 3.59344 9.64635 3.6658 9.5029 3.74002C9.21283 3.86615 8.93497 4.01734 8.67264 4.19177C8.59885 4.22574 8.531 4.27079 8.47159 4.32527C8.38755 4.36954 8.30975 4.42419 8.2401 4.48787C8.11385 4.56403 7.99674 4.65367 7.89093 4.75513L7.82894 4.80853C7.41916 5.1336 7.0541 5.50869 6.74278 5.92456C6.68462 5.98096 6.63502 6.04515 6.59549 6.11519L6.57876 6.13895L6.5143 6.22893C6.47747 6.25802 6.45059 6.29731 6.43723 6.3416C6.34087 6.45866 6.25808 6.58572 6.19037 6.72047C6.14429 6.81285 6.09465 6.82112 6.00221 6.78294C5.81515 6.70605 5.62233 6.64224 5.4317 6.57309C5.36492 6.53161 5.29033 6.50348 5.21228 6.49032C4.87491 6.36403 4.54467 6.21959 4.19743 6.11653C4.08399 6.05782 3.96446 6.01101 3.84086 5.97689L3.73115 5.93551C3.62838 5.88365 3.51939 5.84445 3.40667 5.81883C3.32438 5.77397 3.17517 5.76303 3.29366 5.61298C3.3263 5.56332 3.36827 5.51873 3.37595 5.45705C3.42971 5.36681 3.48328 5.27648 3.53668 5.18606L3.54408 5.18072L3.54189 5.17217L3.56685 5.13239C3.636 5.05072 3.69356 4.96038 3.738 4.8638L3.82523 4.73591C3.90539 4.63979 3.97679 4.53705 4.03862 4.42886L4.25283 4.14532C4.29963 4.11065 4.33624 4.06461 4.35898 4.01182C4.63326 3.69356 4.90919 3.37664 5.21118 3.08188C5.56702 2.741 5.94248 2.42009 6.33574 2.12071C6.38918 2.09552 6.43685 2.06011 6.4759 2.01658L6.66571 1.88869L7.07713 1.61609L7.1671 1.56269C7.2812 1.51437 7.38049 1.44281 7.48252 1.3758C7.5889 1.33349 7.6901 1.27976 7.78424 1.2156C7.82553 1.20908 7.86381 1.19045 7.89395 1.1622L8.3328 0.952613C8.4398 0.918452 8.54292 0.87372 8.64055 0.819116L8.71707 0.78414C8.84048 0.751423 8.95999 0.70614 9.07364 0.649042L10.0062 0.359354L10.2531 0.299815C10.2632 0.301894 10.2737 0.301143 10.2834 0.297647C10.2931 0.294151 10.3016 0.288053 10.3079 0.280057L10.3628 0.273382L10.8532 0.168187C11.5592 0.058186 12.2682 -0.00802829 12.9847 0.000782481C13.4446 0.00665633 13.9008 0.0528461 14.3577 0.0942301L14.9337 0.189547L15.2604 0.25496L15.7524 0.376976L15.7818 0.387656L16.2755 0.537439L16.4708 0.604721L16.933 0.778266L16.9684 0.787611L17.3713 0.964895C17.473 1.01829 17.572 1.07516 17.6826 1.10934L17.9198 1.23616L18.1373 1.3483L18.9876 1.87454C19.0362 1.92072 19.0926 1.95831 19.1544 1.98561L19.3705 2.14581C19.6956 2.40799 20.0203 2.67045 20.3248 2.9564C20.669 3.27946 20.9784 3.63269 21.2894 3.98512L21.454 4.19631L21.5972 4.38614C21.674 4.49419 21.7506 4.60241 21.827 4.71081C21.8336 4.74191 21.8524 4.76929 21.8794 4.78717L22.1592 5.22904C22.1702 5.27213 22.1928 5.31163 22.2244 5.34358L22.3764 5.61538C22.3879 5.66346 22.4116 5.70798 22.4452 5.74487L22.6551 6.17206C22.6644 6.21983 22.685 6.26482 22.7154 6.30342C22.7141 6.31378 22.7159 6.32429 22.7204 6.33373C22.725 6.34317 22.7322 6.35118 22.7412 6.35682C22.7434 6.3659 22.7456 6.37471 22.7475 6.38352C22.8024 6.51648 22.8572 6.64945 22.9121 6.78241C22.9582 6.90807 23.0044 7.03374 23.0509 7.1594C23.058 7.17622 23.0654 7.19278 23.0728 7.20933C23.1112 7.33535 23.1497 7.46146 23.1883 7.58766L23.2953 7.98254L23.394 8.38303C23.4195 8.54483 23.4513 8.70609 23.4686 8.86869C23.4801 8.97549 23.5235 9.011 23.6332 8.99818C23.7285 8.99114 23.8242 8.98918 23.9198 8.99231H24.7426C24.8798 8.97255 24.9725 9.03263 25.0334 9.14663C25.0564 9.19763 25.1025 9.21926 25.1508 9.23875Z" fill="white"/>
<path d="M13.1541 21.0001H13.0444C13.0287 20.9937 13.0131 20.9814 12.9977 20.9816C12.3241 20.9937 11.6557 20.9346 10.99 20.8404L10.8528 20.8166L10.7733 20.806L9.8133 20.5795C9.73679 20.5437 9.65447 20.5212 9.57001 20.5128L8.71973 20.21L8.41363 20.0859L8.05926 19.93C8.02709 19.8991 7.98571 19.8789 7.94104 19.8723L7.48408 19.6373C7.47982 19.6287 7.47295 19.6214 7.46437 19.6167C7.45579 19.6119 7.44593 19.6098 7.43608 19.6106L7.07403 19.4013L6.2915 18.8887L6.11294 18.7597L5.86828 18.5728L5.59756 18.3496C5.55832 18.3013 5.5107 18.26 5.45685 18.2276L5.15761 17.9587C5.1294 17.9158 5.09197 17.8794 5.0479 17.8519L4.75167 17.5561C4.72561 17.5027 4.67899 17.4667 4.63537 17.4285L4.39044 17.1586C4.34916 17.0856 4.29439 17.0207 4.22889 16.9671L4.06185 16.7583C3.99825 16.654 3.92479 16.5557 3.84242 16.4646L3.73627 16.3186L3.26999 15.5852L2.8561 14.7842C2.79521 14.6372 2.73441 14.4901 2.6737 14.3429C2.6268 14.2254 2.59745 14.1012 2.53244 13.991V13.9851C2.49645 13.8303 2.44915 13.6781 2.39091 13.5299C2.36111 13.4143 2.33112 13.2986 2.30095 13.1828C2.27653 13.0664 2.24609 12.951 2.22963 12.8335C2.21839 12.7558 2.18712 12.7364 2.10703 12.7372C1.67201 12.742 1.23673 12.7393 0.801712 12.7393C0.685448 12.6442 0.583837 12.5333 0.5 12.4101V12.2766C0.533463 12.1677 0.600662 12.0763 0.66457 11.9829C0.756505 11.9121 0.839382 11.8308 0.911426 11.7407L1.07216 11.5821C1.16735 11.5085 1.2526 11.4235 1.32587 11.329L1.47288 11.1859L1.57245 11.0887C1.68162 10.995 1.7833 10.8934 1.87663 10.7846C1.89171 10.7755 1.90602 10.7653 1.91942 10.7539C2.4241 10.2545 2.92832 9.75467 3.43209 9.2545C3.53769 9.1493 3.64631 9.05025 3.78866 8.99365C3.928 8.95306 4.06514 8.96695 4.20146 9.007C4.2991 9.05292 4.38029 9.12154 4.46532 9.18508C4.51277 9.23287 4.55995 9.28093 4.60712 9.32872C4.95437 9.67288 5.30024 10.0181 5.6494 10.3609C5.93987 10.6469 6.23335 10.9301 6.52546 11.2153L6.66261 11.3515L6.9037 11.5861L7.07348 11.7514C7.14093 11.8398 7.22027 11.9189 7.30937 11.9866C7.36258 12.0425 7.39985 12.111 7.41746 12.1852C7.43507 12.2595 7.43242 12.3369 7.40975 12.4098L7.24107 12.6814C7.19252 12.731 7.13712 12.7436 7.068 12.7436C6.66837 12.7404 6.26846 12.742 5.86855 12.742H5.56849C5.52186 12.742 5.48456 12.746 5.50979 12.8082C5.56821 12.9505 5.59811 13.1035 5.67601 13.2388C5.69603 13.347 5.75582 13.4385 5.80245 13.5357L5.86087 13.6577C5.89932 13.7751 5.95622 13.886 6.02956 13.9864C6.08688 14.1223 6.16835 14.2451 6.24899 14.3688C6.24894 14.3781 6.25179 14.3872 6.25718 14.3949C6.26257 14.4027 6.27023 14.4086 6.27916 14.412C6.45086 14.7023 6.65071 14.976 6.876 15.2293C6.91969 15.3045 6.97801 15.3707 7.0477 15.4242C7.10062 15.4995 7.16269 15.5684 7.23257 15.6292C7.29957 15.7104 7.37555 15.7842 7.45912 15.8492C7.51398 15.9128 7.56884 15.9758 7.64427 16.0153C7.70567 16.0913 7.77986 16.1567 7.86369 16.2086C7.94641 16.2905 8.03843 16.363 8.13798 16.4246L8.23343 16.4983C8.51704 16.7055 8.80613 16.9041 9.12759 17.0534C9.36275 17.1963 9.61272 17.3147 9.87337 17.4066C10.027 17.4894 10.1943 17.5358 10.3602 17.5868C10.3751 17.5991 10.3926 17.6081 10.4113 17.6134C10.4301 17.6186 10.4498 17.6199 10.4691 17.6173C10.5585 17.664 10.6584 17.6808 10.7544 17.7088L10.7637 17.7115L10.7988 17.7163C10.9121 17.7618 11.0315 17.7912 11.1535 17.8036C11.3238 17.8546 11.5001 17.8746 11.6746 17.8992C11.7843 17.916 11.8915 17.943 12.0037 17.9355C12.1373 17.974 12.2764 17.9582 12.4121 17.9737C12.5493 17.9985 12.6881 17.9876 12.8263 17.9828L13.2358 17.9774L13.5693 17.9521C13.7339 17.932 13.8999 17.9275 14.0609 17.8848L14.1135 17.8786L14.1409 17.8762C14.2348 17.8731 14.3274 17.8551 14.4152 17.8228C14.5734 17.8022 14.729 17.7665 14.8799 17.716C14.9843 17.6973 15.0865 17.6684 15.1849 17.6295L15.2905 17.5876C15.4459 17.5584 15.5954 17.505 15.7334 17.4296C16.01 17.3326 16.2763 17.2101 16.5289 17.0638C16.8184 16.9209 17.0929 16.751 17.3487 16.5565C17.4295 16.5102 17.5039 16.454 17.57 16.3894L17.5679 16.3912L17.6444 16.3322C17.6899 16.315 17.7291 16.285 17.7571 16.246C17.8658 16.1692 17.9664 16.0821 18.0574 15.9859C18.1039 15.9635 18.1427 15.9285 18.1691 15.885C18.2789 15.7954 18.3792 15.6952 18.4683 15.586C18.5167 15.5568 18.5558 15.515 18.5811 15.4653C18.6744 15.383 18.7562 15.2891 18.8243 15.186C18.8954 15.1291 18.9431 15.0544 18.9911 14.9796C19.0483 14.9234 19.096 14.8587 19.1324 14.7879C19.185 14.7773 19.2278 14.8053 19.2733 14.8221C19.4527 14.8883 19.6318 14.9556 19.8109 15.0226L20.2183 15.1756L20.249 15.1858C20.4015 15.2517 20.5529 15.3192 20.7136 15.3665C20.7912 15.4128 20.8771 15.4445 20.9668 15.46C21.2611 15.5916 21.5639 15.7032 21.8681 15.8116C21.9114 15.833 21.9562 15.8513 22.0022 15.8663C22.0719 15.8842 22.0496 15.9197 22.0296 15.9595L21.4536 16.7858C21.4287 16.7931 21.4229 16.8125 21.4174 16.8344L21.153 17.1583C21.1093 17.1913 21.0738 17.2335 21.0491 17.2816L20.7704 17.5863L20.6302 17.7334L20.3743 17.9892C20.3142 18.0279 20.2617 18.0768 20.2193 18.1336L19.9352 18.3835L19.778 18.517L19.4423 18.784C19.4329 18.7845 19.424 18.7878 19.4166 18.7934C19.4093 18.7991 19.4039 18.8068 19.4012 18.8155L18.4568 19.4504C18.3892 19.4746 18.3268 19.5109 18.2728 19.5572L18.0868 19.6587L17.7549 19.8309L17.5081 19.9569C17.4441 19.9631 17.3929 19.9962 17.3435 20.0314L16.9046 20.2183C16.7806 20.2505 16.6604 20.2953 16.5459 20.3518L16.1136 20.4984L15.6747 20.6249L14.9342 20.7937L14.3327 20.8935C14.2401 20.8896 14.1475 20.9 14.0584 20.9245C13.7619 20.9419 13.4665 20.9779 13.1689 20.9795C13.1631 20.9795 13.1587 20.9937 13.1541 21.0001Z" fill="white"/>
</svg>
