<svg width="27" height="25" viewBox="0 0 27 25" fill="none" xmlns="http://www.w3.org/2000/svg">
<path d="M20.2519 13.1476C20.7338 12.6527 21.1854 12.1893 21.6363 11.7256C22.2344 11.1105 22.8166 10.479 23.4337 9.88343C24.0774 9.26262 24.851 9.12045 25.6751 9.46059C26.4932 9.79807 26.9 10.4571 26.9359 11.329C26.9565 11.8316 26.781 12.287 26.456 12.6759C24.9334 14.4982 23.4201 16.3284 21.8809 18.1367C21.2345 18.8961 20.3722 19.3222 19.3972 19.5033C19.0786 19.5624 18.7486 19.582 18.4236 19.583C16.1918 19.5896 13.9598 19.588 11.728 19.5853C11.2598 19.5847 10.864 19.7441 10.5351 20.0766C10.4068 20.2065 10.2656 20.3244 10.1439 20.4599C10.1021 20.5067 10.0748 20.5964 10.0868 20.6572C10.2051 21.2571 10.0655 21.7723 9.62255 22.2054C8.81505 22.995 8.01354 23.7905 7.2087 24.5824C6.95847 24.8285 6.6697 24.8226 6.41948 24.5708C4.7018 22.8435 2.98413 21.1163 1.26679 19.389C1.07173 19.1927 0.877329 18.9954 0.683264 18.7984C0.447329 18.5593 0.435034 18.2723 0.670636 18.0338C1.36681 17.3283 2.06897 16.6294 2.7688 15.9272C2.85852 15.8372 2.94791 15.7461 3.03564 15.6538C3.39718 15.2735 3.83483 15.0868 4.36219 15.1386C4.45823 15.1479 4.50973 15.1233 4.55958 15.0376C5.66382 13.1496 7.33464 12.1485 9.48564 11.9017C10.6351 11.7698 11.7483 11.908 12.825 12.3368C12.8991 12.3664 12.9865 12.3723 13.0679 12.3723C14.9012 12.3747 16.7342 12.3803 18.5675 12.3713C19.2098 12.368 19.7452 12.5849 20.1851 13.047C20.2077 13.0706 20.222 13.1018 20.2519 13.1476ZM9.47168 19.7607C9.60028 19.6039 9.69964 19.4618 9.8196 19.3402C10.2553 18.8991 10.7816 18.6187 11.4024 18.5848C12.0484 18.5496 12.6973 18.5612 13.345 18.5603C15.0896 18.5576 16.8345 18.5666 18.5791 18.5563C19.5857 18.5503 20.4633 18.1939 21.1289 17.4322C21.9739 16.4653 22.7821 15.4665 23.6059 14.4809C24.3017 13.6485 25.0032 12.8204 25.6897 11.9804C26.0403 11.5512 25.9695 10.9278 25.5588 10.5733C25.1444 10.2159 24.5207 10.2325 24.1415 10.6212C23.0436 11.7462 21.951 12.8762 20.8517 14C20.7421 14.1122 20.7029 14.2195 20.7122 14.3783C20.776 15.4645 19.8422 16.4782 18.7612 16.4855C17.3267 16.4955 15.8921 16.4889 14.4576 16.4862C14.3775 16.4862 14.2897 16.4706 14.2183 16.4364C13.997 16.3308 13.8976 16.1092 13.9488 15.8687C14.0003 15.6256 14.1827 15.4714 14.4492 15.4675C14.8812 15.4615 15.3132 15.4658 15.7452 15.4658C16.7199 15.4658 17.6949 15.4685 18.6695 15.4645C19.0932 15.4628 19.4826 15.1971 19.6199 14.8061C19.7661 14.3899 19.6947 14.0096 19.375 13.69C19.1626 13.4778 18.9018 13.3964 18.606 13.3964C16.8505 13.3981 15.0946 13.3911 13.339 13.4017C12.9346 13.4041 12.5462 13.3775 12.1793 13.1938C12.1108 13.1596 12.0327 13.144 11.9586 13.1214C11.0624 12.8493 10.1519 12.8088 9.23209 12.9659C7.58885 13.2466 6.31115 14.0677 5.46112 15.5219C5.39366 15.6372 5.41327 15.699 5.50199 15.7873C6.43742 16.7157 7.36854 17.6485 8.30031 18.5808C8.6715 18.9525 9.04069 19.3266 9.47168 19.7607ZM6.81558 23.5155C6.85247 23.4846 6.87939 23.4657 6.90232 23.4427C7.56858 22.7861 8.23551 22.13 8.90045 21.4717C9.17826 21.1966 9.17726 20.9116 8.90012 20.6343C7.47122 19.205 6.04198 17.7767 4.61275 16.3477C4.35455 16.0896 4.05747 16.0873 3.79761 16.346C3.51914 16.6234 3.24499 16.9051 2.96619 17.1824C2.56244 17.5844 2.15603 17.9836 1.73633 18.3985C3.43872 20.1135 5.12549 21.8131 6.81558 23.5155Z" fill="white"/>
<path d="M21.5672 5.689C21.5426 8.83959 19.0018 11.3624 15.8782 11.3524C12.7808 11.3425 10.2044 8.84424 10.2151 5.66542C10.2257 2.49257 12.7708 -0.00464383 15.919 6.48425e-06C19.042 0.0046568 21.5915 2.5899 21.5672 5.689ZM20.5437 5.68568C20.5557 3.1393 18.4632 1.02606 15.8991 1.0264C13.3184 1.0264 11.2422 3.10808 11.2366 5.70229C11.2312 8.18456 13.3254 10.3147 15.7987 10.327C18.4289 10.34 20.5314 8.28354 20.5437 5.68601V5.68568Z" fill="white"/>
<path d="M15.6458 6.45278V7.0703H17.1038V7.6192H15.6458V8.57978H14.9664V7.6192H14.1725V7.0703H14.9664V6.45278H14.1725V5.85814H14.9664V2.99927H16.3939C16.7705 2.99927 17.0962 3.07296 17.371 3.22035C17.6458 3.36266 17.8545 3.56596 17.997 3.83025C18.1446 4.08945 18.2184 4.38931 18.2184 4.72984C18.2184 5.07036 18.1446 5.37022 17.997 5.62943C17.8545 5.88863 17.6458 6.09193 17.371 6.23932C17.1013 6.38163 16.7756 6.45278 16.3939 6.45278H15.6458ZM15.6458 3.59391V5.85814H16.3023C16.7247 5.85814 17.0275 5.75649 17.2107 5.55319C17.3939 5.3499 17.4855 5.07544 17.4855 4.72984C17.4855 4.38423 17.3914 4.10978 17.2031 3.90648C17.0199 3.6981 16.7196 3.59391 16.3023 3.59391H15.6458Z" fill="white"/>
</svg>
