<svg width="30" height="30" viewBox="0 0 30 30" fill="none" xmlns="http://www.w3.org/2000/svg">
<g clip-path="url(#clip0_377_338)">
<path d="M27.5 13.85V15C27.4985 17.6955 26.6256 20.3184 25.0117 22.4773C23.3977 24.6362 21.1291 26.2156 18.5442 26.9799C15.9593 27.7442 13.1966 27.6524 10.6681 26.7182C8.1396 25.7841 5.98082 24.0576 4.5137 21.7963C3.04658 19.5351 2.34974 16.8601 2.5271 14.1704C2.70445 11.4807 3.74651 8.92042 5.49785 6.87135C7.24919 4.82229 9.61598 3.39424 12.2452 2.8002C14.8745 2.20615 17.6253 2.47793 20.0875 3.57501" stroke="#2799FF" stroke-width="4" stroke-linecap="round" stroke-linejoin="round"/>
<path d="M27.5 5L15 17.5125L11.25 13.7625" stroke="#2799FF" stroke-width="4" stroke-linecap="round" stroke-linejoin="round"/>
</g>
<defs>
<clipPath id="clip0_377_338">
<rect width="30" height="30" fill="white"/>
</clipPath>
</defs>
</svg>
