<svg width="47" height="47" viewBox="0 0 47 47" fill="none" xmlns="http://www.w3.org/2000/svg">
<path d="M13.7734 13.7124C10.8438 16.6421 6.03906 16.6421 3.10938 13.7124C0.179688 10.7827 0.179688 5.97803 3.10938 3.04834C6.03906 0.118652 10.8438 0.118652 13.7734 3.04834C16.7031 5.97803 16.7031 10.7827 13.7734 13.7124ZM43.7734 33.0483C46.7031 35.978 46.7031 40.7827 43.7734 43.7124C40.8438 46.6421 36.0391 46.6421 33.1094 43.7124C30.1797 40.7827 30.1797 35.978 33.1094 33.0483C36.0391 30.1187 40.8438 30.1187 43.7734 33.0483ZM43.5391 5.97803C44.9453 7.38428 44.9453 9.84521 43.5391 11.2515L11.3125 43.478C9.90625 44.8843 7.44531 44.8843 6.03906 43.478L3.34375 40.7827C1.9375 39.3765 1.9375 36.9155 3.34375 35.5093L35.5703 3.28271C36.9766 1.87646 39.4375 1.87646 40.8438 3.28271L43.5391 5.97803Z" fill="#2799FF"/>
</svg>
