<svg width="79" height="80" viewBox="0 0 79 80" fill="none" xmlns="http://www.w3.org/2000/svg">
<path d="M23.0418 50.1968H32.9168C33.7898 50.1968 34.6271 49.85 35.2444 49.2327C35.8617 48.6153 36.2085 47.7781 36.2085 46.9051C36.2085 46.0321 35.8617 45.1948 35.2444 44.5775C34.6271 43.9602 33.7898 43.6134 32.9168 43.6134H23.0418C22.1688 43.6134 21.3316 43.9602 20.7143 44.5775C20.097 45.1948 19.7502 46.0321 19.7502 46.9051C19.7502 47.7781 20.097 48.6153 20.7143 49.2327C21.3316 49.85 22.1688 50.1968 23.0418 50.1968ZM62.5418 17.2801H16.4585C13.8395 17.2801 11.3277 18.3205 9.47582 20.1724C7.6239 22.0243 6.5835 24.5361 6.5835 27.1551V56.7801C6.5835 59.3991 7.6239 61.9109 9.47582 63.7628C11.3277 65.6147 13.8395 66.6551 16.4585 66.6551H62.5418C65.1608 66.6551 67.6726 65.6147 69.5245 63.7628C71.3764 61.9109 72.4168 59.3991 72.4168 56.7801V27.1551C72.4168 24.5361 71.3764 22.0243 69.5245 20.1724C67.6726 18.3205 65.1608 17.2801 62.5418 17.2801ZM65.8335 56.7801C65.8335 57.6531 65.4867 58.4903 64.8694 59.1077C64.2521 59.725 63.4148 60.0718 62.5418 60.0718H16.4585C15.5855 60.0718 14.7482 59.725 14.1309 59.1077C13.5136 58.4903 13.1668 57.6531 13.1668 56.7801V37.0301H65.8335V56.7801ZM65.8335 30.4468H13.1668V27.1551C13.1668 26.2821 13.5136 25.4448 14.1309 24.8275C14.7482 24.2102 15.5855 23.8634 16.4585 23.8634H62.5418C63.4148 23.8634 64.2521 24.2102 64.8694 24.8275C65.4867 25.4448 65.8335 26.2821 65.8335 27.1551V30.4468Z" fill="#2799FF"/>
</svg>
