<svg width="60" height="59" viewBox="0 0 60 59" fill="none" xmlns="http://www.w3.org/2000/svg">
<path d="M43.3594 15.0249C39.7266 11.6265 34.9219 9.63428 29.8828 9.63428C20.8594 9.75146 13.0078 15.9624 10.8984 24.5171C10.6641 25.2202 10.0781 25.5718 9.49219 25.5718H2.8125C1.875 25.5718 1.17188 24.8687 1.40625 23.9312C3.86719 10.4546 15.7031 0.259277 30 0.259277C37.7344 0.259277 44.7656 3.42334 50.0391 8.34521L54.2578 4.12646C56.0156 2.36865 59.0625 3.65771 59.0625 6.11865V21.8218C59.0625 23.4624 57.7734 24.6343 56.25 24.6343H40.4297C37.9688 24.6343 36.6797 21.7046 38.4375 19.9468L43.3594 15.0249ZM3.75 34.0093H19.4531C21.9141 34.0093 23.2031 37.0562 21.4453 38.814L16.5234 43.7358C20.1562 47.1343 24.9609 49.1265 30 49.1265C39.0234 49.0093 46.875 42.7983 48.9844 34.2437C49.2188 33.5405 49.8047 33.189 50.3906 33.189H57.0703C58.0078 33.189 58.7109 33.8921 58.4766 34.8296C56.0156 48.3062 44.1797 58.3843 30 58.3843C22.1484 58.3843 15.1172 55.3374 9.84375 50.4155L5.625 54.6343C3.86719 56.3921 0.9375 55.103 0.9375 52.6421V36.8218C0.9375 35.2983 2.10938 34.0093 3.75 34.0093Z" fill="#2799FF"/>
</svg>
