<svg width="31" height="31" viewBox="0 0 31 31" fill="none" xmlns="http://www.w3.org/2000/svg">
<path d="M22.4023 7.98828C20.5254 6.23242 18.043 5.20312 15.4395 5.20312C10.7773 5.26367 6.7207 8.47266 5.63086 12.8926C5.50977 13.2559 5.20703 13.4375 4.9043 13.4375H1.45312C0.96875 13.4375 0.605469 13.0742 0.726562 12.5898C1.99805 5.62695 8.11328 0.359375 15.5 0.359375C19.4961 0.359375 23.1289 1.99414 25.8535 4.53711L28.0332 2.35742C28.9414 1.44922 30.5156 2.11523 30.5156 3.38672V11.5C30.5156 12.3477 29.8496 12.9531 29.0625 12.9531H20.8887C19.6172 12.9531 18.9512 11.4395 19.8594 10.5312L22.4023 7.98828ZM1.9375 17.7969H10.0508C11.3223 17.7969 11.9883 19.3711 11.0801 20.2793L8.53711 22.8223C10.4141 24.5781 12.8965 25.6074 15.5 25.6074C20.1621 25.5469 24.2188 22.3379 25.3086 17.918C25.4297 17.5547 25.7324 17.373 26.0352 17.373H29.4863C29.9707 17.373 30.334 17.7363 30.2129 18.2207C28.9414 25.1836 22.8262 30.3906 15.5 30.3906C11.4434 30.3906 7.81055 28.8164 5.08594 26.2734L2.90625 28.4531C1.99805 29.3613 0.484375 28.6953 0.484375 27.4238V19.25C0.484375 18.4629 1.08984 17.7969 1.9375 17.7969Z" fill="#2799FF"/>
</svg>
