<svg width="25" height="25" viewBox="0 0 25 25" fill="none" xmlns="http://www.w3.org/2000/svg">
<path d="M7.59961 7.41016C6.08594 8.92383 3.60352 8.92383 2.08984 7.41016C0.576172 5.89648 0.576172 3.41406 2.08984 1.90039C3.60352 0.386719 6.08594 0.386719 7.59961 1.90039C9.11328 3.41406 9.11328 5.89648 7.59961 7.41016ZM23.0996 17.4004C24.6133 18.9141 24.6133 21.3965 23.0996 22.9102C21.5859 24.4238 19.1035 24.4238 17.5898 22.9102C16.0762 21.3965 16.0762 18.9141 17.5898 17.4004C19.1035 15.8867 21.5859 15.8867 23.0996 17.4004ZM22.9785 3.41406C23.7051 4.14062 23.7051 5.41211 22.9785 6.13867L6.32812 22.7891C5.60156 23.5156 4.33008 23.5156 3.60352 22.7891L2.21094 21.3965C1.48438 20.6699 1.48438 19.3984 2.21094 18.6719L18.8613 2.02148C19.5879 1.29492 20.8594 1.29492 21.5859 2.02148L22.9785 3.41406Z" fill="#2799FF"/>
</svg>
