<svg width="21" height="23" viewBox="0 0 21 23" fill="none" xmlns="http://www.w3.org/2000/svg">
<path d="M1.30657 5.03131L4.08705 2.06034C4.41501 1.71337 4.96398 1.71337 5.29193 2.06034L6.18311 3.02175C6.29719 3.14464 6.49681 3.10126 6.54672 2.94223L6.97448 1.66999C7.03865 1.51819 7.18124 1.41699 7.33809 1.41699H16.3925C17.2266 1.41699 18.0038 1.85071 18.4529 2.56635L19.5081 4.26508C19.8289 4.78554 20 5.38551 20 5.99995V19.091C20 20.45 18.9092 21.556 17.5689 21.556H3.43114C2.09081 21.556 1 20.45 1 19.091V9.52752C1 9.26729 1.09268 9.02152 1.26379 8.82635L2.04803 7.92277C2.31895 7.61193 2.29756 7.13484 1.99812 6.8457L1.34221 6.22404C1.00713 5.90598 0.992871 5.37106 1.30657 5.03131Z" stroke="#272C38" stroke-width="1.5" stroke-miterlimit="10"/>
<path d="M8.5498 6.9325H16.8414V6.18072C16.8414 5.23377 16.0856 4.46753 15.1517 4.46753H10.2395C9.30552 4.46753 8.5498 5.23377 8.5498 6.18072V6.9325Z" stroke="#272C38" stroke-width="1.5" stroke-miterlimit="10"/>
</svg>
