<svg width="38" height="15" viewBox="0 0 38 15" fill="none" xmlns="http://www.w3.org/2000/svg">
<path d="M36.812 10.3788C36.1559 10.3788 35.6245 9.8635 35.6245 9.22728C35.6245 8.59107 36.1559 8.07576 36.812 8.07576H37.6284C37.6284 8.07576 37.9951 7.42947 37.9995 7.27042C38.0351 6.02749 36.1522 4.60033 34.6545 4.5154L25.9666 4.02241L21.7221 0.845648C20.9977 0.303714 20.0967 0.00575774 19.1823 0.00575774H19.1623L14.8673 0H14.8436C12.4122 0 10.8885 0.79455 9.41602 1.56391C7.6348 2.49376 5.79197 3.45456 1.78124 3.45456C1.12516 3.45456 0.593758 3.96987 0.593758 4.60608V5.77272H2.37498C3.03107 5.77272 3.56247 6.28802 3.56247 6.92424C3.56247 7.56046 3.03107 8.07576 2.37498 8.07576H0.430479L0.0356404 9.50869C-0.0333821 9.77569 -0.00146848 10.0571 0.125444 10.3032L1.31293 12.6063C1.51406 12.9964 1.92522 13.2425 2.37498 13.2425H6.66329C7.41288 14.3026 8.67088 15 10.0936 15C11.5164 15 12.7744 14.3026 13.524 13.2425H26.8505C27.6001 14.3026 28.8581 15 30.2809 15C31.7036 15 32.9616 14.3026 33.7112 13.2425H36.812C37.4681 13.2425 37.9995 12.7272 37.9995 12.091V11.5303C37.9995 11.2043 37.5542 10.3788 37.5542 10.3788H36.812ZM10.0936 12.697C9.11173 12.697 8.3124 11.9218 8.3124 10.9697C8.3124 10.0175 9.11173 9.2424 10.0936 9.2424C11.0755 9.2424 11.8749 10.0175 11.8749 10.9697C11.8749 11.9218 11.0755 12.697 10.0936 12.697ZM14.5103 4.05551L15.5353 2.30376L19.1638 2.3088H19.1831C19.5749 2.3088 19.9609 2.43619 20.2719 2.66865L22.1013 4.03824L14.5111 4.05623L14.5103 4.05551ZM30.2809 12.697C29.299 12.697 28.4996 11.9218 28.4996 10.9697C28.4996 10.0175 29.299 9.2424 30.2809 9.2424C31.2628 9.2424 32.0621 10.0175 32.0621 10.9697C32.0621 11.9218 31.2628 12.697 30.2809 12.697Z" fill="#FF1600"/>
</svg>
