<svg width="10" height="10" viewBox="0 0 10 10" fill="none" xmlns="http://www.w3.org/2000/svg">
<g clip-path="url(#clip0_33_1372)">
<path d="M7.77512 2.06522C7.91377 1.92879 8.10223 1.85141 8.29919 1.85C8.49625 1.84858 8.68579 1.92325 8.8265 2.05767C8.96722 2.19209 9.04763 2.37535 9.05015 2.56738C9.05267 2.75941 8.97712 2.94462 8.83996 3.08251L4.87212 7.91782C4.80396 7.98937 4.7217 8.04679 4.63026 8.08666C4.53883 8.12653 4.44009 8.148 4.33995 8.14984C4.2398 8.15169 4.14031 8.13382 4.04739 8.09737C3.95449 8.06088 3.87006 8.00652 3.79918 7.93753L1.16845 5.37411C1.02866 5.23776 0.950148 5.0529 0.950195 4.86012C0.950245 4.66735 1.02885 4.4825 1.16871 4.34622C1.30857 4.20994 1.49824 4.13342 1.69599 4.13346C1.89374 4.1335 2.08338 4.21012 2.22317 4.34646L4.33995 6.32383L7.75537 2.08791C7.76167 2.08011 7.76842 2.0727 7.77562 2.06571L7.77512 2.06522Z" fill="#38AB96"/>
<path fill-rule="evenodd" clip-rule="evenodd" d="M8.8265 2.05767C8.68579 1.92325 8.49625 1.84858 8.29919 1.85C8.25586 1.85031 8.21288 1.8543 8.17081 1.86179C8.07946 1.87805 7.99216 1.91079 7.91336 1.95817C7.91165 1.95919 7.90994 1.96022 7.90823 1.96126C7.86031 1.9906 7.81562 2.02539 7.77512 2.06522L7.77562 2.06571C7.76842 2.0727 7.76167 2.08011 7.75537 2.08791L4.33995 6.32383L2.22317 4.34646C2.08338 4.21012 1.89374 4.1335 1.69599 4.13346C1.49824 4.13342 1.30857 4.20994 1.16871 4.34622C1.02885 4.4825 0.950245 4.66735 0.950195 4.86012C0.950148 5.0529 1.02866 5.23776 1.16845 5.37411L3.79918 7.93753C3.87006 8.00652 3.95449 8.06088 4.04739 8.09737C4.14031 8.13382 4.2398 8.15169 4.33995 8.14984C4.44009 8.148 4.53883 8.12653 4.63026 8.08666C4.7217 8.04679 4.80396 7.98937 4.87212 7.91782L8.83996 3.08251C8.97712 2.94462 9.05267 2.75941 9.05015 2.56738C9.04763 2.37535 8.96722 2.19209 8.8265 2.05767ZM4.518 7.67424L8.48671 2.83791L8.50048 2.82404C8.56127 2.76292 8.6015 2.67273 8.60015 2.5719C8.59885 2.47109 8.55632 2.38251 8.49467 2.32362C8.4345 2.26613 8.3644 2.24329 8.30293 2.24373C8.2474 2.24413 8.18489 2.2636 8.12936 2.3105L8.11699 2.32246L4.38918 6.94582L1.89144 4.61255L1.88822 4.60941C1.8281 4.55078 1.75763 4.52723 1.69588 4.52721C1.63411 4.5272 1.56364 4.55072 1.50352 4.6093C1.44194 4.6693 1.40022 4.75896 1.4002 4.8602C1.40017 4.96137 1.44179 5.05101 1.50328 5.11104L4.13381 7.67428C4.1338 7.67428 4.13382 7.67428 4.13381 7.67428C4.1645 7.70416 4.1983 7.72504 4.23161 7.73814C4.26473 7.7511 4.29816 7.75677 4.33049 7.75618C4.36283 7.7556 4.39639 7.74867 4.42955 7.73422C4.45984 7.72104 4.49023 7.70128 4.518 7.67424Z" fill="#38AB96"/>
</g>
<defs>
<clipPath id="clip0_33_1372">
<rect width="9" height="9" fill="white" transform="translate(0.5 0.5)"/>
</clipPath>
</defs>
</svg>
