<svg width="13" height="10" viewBox="0 0 13 10" fill="none" xmlns="http://www.w3.org/2000/svg">
<path d="M10.4054 0.652128C10.6006 0.450015 10.8658 0.335381 11.143 0.333281C11.4203 0.331188 11.6871 0.441801 11.8852 0.640948C12.0832 0.840095 12.1964 1.11158 12.1999 1.39608C12.2035 1.68057 12.0971 1.95494 11.9041 2.15923L6.31974 9.32266C6.2238 9.42866 6.10804 9.51373 5.97934 9.57279C5.85066 9.63186 5.7117 9.66366 5.57076 9.66639C5.42981 9.66913 5.28978 9.64266 5.15901 9.58866C5.02825 9.53459 4.90944 9.45406 4.80968 9.35186L1.10718 5.55419C0.910431 5.35219 0.799937 5.07832 0.800003 4.79272C0.800073 4.50714 0.910697 4.23328 1.10754 4.03139C1.30438 3.8295 1.57133 3.71613 1.84964 3.7162C2.12795 3.71626 2.39485 3.82977 2.5916 4.03176L5.57076 6.96119L10.3776 0.685748C10.3865 0.674195 10.396 0.663208 10.4061 0.652861L10.4054 0.652128Z" fill="white"/>
</svg>
