<svg width="25" height="25" viewBox="0 0 25 25" fill="none" xmlns="http://www.w3.org/2000/svg">
<path d="M12.5 0C5.60722 0 0 5.60722 0 12.5C0 19.3928 5.60722 25 12.5 25C19.3928 25 25 19.3928 25 12.5C25 5.60722 19.3928 0 12.5 0ZM18.4448 18.9655C18.2417 19.1687 17.975 19.2709 17.7084 19.2709C17.4417 19.2709 17.1749 19.1687 16.972 18.9655L11.7636 13.7573C11.5677 13.5626 11.4584 13.2978 11.4584 13.0209V6.25C11.4584 5.67398 11.9249 5.2084 12.5 5.2084C13.0751 5.2084 13.5416 5.67398 13.5416 6.25V12.5896L18.4448 17.4927C18.852 17.9001 18.852 18.5583 18.4448 18.9655Z" fill="#BF906C"/>
</svg>
