<svg width="24" height="24" viewBox="0 0 24 24" fill="none" xmlns="http://www.w3.org/2000/svg">
<path d="M3.00852 7.51687C3.06814 7.19617 3.11073 6.87119 3.18739 6.55477C3.477 5.36176 4.01363 4.31413 4.95486 3.50169C5.75979 2.8047 6.86286 2.83463 7.61669 3.58721C8.4557 4.42531 9.29045 5.26341 10.1252 6.10579C10.9088 6.89685 10.9216 8.0642 10.1465 8.86809C9.84836 9.17597 9.54598 9.47957 9.23934 9.77889C9.15842 9.85586 9.14564 9.91144 9.20101 10.0183C10.3339 12.1264 11.9438 13.747 14.0477 14.8802C14.1541 14.9358 14.2095 14.9187 14.2819 14.8417C14.5545 14.5595 14.8441 14.2901 15.1124 14.0036C15.8961 13.1612 17.178 13.1356 17.9957 13.9993C18.7708 14.8203 19.563 15.6199 20.3807 16.3939C21.1771 17.1507 21.1644 18.2454 20.5766 19.0792C19.7802 20.2124 18.6856 20.811 17.3271 20.9692C16.4071 21.0719 15.5213 20.9051 14.6439 20.6571C12.7615 20.1269 11.1005 19.169 9.59283 17.9418C7.54429 16.2699 5.74701 14.3628 4.31175 12.1307C3.71976 11.2071 3.28535 10.2108 3.08944 9.12038C3.05963 8.94079 3.02981 8.76547 3 8.58588C3 8.23097 3 7.88033 3 7.52542L3.00852 7.51687ZM16.9225 19.8746C17.0886 19.8489 17.3782 19.8147 17.6635 19.7591C18.5494 19.5924 19.2095 19.0878 19.6993 18.3523C19.9378 17.9931 19.9846 17.5698 19.58 17.1807C18.7623 16.3896 17.9702 15.5729 17.1652 14.7647C16.7862 14.3842 16.3262 14.3842 15.9429 14.7647C15.5894 15.1154 15.2402 15.4703 14.8867 15.8252C14.5587 16.1544 14.1541 16.2271 13.7495 15.9962C13.2214 15.6926 12.6933 15.389 12.1908 15.0469C10.402 13.8368 9.08176 12.2119 8.08517 10.3091C7.86796 9.89434 7.93184 9.50095 8.26404 9.16742C8.62179 8.80823 8.97955 8.4576 9.33304 8.09414C9.68653 7.73067 9.69504 7.26459 9.35433 6.91823C8.51106 6.0673 7.66779 5.22065 6.82026 4.374C6.51362 4.06613 6.08773 4.03619 5.75553 4.31413C5.55962 4.47662 5.35945 4.65622 5.21039 4.85719C4.22231 6.18703 3.91993 7.67081 4.29898 9.28714C4.55025 10.3561 5.07836 11.2969 5.70868 12.1777C6.85433 13.7941 8.20868 15.2265 9.68653 16.5393C10.9259 17.6382 12.293 18.549 13.8305 19.1819C14.7845 19.571 15.7683 19.8318 16.931 19.8746H16.9225Z" fill="white"/>
<path d="M20 9.37609C20 9.72106 19.7821 9.97659 19.4957 9.99789C19.1795 10.0234 18.9317 9.81475 18.8718 9.50385C18.4488 7.26793 17.1027 5.86675 14.9447 5.20236C14.7951 5.15551 14.6327 5.14274 14.4789 5.11718C14.1669 5.06182 13.9532 4.76795 14.0088 4.46557C14.0643 4.16745 14.3549 3.96302 14.6583 4.00561C17.2523 4.39743 19.4359 6.48429 19.9487 9.06093C19.9744 9.18018 19.9829 9.30369 19.9957 9.38035L20 9.37609Z" fill="white"/>
<path d="M13.7697 7.00425C14.1867 7.03628 14.634 7.16039 15.0611 7.33254C16.5586 7.92905 17.5334 8.86987 17.9505 10.163C17.9957 10.2991 18.0158 10.4472 17.9857 10.5834C17.9304 10.8396 17.644 11.0077 17.3324 10.9997C17.0108 10.9917 16.7596 10.8036 16.6892 10.5473C16.3375 9.27022 15.3576 8.46152 13.7998 8.08119C13.7094 8.05717 13.6089 8.05316 13.5184 8.03315C13.1817 7.96108 12.9606 7.70886 13.0059 7.45664C13.0561 7.1804 13.3425 6.99224 13.7646 7.00025L13.7697 7.00425Z" fill="white"/>
</svg>
