<svg width="36" height="36" viewBox="0 0 36 36" fill="none" xmlns="http://www.w3.org/2000/svg">
<path d="M18 0C8.0744 0 0 8.0744 0 18C0 27.9256 8.0744 36 18 36C27.9256 36 36 27.9256 36 18C36 8.0744 27.9256 0 18 0ZM26.5605 27.3104C26.268 27.6029 25.8841 27.7501 25.5001 27.7501C25.1161 27.7501 24.7319 27.6029 24.4396 27.3104L16.9395 19.8105C16.6575 19.5301 16.5001 19.1489 16.5001 18.7501V9C16.5001 8.17053 17.1719 7.50009 18 7.50009C18.8281 7.50009 19.4999 8.17053 19.4999 9V18.1291L26.5605 25.1895C27.1469 25.7761 27.1469 26.724 26.5605 27.3104Z" fill="#BF906C"/>
</svg>
