<svg width="24" height="24" viewBox="0 0 24 24" fill="none" xmlns="http://www.w3.org/2000/svg">
<path d="M12.5489 3.00189C12.8877 3.0604 13.2304 3.10382 13.5653 3.17744C15.0967 3.51532 16.3676 4.27225 17.3722 5.42935C18.2201 6.40336 18.7312 7.53026 18.929 8.79307C19.1444 10.1635 18.8487 11.4546 18.3239 12.7136C17.7384 14.1218 16.9296 15.411 16.0268 16.6474C14.9557 18.116 13.765 19.4883 12.4686 20.7756C12.1671 21.0739 11.8322 21.0757 11.5326 20.7756C9.60172 18.8408 7.86864 16.7588 6.51351 14.4049C5.89078 13.3233 5.37575 12.1983 5.13097 10.9733C4.80197 9.33104 5.09767 7.78698 5.96323 6.34673C6.7348 5.06504 7.84318 4.14012 9.24531 3.54552C9.89742 3.26993 10.5848 3.10382 11.2956 3.03398C11.3485 3.02831 11.4014 3.01133 11.4523 3C11.8165 3 12.1808 3 12.545 3L12.5489 3.00189ZM11.9849 19.6449C12.0515 19.5675 12.0809 19.5317 12.1103 19.4958C12.9484 18.5237 13.8179 17.5761 14.6169 16.5757C15.7448 15.1581 16.7279 13.648 17.3683 11.9567C17.7403 10.9789 17.9342 9.97849 17.7638 8.93087C17.5602 7.67561 16.9962 6.59778 16.0484 5.71816C15.0046 4.74981 13.7533 4.22128 12.3002 4.14578C11.3798 4.0967 10.5006 4.2496 9.66243 4.61013C8.28576 5.20284 7.28312 6.16741 6.67213 7.4944C6.23739 8.4382 6.08073 9.42731 6.23348 10.4561C6.39014 11.5093 6.79942 12.4815 7.29878 13.4196C8.02335 14.7825 8.91045 16.0453 9.90721 17.2363C10.5789 18.0367 11.2721 18.82 11.9849 19.6468V19.6449Z" fill="white"/>
<path d="M11.9899 13C10.3313 12.9961 8.99498 11.4209 9.00001 9.47943C9.00505 7.5536 10.3531 5.99609 12.0101 6.00001C13.6687 6.00393 15.005 7.57907 15 9.52057C14.9949 11.4464 13.6469 13.0039 11.9899 13ZM10.0006 9.48922C9.9905 10.7568 10.8954 11.8226 11.9899 11.8323C13.0761 11.8441 13.9894 10.7881 13.9978 9.51078C14.0078 8.24322 13.103 7.17745 12.0084 7.16765C10.9222 7.1559 10.009 8.21187 10.0006 9.48922Z" fill="white"/>
</svg>
