<svg width="19" height="25" viewBox="0 0 19 25" fill="none" xmlns="http://www.w3.org/2000/svg">
<path d="M9.5 0C4.26167 0 0 4.06163 0 9.05402C0 15.2497 8.50157 24.3454 8.86353 24.7296C9.20351 25.0905 9.7971 25.0898 10.1365 24.7296C10.4984 24.3454 19 15.2497 19 9.05402C18.9999 4.06163 14.7383 0 9.5 0ZM9.5 13.6093C6.86447 13.6093 4.72036 11.5658 4.72036 9.05402C4.72036 6.5422 6.86452 4.49874 9.5 4.49874C12.1355 4.49874 14.2796 6.54224 14.2796 9.05406C14.2796 11.5659 12.1355 13.6093 9.5 13.6093Z" fill="#BF906C"/>
</svg>
