<svg width="211" height="99" viewBox="0 0 211 99" fill="none" xmlns="http://www.w3.org/2000/svg">
<g filter="url(#filter0_d_171_96)">
<path fill-rule="evenodd" clip-rule="evenodd" d="M97.3074 15.1175C116.771 14.537 136.409 16.0609 155.285 20.7115C164.625 23.1126 173.867 26.2592 182.095 31.1407C187.363 34.3796 192.47 38.4563 194.884 44.0898C196.892 48.6085 196.094 53.9451 193.268 57.9954C189.259 63.9324 182.787 67.9035 176.267 71.0633C160.665 78.3261 143.329 81.4859 126.139 83.201C106.193 84.6721 85.9806 84.2697 66.3002 80.6613C54.2597 78.4185 42.2752 75.1466 31.529 69.4339C25.9531 66.3995 20.552 62.5801 17.2358 57.2632C14.7241 53.3118 14.2764 48.2523 16.1584 43.9974C18.0264 39.5645 21.7134 36.0815 25.6872 33.2516C32.6484 28.3833 40.7221 25.1444 48.9146 22.5981C64.5442 17.8485 80.9503 15.863 97.3074 15.1175ZM70.8548 21.9054C59.0102 24.2143 47.0746 27.5389 36.9791 34.0168C31.7529 37.4206 26.8066 42.2691 26.093 48.4963C25.6312 53.9913 29.1853 58.9717 33.411 62.4349C40.3653 68.1542 49.0895 71.4591 57.7649 74.1241C58.4785 72.6992 59.1991 71.2744 59.9477 69.8627C66.0484 70.3311 72.1071 71.3469 78.2428 71.4459C85.9666 71.5514 93.7254 71.657 101.407 70.7532C107.326 70.1266 113.497 69.6648 118.863 67.0064C121.493 65.7332 123.431 63.1869 123.578 60.3702C123.879 58.2263 122.823 55.9373 123.697 53.8989C125.831 52.0915 128.308 50.6204 130.763 49.2285C135.878 49.1428 141.013 49.6375 146.127 49.9608C145.672 51.3922 145.49 52.982 144.553 54.2156C141.789 55.1457 138.669 54.9808 136.073 56.3661C139.404 58.9717 142.965 61.9864 143.692 66.2346C144.63 70.12 142.783 73.979 140.152 76.8947C149.723 75.3181 159.098 72.4156 167.745 68.2201C172.727 65.7003 177.519 62.5603 180.898 58.2131C184.095 53.9649 185.194 48.0544 182.577 43.2982C178.988 36.3058 171.656 31.8597 164.436 28.634C155.355 24.6496 145.56 22.3342 135.71 20.8236C136.353 23.4029 136.906 26.0349 136.731 28.6999C136.675 33.179 134.429 37.3217 131.715 40.8839C124.131 50.4291 113 57.5139 100.673 60.2712C88.5412 63.1144 75.913 63.6025 63.4808 62.8241C63.9635 60.5087 65.2578 58.4704 66.1953 56.3133C71.8482 44.2745 77.5152 32.2357 83.1891 20.2035C79.0263 20.3618 74.9545 21.2722 70.8548 21.9054ZM72.9606 56.1814C78.4317 55.0995 83.0981 51.8342 86.9321 48.1269C91.3187 43.7336 95.0337 38.7466 97.9791 33.3967C99.5462 30.4085 101.029 26.8793 99.7981 23.5744C97.9371 20.2167 93.2776 20.6257 89.8775 20.5202C84.0426 32.3215 78.7115 44.3405 72.9606 56.1814Z" fill="white"/>
</g>
<defs>
<filter id="filter0_d_171_96" x="0" y="0" width="211" height="99" filterUnits="userSpaceOnUse" color-interpolation-filters="sRGB">
<feFlood flood-opacity="0" result="BackgroundImageFix"/>
<feColorMatrix in="SourceAlpha" type="matrix" values="0 0 0 0 0 0 0 0 0 0 0 0 0 0 0 0 0 0 127 0" result="hardAlpha"/>
<feOffset/>
<feGaussianBlur stdDeviation="7.5"/>
<feComposite in2="hardAlpha" operator="out"/>
<feColorMatrix type="matrix" values="0 0 0 0 0 0 0 0 0 0 0 0 0 0 0 0 0 0 0.2 0"/>
<feBlend mode="normal" in2="BackgroundImageFix" result="effect1_dropShadow_171_96"/>
<feBlend mode="normal" in="SourceGraphic" in2="effect1_dropShadow_171_96" result="shape"/>
</filter>
</defs>
</svg>
