<svg width="22" height="22" viewBox="0 0 22 22" fill="none" xmlns="http://www.w3.org/2000/svg">
<path d="M13.7958 4.58317C14.6912 4.75786 15.514 5.19574 16.1591 5.84078C16.8041 6.48582 17.242 7.30866 17.4167 8.204M13.7958 0.916504C15.656 1.12315 17.3906 1.95616 18.7149 3.27876C20.0392 4.60136 20.8743 6.33493 21.0833 8.19484M20.1667 15.5098V18.2598C20.1677 18.5151 20.1154 18.7678 20.0131 19.0017C19.9109 19.2357 19.7609 19.4456 19.5727 19.6182C19.3846 19.7908 19.1625 19.9222 18.9207 20.004C18.6789 20.0858 18.4226 20.1161 18.1683 20.0932C15.3476 19.7867 12.6381 18.8228 10.2575 17.279C8.04268 15.8716 6.1649 13.9938 4.7575 11.779C3.20832 9.38761 2.24423 6.66492 1.94334 3.8315C1.92043 3.57802 1.95056 3.32253 2.0318 3.08133C2.11304 2.84012 2.24361 2.61847 2.41521 2.43049C2.5868 2.24251 2.79566 2.09232 3.02848 1.98948C3.2613 1.88664 3.51298 1.83341 3.7675 1.83317H6.5175C6.96237 1.82879 7.39365 1.98633 7.73095 2.27641C8.06826 2.56649 8.28858 2.96933 8.35084 3.40984C8.46691 4.2899 8.68217 5.154 8.99251 5.98567C9.11584 6.31377 9.14253 6.67034 9.06942 7.01314C8.99631 7.35595 8.82646 7.67061 8.58 7.91984L7.41584 9.084C8.72076 11.3789 10.6209 13.2791 12.9158 14.584L14.08 13.4198C14.3292 13.1734 14.6439 13.0035 14.9867 12.9304C15.3295 12.8573 15.6861 12.884 16.0142 13.0073C16.8458 13.3177 17.7099 13.5329 18.59 13.649C19.0353 13.7118 19.442 13.9361 19.7327 14.2792C20.0234 14.6223 20.1778 15.0603 20.1667 15.5098Z" stroke="white" stroke-linecap="round" stroke-linejoin="round"/>
</svg>
