<svg width="149" height="106" viewBox="0 0 149 106" fill="none" xmlns="http://www.w3.org/2000/svg">
<path fill-rule="evenodd" clip-rule="evenodd" d="M65.9369 0.103918C81.5292 -0.409278 97.2616 0.937862 112.383 5.04926C119.865 7.17203 127.269 9.95378 133.86 14.2693C138.081 17.1327 142.172 20.7367 144.106 25.7171C145.714 29.7118 145.075 34.4297 142.811 38.0105C139.6 43.259 134.415 46.7698 129.192 49.5632C116.693 55.984 102.805 58.7774 89.0339 60.2937C73.0549 61.5941 56.8629 61.2384 41.0969 58.0484C31.4512 56.0656 21.8503 53.1731 13.2415 48.1227C8.77455 45.4401 4.44772 42.0635 1.79109 37.3631C-0.220994 33.8699 -0.579695 29.3969 0.92797 25.6354C2.42443 21.7165 5.3781 18.6373 8.56157 16.1355C14.1383 11.8316 20.6061 8.96822 27.1692 6.71715C39.6901 2.51827 52.8331 0.762909 65.9369 0.103918ZM44.7455 6.10481C35.2568 8.14594 25.6952 11.0851 17.6076 16.812C13.4209 19.8211 9.45833 24.1075 8.88665 29.6127C8.51674 34.4706 11.3639 38.8736 14.7492 41.9352C20.3202 46.9914 27.3093 49.9131 34.2591 52.2691C34.8308 51.0095 35.4081 49.7498 36.0078 48.5018C40.8951 48.9159 45.7488 49.814 50.6641 49.9014C56.8517 49.9947 63.0673 50.0881 69.2213 49.2891C73.9629 48.7351 78.9062 48.3269 83.205 45.9767C85.3124 44.8511 86.8649 42.6001 86.9826 40.1099C87.2236 38.2146 86.3773 36.1909 87.0778 34.3889C88.7873 32.791 90.7713 31.4905 92.7386 30.26C96.8356 30.1842 100.949 30.6216 105.047 30.9074C104.682 32.1728 104.536 33.5783 103.785 34.6688C101.572 35.4911 99.0719 35.3453 96.9926 36.57C99.6604 38.8736 102.513 41.5387 103.096 45.2943C103.847 48.7292 102.367 52.1408 100.26 54.7185C107.927 53.3247 115.438 50.7587 122.365 47.0497C126.356 44.822 130.195 42.046 132.902 38.2029C135.463 34.4472 136.343 29.222 134.247 25.0173C131.372 18.8356 125.498 14.905 119.714 12.0532C112.439 8.53083 104.593 6.48388 96.7011 5.1484C97.2168 7.42863 97.6595 9.75551 97.5194 12.1115C97.4746 16.0713 95.6755 19.7337 93.5008 22.8828C87.4253 31.3214 78.5083 37.5847 68.6328 40.0224C58.9142 42.5359 48.7977 42.9675 38.8382 42.2793C39.2249 40.2324 40.2618 38.4303 41.0128 36.5233C45.5414 25.8804 50.0812 15.2374 54.6266 4.60022C51.2918 4.74018 48.0299 5.54496 44.7455 6.10481ZM46.4325 36.4067C50.8154 35.4503 54.5538 32.5636 57.6251 29.2861C61.1393 25.4022 64.1154 20.9933 66.475 16.2638C67.7304 13.622 68.9186 10.502 67.9322 7.58025C66.4413 4.61188 62.7086 4.97345 59.9847 4.88014C55.3104 15.3132 51.0396 25.9387 46.4325 36.4067Z" fill="white"/>
<path fill-rule="evenodd" clip-rule="evenodd" d="M5.06871 72.291C7.34224 71.7032 9.95366 72.227 12.3589 72.0466C12.3704 81.0847 12.3818 90.1229 12.3532 99.161C18.5782 99.225 24.8147 99.0679 31.034 99.2425C31.5437 101.279 31.074 103.613 31.2573 105.766C22.5068 105.86 13.7505 105.865 5 105.819C5.07445 94.6448 4.93126 83.4592 5.06871 72.291ZM46.8914 78.2155C47.8363 76.1321 48.6438 73.9787 49.8006 72C52.2002 72.0815 54.5997 72.0466 57.0049 72.0466C61.9872 83.3079 67.0039 94.5517 71.9232 105.836C69.3805 105.813 66.8321 105.819 64.2894 105.836C63.3502 103.66 62.4053 101.483 61.4775 99.2949C56.06 99.2425 50.6425 99.3123 45.2306 99.2541C44.2113 101.402 43.2606 103.578 42.4302 105.801C39.8475 106.081 37.2418 106.04 34.659 105.836C38.7708 96.6468 42.8025 87.4225 46.8914 78.2214V78.2155ZM47.7848 92.5788C51.49 92.5788 55.201 92.5904 58.912 92.5613C57.0336 88.0568 55.1953 83.529 53.3054 79.0303C51.4156 83.5232 49.5945 88.051 47.7848 92.5788ZM76.831 72.0466C82.2257 72.0931 87.626 71.9825 93.0207 72.0989C97.98 72.2503 103.352 73.4957 106.822 77.36C110.436 81.2244 111.077 86.9569 110.493 92.0317C110.023 96.8796 107.194 101.565 102.802 103.7C98.7131 105.691 94.0572 105.912 89.596 105.825C85.3353 106.092 81.0689 105.732 76.8024 105.813C76.854 94.5575 76.8024 83.302 76.831 72.0466ZM84.0697 78.7277C84.0525 85.5485 84.0525 92.3693 84.0697 99.1901C88.7256 98.9631 93.6678 99.7546 98.0545 97.7526C104.743 94.7321 104.875 83.3021 98.1977 80.1943C93.788 78.0817 88.7714 78.8906 84.0697 78.7277ZM111.822 105.982C116.426 94.5401 121.769 83.3893 126.631 72.0466C129.059 72.0524 131.487 72.0698 133.916 72.0175C139.133 83.1682 143.857 94.5634 149 105.755C146.417 105.755 143.829 106.087 141.252 105.79C140.364 103.596 139.385 101.442 138.457 99.2599C133.022 99.2832 127.582 99.2308 122.147 99.2832C121.185 101.431 120.423 103.677 119.289 105.737C116.867 106.29 114.296 105.574 111.822 105.982ZM124.822 92.573C128.515 92.5904 132.215 92.6021 135.914 92.573C134.099 88.0568 132.203 83.5698 130.342 79.0711C128.418 83.5407 126.574 88.0452 124.822 92.5788V92.573Z" fill="white"/>
</svg>
