<svg width="28" height="27" viewBox="0 0 28 27" fill="none" xmlns="http://www.w3.org/2000/svg">
<path d="M5.5817 0H0L8.23529 13.1447L0 27H5.5817L14 13.1447L5.5817 0Z" fill="white"/>
<path d="M5.5817 0H0L8.23529 13.1447L0 27H5.5817L14 13.1447L5.5817 0Z" fill="white"/>
<path d="M5.5817 0H0L8.23529 13.1447L0 27H5.5817L14 13.1447L5.5817 0Z" fill="white"/>
<path d="M19.5817 0H14L22.2353 13.1447L14 27H19.5817L28 13.1447L19.5817 0Z" fill="white"/>
<path d="M19.5817 0H14L22.2353 13.1447L14 27H19.5817L28 13.1447L19.5817 0Z" fill="white"/>
<path d="M19.5817 0H14L22.2353 13.1447L14 27H19.5817L28 13.1447L19.5817 0Z" fill="white"/>
</svg>
