<svg width="42" height="42" viewBox="0 0 42 42" fill="none" xmlns="http://www.w3.org/2000/svg">
<path d="M33.7222 25.2977C33.4795 25.5354 33.4755 25.925 33.7132 26.1677C35.2953 27.7828 36.1665 29.9175 36.1665 32.1788C36.1665 36.9158 32.3127 40.7696 27.5757 40.7696C22.8387 40.7696 18.9849 36.9159 18.9849 32.1788C18.9849 30.3691 19.5357 28.6522 20.5799 27.1923C21.5614 27.4152 22.5822 27.5335 23.6303 27.5335C31.2213 27.5335 37.397 21.3577 37.397 13.7668C37.397 6.17589 31.2213 0 23.6303 0C16.0392 0 9.86361 6.17572 9.86361 13.7667C9.86361 19.8557 13.8375 25.0331 19.3276 26.844C18.296 28.4312 17.7545 30.2596 17.7545 32.1787C17.7545 32.5936 17.7807 33.0026 17.8309 33.4042C16.5867 35.1373 14.5902 36.1665 12.4516 36.1665C8.80237 36.1665 5.8335 33.1976 5.8335 29.5484C5.8335 26.5999 7.8125 23.9809 10.6462 23.1794C10.9731 23.087 11.1632 22.7469 11.0707 22.42C10.9783 22.0931 10.6381 21.903 10.3113 21.9954C6.95035 22.9461 4.60303 26.052 4.60303 29.5484C4.60303 33.8761 8.12389 37.397 12.4516 37.397C14.6284 37.397 16.6806 36.4976 18.1513 34.9435C19.3483 39.0171 23.1199 42 27.5757 42C32.9912 42 37.397 37.5943 37.397 32.1787C37.397 29.5936 36.4009 27.1531 34.5923 25.3066C34.3545 25.0639 33.965 25.0599 33.7222 25.2977ZM11.0941 13.7667C11.0941 6.8542 16.7178 1.23047 23.6303 1.23047C30.5427 1.23047 36.1665 6.8542 36.1665 13.7667C36.1665 20.6793 30.5428 26.3029 23.6303 26.3029C16.7177 26.3029 11.0941 20.6792 11.0941 13.7667Z" fill="white"/>
<path fill-rule="evenodd" clip-rule="evenodd" d="M19.4595 7.89367C18.591 7.89367 17.8847 8.7771 17.8847 9.86211C17.8847 10.9471 18.591 11.8305 19.4595 11.8305C20.3279 11.8305 21.0342 10.9471 21.0342 9.86211C21.0342 8.7771 20.3279 7.89367 19.4595 7.89367ZM19.4595 12.6179C18.1572 12.6179 17.0974 11.3817 17.0974 9.86211C17.0974 8.34247 18.1572 7.10629 19.4595 7.10629C20.7618 7.10629 21.8216 8.34247 21.8216 9.86211C21.8216 11.3817 20.7618 12.6179 19.4595 12.6179ZM28.1206 15.7674C27.2521 15.7674 26.5458 16.6508 26.5458 17.7359C26.5458 18.8209 27.2521 19.7043 28.1206 19.7043C28.9891 19.7043 29.6953 18.8209 29.6953 17.7359C29.6953 16.6508 28.9891 15.7674 28.1206 15.7674ZM28.1206 20.4917C26.8183 20.4917 25.7585 19.2555 25.7585 17.7359C25.7585 16.2162 26.8183 14.98 28.1206 14.98C29.4229 14.98 30.4827 16.2162 30.4827 17.7359C30.4827 19.2555 29.4229 20.4917 28.1206 20.4917ZM18.2784 21.279C18.1942 21.279 18.1083 21.2523 18.0367 21.1964C17.865 21.0625 17.8343 20.8153 17.9674 20.6436L28.9906 6.47088C29.1237 6.29924 29.3725 6.26774 29.5434 6.40159C29.715 6.53545 29.7457 6.78268 29.6127 6.95433L18.5894 21.1271C18.5115 21.2271 18.3949 21.279 18.2784 21.279Z" fill="white"/>
<path fill-rule="evenodd" clip-rule="evenodd" d="M24.9418 29.2652C24.3808 29.2652 23.9246 29.8359 23.9246 30.5367C23.9246 31.2376 24.3808 31.8083 24.9418 31.8083C25.5028 31.8083 25.959 31.2376 25.959 30.5367C25.959 29.8359 25.5028 29.2652 24.9418 29.2652ZM24.9418 32.3169C24.1005 32.3169 23.416 31.5184 23.416 30.5367C23.416 29.5551 24.1005 28.7566 24.9418 28.7566C25.783 28.7566 26.4676 29.5551 26.4676 30.5367C26.4676 31.5184 25.783 32.3169 24.9418 32.3169ZM30.5364 34.3513C29.9754 34.3513 29.5192 34.9219 29.5192 35.6228C29.5192 36.3237 29.9754 36.8943 30.5364 36.8943C31.0974 36.8943 31.5536 36.3237 31.5536 35.6228C31.5536 34.9219 31.0974 34.3513 30.5364 34.3513ZM30.5364 37.4029C29.6952 37.4029 29.0106 36.6044 29.0106 35.6228C29.0106 34.6412 29.6952 33.8427 30.5364 33.8427C31.3777 33.8427 32.0622 34.6412 32.0622 35.6228C32.0622 36.6044 31.3777 37.4029 30.5364 37.4029ZM24.1789 37.9115C24.1244 37.9115 24.069 37.8942 24.0227 37.8581C23.9118 37.7717 23.892 37.612 23.978 37.5011L31.0984 28.3462C31.1844 28.2353 31.3451 28.215 31.4555 28.3014C31.5663 28.3879 31.5862 28.5476 31.5002 28.6585L24.3798 37.8134C24.3294 37.878 24.2541 37.9115 24.1789 37.9115Z" fill="white"/>
<path fill-rule="evenodd" clip-rule="evenodd" d="M10.4266 27.0938C10.0383 27.0938 9.72241 27.4888 9.72241 27.974C9.72241 28.4592 10.0383 28.8543 10.4266 28.8543C10.815 28.8543 11.1309 28.4592 11.1309 27.974C11.1309 27.4888 10.815 27.0938 10.4266 27.0938ZM10.4266 29.2064C9.84424 29.2064 9.3703 28.6536 9.3703 27.974C9.3703 27.2945 9.84424 26.7416 10.4266 26.7416C11.009 26.7416 11.483 27.2945 11.483 27.974C11.483 28.6536 11.009 29.2064 10.4266 29.2064ZM14.2999 30.6149C13.9115 30.6149 13.5956 31.0099 13.5956 31.4951C13.5956 31.9803 13.9115 32.3754 14.2999 32.3754C14.6882 32.3754 15.0041 31.9803 15.0041 31.4951C15.0041 31.0099 14.6882 30.6149 14.2999 30.6149ZM14.2999 32.7275C13.7175 32.7275 13.2435 32.1747 13.2435 31.4951C13.2435 30.8156 13.7175 30.2628 14.2999 30.2628C14.8822 30.2628 15.3562 30.8156 15.3562 31.4951C15.3562 32.1747 14.8822 32.7275 14.2999 32.7275ZM9.89847 33.0796C9.86079 33.0796 9.82241 33.0677 9.79037 33.0427C9.71361 32.9828 9.69988 32.8722 9.75938 32.7955L14.6889 26.4575C14.7484 26.3807 14.8597 26.3666 14.9361 26.4265C15.0129 26.4864 15.0266 26.5969 14.9671 26.6737L10.0376 33.0117C10.0027 33.0564 9.95058 33.0796 9.89847 33.0796Z" fill="white"/>
</svg>
