<svg width="26" height="22" viewBox="0 0 26 22" fill="none" xmlns="http://www.w3.org/2000/svg">
<path d="M4.00647 13.552C3.64012 13.552 3.34545 13.552 2.99502 13.552C2.99502 13.8943 3.01095 14.2208 2.99502 14.5393C2.96317 15.1364 2.58089 15.5106 2.01543 15.5106C1.44201 15.5106 1.01991 15.1125 1.01195 14.5074C0.996018 13.1777 0.996018 11.856 1.01195 10.5264C1.01991 9.9531 1.44998 9.53907 1.98357 9.52315C2.52514 9.50722 2.96317 9.93718 2.99502 10.5343C2.99502 10.598 2.99502 10.6617 3.00299 10.7254C3.01892 11.6331 3.01892 11.6331 4.00647 11.4898C4.00647 10.9245 4.00647 10.3592 4.00647 9.7859C4.00647 9.08523 4.00647 8.38457 4.00647 7.67594C4.01444 6.94343 4.38875 6.54533 5.12145 6.5294C5.90194 6.51348 6.68243 6.5294 7.46292 6.52144C7.63016 6.52144 7.79741 6.52144 7.98855 6.52144C7.98855 6.18703 7.98855 5.90836 7.98855 5.55007C7.70981 5.55007 7.43902 5.55803 7.16824 5.55007C6.41165 5.52618 6.00548 5.144 5.99751 4.3876C5.98158 3.47992 5.98158 2.58021 5.99751 1.67253C6.00548 0.924095 6.41165 0.525991 7.17621 0.525991C9.74067 0.518029 12.2972 0.518029 14.8616 0.525991C15.6262 0.525991 16.0085 0.932058 16.0085 1.68846C16.0085 2.58021 16.0085 3.47196 16.0085 4.35575C16.0085 5.144 15.6262 5.52618 14.8377 5.5421C14.5908 5.55007 14.344 5.5421 14.0572 5.5421C14.0572 5.86059 14.0572 6.14722 14.0572 6.51348C14.551 6.51348 15.0607 6.51348 15.5704 6.51348C16.7013 6.51348 17.0199 6.83196 17.0199 7.95462C17.0199 8.12182 17.0199 8.29699 17.0199 8.52789C17.6411 8.52789 18.2305 8.52789 18.8198 8.52789C19.5286 8.53585 19.7994 8.7349 20.0224 9.39575C20.1419 9.76201 20.2613 10.1283 20.4764 10.4945C20.5719 10.1999 20.6755 9.89737 20.7631 9.60277C20.994 8.83841 21.2091 8.08201 21.44 7.31765C21.6073 6.76827 21.9338 6.52144 22.5072 6.50552C22.9771 6.48959 23.447 6.48959 23.9089 6.50552C24.6177 6.5294 25 6.92751 25 7.62817C25 11.5455 25 15.4629 25 19.3802C25 20.0888 24.6177 20.4869 23.9169 20.5108C23.4788 20.5268 23.0408 20.5188 22.6028 20.5108C22.0294 20.5108 21.6312 20.264 21.4241 19.6987C21.1852 19.0538 20.9303 18.4168 20.6675 17.7878C20.6197 17.6763 20.5002 17.533 20.4047 17.533C20.3011 17.525 20.1578 17.6445 20.0941 17.748C19.8472 18.1302 19.6242 18.5203 19.3932 18.9104C19.1623 19.3086 18.8278 19.4996 18.3579 19.4996C14.4236 19.4917 10.4893 19.4917 6.555 19.4996C6.0453 19.4996 5.69487 19.2847 5.47984 18.8308C5.03385 17.8833 4.57193 16.9518 4.14186 15.9963C4.04629 15.7893 4.0224 15.5425 4.01444 15.3195C3.99851 14.7542 4.00647 14.165 4.00647 13.552Z" stroke="#666666" stroke-miterlimit="10" stroke-linecap="round" stroke-linejoin="round"/>
</svg>
