<svg width="21" height="22" viewBox="0 0 21 22" fill="none" xmlns="http://www.w3.org/2000/svg">
<path d="M10.3492 5.53514C11.4609 5.53514 12.3622 4.63764 12.3622 3.53051C12.3622 2.42338 11.4609 1.52588 10.3492 1.52588C9.23735 1.52588 8.33606 2.42338 8.33606 3.53051C8.33606 4.63764 9.23735 5.53514 10.3492 5.53514Z" stroke="#666666" stroke-miterlimit="10"/>
<path d="M3.12055 6.54105H2.56176C1.70207 6.54105 1 5.84193 1 4.98586V2.07521C1 1.21914 1.70207 0.52002 2.56176 0.52002H3.12055C3.98023 0.52002 4.68231 1.21914 4.68231 2.07521V4.99299C4.68231 5.84906 3.98023 6.54105 3.12055 6.54105Z" stroke="#666666" stroke-miterlimit="10"/>
<path d="M18.1428 6.54105H17.584C16.7244 6.54105 16.0223 5.84193 16.0223 4.98586V2.07521C16.0223 1.21914 16.7244 0.52002 17.584 0.52002H18.1428C19.0025 0.52002 19.7046 1.21914 19.7046 2.07521V4.99299C19.6974 5.84906 19.0025 6.54105 18.1428 6.54105Z" stroke="#666666" stroke-miterlimit="10"/>
<path d="M10.3492 20.4734C11.4609 20.4734 12.3622 19.5759 12.3622 18.4687C12.3622 17.3616 11.4609 16.4641 10.3492 16.4641C9.23735 16.4641 8.33606 17.3616 8.33606 18.4687C8.33606 19.5759 9.23735 20.4734 10.3492 20.4734Z" stroke="#666666" stroke-miterlimit="10"/>
<path d="M3.12055 21.4798H2.56176C1.70207 21.4798 1 20.7807 1 19.9246V17.0069C1 16.1508 1.70207 15.4517 2.56176 15.4517H3.12055C3.98023 15.4517 4.68231 16.1508 4.68231 17.0069V19.9246C4.68231 20.7878 3.98023 21.4798 3.12055 21.4798Z" stroke="#666666" stroke-miterlimit="10"/>
<path d="M18.1428 21.4796H17.584C16.7244 21.4796 16.0223 20.7805 16.0223 19.9244V17.0066C16.0223 16.1505 16.7244 15.4514 17.584 15.4514H18.1428C19.0025 15.4514 19.7046 16.1505 19.7046 17.0066V19.9244C19.6974 20.7876 19.0025 21.4796 18.1428 21.4796Z" stroke="#666666" stroke-miterlimit="10"/>
<path d="M10.3489 5.53467V16.1357" stroke="#666666" stroke-miterlimit="10"/>
<path d="M4.6825 3.53052H8.34331" stroke="#666666" stroke-miterlimit="10"/>
<path d="M12.3618 3.53052H16.0227" stroke="#666666" stroke-miterlimit="10"/>
<path d="M4.6825 18.4692H8.34331" stroke="#666666" stroke-miterlimit="10"/>
<path d="M12.3618 18.4692H16.0227" stroke="#666666" stroke-miterlimit="10"/>
</svg>
