<svg width="18" height="18" viewBox="0 0 18 18" fill="none" xmlns="http://www.w3.org/2000/svg">
<path d="M8.99956 18C7.81718 18.0022 6.646 17.7709 5.5532 17.3194C4.46039 16.868 3.46745 16.2052 2.63134 15.3691C1.79523 14.5331 1.1324 13.5402 0.680858 12.4473C0.229316 11.3545 -0.00204894 10.1833 3.39388e-05 9.00088C-0.00321041 7.81803 0.227348 6.64621 0.678457 5.55277C1.12956 4.45933 1.79233 3.46584 2.62865 2.6294C3.46496 1.79295 4.45835 1.13006 5.55169 0.678825C6.64503 0.227588 7.81677 -0.00309608 8.99956 3.33662e-05C10.1821 -0.00320993 11.3537 0.227273 12.4469 0.678239C13.5401 1.1292 14.5334 1.79176 15.3698 2.62784C16.2062 3.46392 16.8691 4.45704 17.3204 5.55014C17.7718 6.64323 18.0027 7.81474 18 8.99737C18.0033 10.1804 17.7728 11.3524 17.3217 12.4461C16.8706 13.5397 16.2078 14.5334 15.3714 15.37C14.535 16.2067 13.5415 16.8697 12.448 17.321C11.3545 17.7724 10.1825 18.0031 8.99956 18ZM1.17778 8.99649C1.25243 13.3212 4.55644 16.7888 8.98726 16.8055C13.2565 16.8213 16.7827 13.4916 16.8038 9.01844C16.8249 4.66909 13.4172 1.19101 8.99341 1.1954C4.60826 1.19892 1.26034 4.62956 1.17778 8.99649Z" fill="#B3DAFF"/>
<path d="M12.4385 9.58158C12.6338 9.38632 12.6338 9.06974 12.4385 8.87447L9.25653 5.69249C9.06127 5.49723 8.74469 5.49723 8.54943 5.69249C8.35416 5.88776 8.35416 6.20434 8.54943 6.3996L11.3779 9.22803L8.54943 12.0565C8.35416 12.2517 8.35416 12.5683 8.54943 12.7636C8.74469 12.9588 9.06127 12.9588 9.25653 12.7636L12.4385 9.58158ZM4.93103 8.72803C4.65489 8.72803 4.43103 8.95188 4.43103 9.22803C4.43103 9.50417 4.65489 9.72803 4.93103 9.72803L4.93103 8.72803ZM12.085 8.72803L4.93103 8.72803L4.93103 9.72803L12.085 9.72803L12.085 8.72803Z" fill="#B3DAFF"/>
</svg>
