<svg width="33" height="33" viewBox="0 0 33 33" fill="none" xmlns="http://www.w3.org/2000/svg">
<path fill-rule="evenodd" clip-rule="evenodd" d="M7.20032 13.0119C8.903 12.953 10.621 13.1076 12.2722 13.5794C13.0893 13.823 13.8978 14.1422 14.6176 14.6375C15.0784 14.966 15.5252 15.3796 15.7364 15.9511C15.912 16.4096 15.8422 16.951 15.595 17.3619C15.2443 17.9642 14.6781 18.367 14.1077 18.6876C12.7429 19.4244 11.2263 19.7449 9.72251 19.9189C7.9776 20.0682 6.20943 20.0274 4.48778 19.6613C3.43447 19.4338 2.38606 19.1018 1.44597 18.5223C0.958182 18.2144 0.485692 17.827 0.195588 17.2876C-0.0241326 16.8867 -0.0633027 16.3734 0.101334 15.9418C0.264748 15.4921 0.587289 15.1387 0.934925 14.8516C1.5439 14.3577 2.25019 14.0291 2.96688 13.7708C4.33416 13.289 5.76938 13.0875 7.20032 13.0119ZM4.88622 13.7006C3.85004 13.9348 2.80591 14.2721 1.92275 14.9292C1.46556 15.2746 1.03285 15.7664 0.970423 16.3982C0.930028 16.9556 1.24094 17.4609 1.61061 17.8122C2.21897 18.3925 2.98218 18.7277 3.7411 18.9981C3.80353 18.8535 3.86657 18.709 3.93205 18.5658C4.46575 18.6133 4.99577 18.7164 5.53252 18.7264C6.20821 18.7371 6.88696 18.7478 7.55897 18.6561C8.07675 18.5926 8.61656 18.5457 9.08599 18.276C9.31612 18.1468 9.48565 17.8885 9.4985 17.6028C9.52482 17.3853 9.4324 17.1531 9.50891 16.9463C9.69558 16.7629 9.91224 16.6137 10.1271 16.4725C10.5745 16.4638 11.0237 16.514 11.4711 16.5467C11.4313 16.692 11.4154 16.8532 11.3334 16.9784C11.0916 17.0728 10.8187 17.056 10.5916 17.1966C10.8829 17.4609 11.1945 17.7667 11.2581 18.1977C11.3401 18.5919 11.1785 18.9834 10.9484 19.2792C11.7857 19.1192 12.6058 18.8248 13.3623 18.3991C13.798 18.1435 14.2173 17.825 14.5129 17.3839C14.7926 16.953 14.8887 16.3533 14.6598 15.8708C14.3458 15.1615 13.7044 14.7104 13.0728 14.3832C12.2784 13.9789 11.4215 13.7441 10.5598 13.5908C10.6161 13.8525 10.6644 14.1195 10.6491 14.3898C10.6442 14.8442 10.4478 15.2645 10.2103 15.6259C9.54686 16.5943 8.57311 17.313 7.4947 17.5927C6.43344 17.8812 5.32872 17.9307 4.24113 17.8517C4.28336 17.6168 4.39659 17.41 4.4786 17.1912C4.97312 15.9699 5.46887 14.7486 5.96523 13.5279C5.60107 13.544 5.24487 13.6363 4.88622 13.7006ZM5.07044 17.1778C5.54905 17.0681 5.95728 16.7368 6.29267 16.3607C6.67642 15.915 7.00141 15.4091 7.25907 14.8663C7.39617 14.5632 7.52592 14.2051 7.4182 13.8699C7.2554 13.5292 6.84778 13.5707 6.55034 13.56C6.0399 14.7573 5.57353 15.9766 5.07044 17.1778ZM17.6177 14.6094C17.8607 14.5418 18.1398 14.602 18.3969 14.5812C18.3981 15.6205 18.3993 16.6598 18.3963 17.6991C19.0615 17.7065 19.728 17.6884 20.3927 17.7085C20.4472 17.9427 20.397 18.2111 20.4166 18.4587C19.4814 18.4694 18.5456 18.4701 17.6104 18.4647C17.6184 17.1798 17.6031 15.8936 17.6177 14.6094ZM22.0874 15.2906C22.1884 15.051 22.2747 14.8034 22.3983 14.5759C22.6548 14.5853 22.9112 14.5812 23.1683 14.5812C23.7008 15.8762 24.2369 17.1691 24.7626 18.4667C24.4909 18.4641 24.2185 18.4647 23.9468 18.4667C23.8464 18.2164 23.7454 17.9662 23.6463 17.7145C23.0673 17.7085 22.4883 17.7165 21.9099 17.7098C21.801 17.9568 21.6994 18.2071 21.6107 18.4627C21.3346 18.4948 21.0562 18.4902 20.7801 18.4667C21.2196 17.41 21.6504 16.3493 22.0874 15.2913V15.2906ZM22.1829 16.9423C22.5789 16.9423 22.9755 16.9436 23.3721 16.9402C23.1713 16.4223 22.9749 15.9016 22.7729 15.3843C22.5709 15.9009 22.3763 16.4216 22.1829 16.9423ZM25.2871 14.5812C25.8637 14.5866 26.4408 14.5739 27.0174 14.5873C27.5474 14.6047 28.1215 14.7479 28.4924 15.1922C28.8786 15.6366 28.9471 16.2958 28.8847 16.8793C28.8345 17.4368 28.5321 17.9755 28.0627 18.2211C27.6257 18.45 27.1281 18.4754 26.6514 18.4654C26.196 18.4962 25.7401 18.4547 25.2841 18.4641C25.2896 17.1698 25.2841 15.8755 25.2871 14.5812ZM26.0608 15.3495C26.0589 16.1338 26.0589 16.9182 26.0608 17.7025C26.5583 17.6764 27.0865 17.7674 27.5553 17.5372C28.2702 17.1899 28.2843 15.8755 27.5706 15.5182C27.0994 15.2752 26.5632 15.3682 26.0608 15.3495ZM29.0267 18.4835C29.5187 17.1678 30.0898 15.8856 30.6094 14.5812C30.8689 14.5819 31.1284 14.5839 31.3879 14.5779C31.9455 15.8601 32.4504 17.1705 33 18.4574C32.724 18.4574 32.4473 18.4955 32.1719 18.4614C32.077 18.2091 31.9724 17.9615 31.8732 17.7105C31.2924 17.7132 30.711 17.7072 30.1302 17.7132C30.0273 17.9601 29.9459 18.2185 29.8248 18.4554C29.5659 18.5189 29.2911 18.4366 29.0267 18.4835ZM30.416 16.9416C30.8108 16.9436 31.2061 16.9449 31.6015 16.9416C31.4075 16.4223 31.2049 15.9063 31.006 15.389C30.8003 15.903 30.6033 16.4209 30.416 16.9423V16.9416Z" fill="white"/>
</svg>
