<svg width="89" height="35" viewBox="0 0 89 35" fill="none" xmlns="http://www.w3.org/2000/svg">
<g clip-path="url(#clip0_2_8)">
<path fill-rule="evenodd" clip-rule="evenodd" d="M106.368 17.3461V34.1141H122.49L140.389 21.2121C150.234 14.1141 158.719 8.01306 159.231 7.64906L160.174 6.97606L159.689 7.58206C159.433 7.91906 156.712 11.2991 153.655 15.1111C149.143 20.7411 148.133 22.0611 148.281 22.2091C148.375 22.2891 152.12 25.0091 156.604 28.2421L164.753 34.1141H180.874L170.18 26.4241C164.308 22.1951 159.392 18.6261 159.258 18.4911C159.029 18.2761 159.271 17.8851 164.739 9.56106C167.904 4.78106 170.477 0.794061 170.477 0.727061C170.477 0.619061 167.756 0.579061 161.682 0.579061H152.901L135.055 13.4541L117.21 26.3161L117.143 13.4811L117.075 0.646061L111.729 0.606061L106.368 0.579061V17.3461ZM207.231 16.1611C201.756 21.7437 196.288 27.333 190.827 32.9291L189.696 34.1141H205.736L217.71 21.1581C221.771 16.757 225.83 12.3529 229.885 7.94606C230.073 7.69006 230.733 8.35006 243.016 20.8891L255.932 34.0871L263.044 34.1011L270.168 34.1141L269.71 33.5891C269.468 33.3061 262.518 25.7641 254.262 16.8211L239.245 0.580061H222.491L207.231 16.1621V16.1611ZM278.99 0.673061C278.936 0.713061 278.896 8.26906 278.896 17.4411V34.1141H289.671V0.580061H284.378C281.455 0.580061 279.031 0.620061 278.99 0.674061V0.673061ZM300.93 0.700061C300.997 0.780061 305.9 4.32306 311.826 8.59206C317.752 12.8621 322.614 16.4171 322.641 16.4851C322.667 16.5521 320.109 20.5251 316.943 25.3201L311.206 34.0471L320.109 34.0871L329.011 34.1141L346.479 21.5221L363.947 8.91506L363.988 21.5221L364.015 34.1141H374.789V1.19806L375.086 0.888061L375.368 0.578061H359.422L340.674 14.0881C334.368 18.6388 328.056 23.1818 321.738 27.7171C321.563 27.8251 323.045 25.9531 330.964 16.1211L333.684 12.7411L325.253 6.65306L316.822 0.579061H308.809C303.812 0.579061 300.849 0.633061 300.93 0.700061ZM0.21 0.278061L0 0.444061L0.245 0.540061C0.375 0.593061 0.638 0.750061 0.813 0.890061C0.988 1.03006 2.063 1.61606 3.191 2.19306C4.32 2.77006 5.578 3.41706 5.99 3.62606C7.039 4.18606 10.178 5.83006 11.629 6.58206C12.302 6.93206 13.054 7.32506 13.29 7.45606C13.535 7.58606 14.322 7.99806 15.039 8.37406C15.764 8.75006 16.665 9.22206 17.049 9.42306C17.434 9.62406 18.221 10.0431 18.799 10.3411C19.751 10.8391 21.929 11.9931 22.252 12.1681C22.47 12.2911 22.47 12.5271 22.242 12.5271C22.138 12.5271 21.849 12.6231 21.605 12.7371C21.36 12.8501 20.075 13.2091 18.755 13.5321C16.394 14.1181 15.869 14.2841 15.869 14.4501C15.869 14.5031 15.983 14.5381 16.123 14.5381C16.28 14.5381 16.429 14.6081 16.499 14.7041C16.56 14.7911 17.364 15.4121 18.282 16.0761C19.209 16.7501 20.66 17.7991 21.517 18.4281C22.383 19.0481 23.397 19.7831 23.782 20.0631C24.166 20.3341 24.577 20.6311 24.7 20.7191C24.813 20.8061 25.801 21.5141 26.885 22.3011C27.969 23.0881 28.949 23.8051 29.071 23.8921C29.193 23.9881 29.508 24.2161 29.771 24.4081C30.881 25.2121 31.221 25.4581 33.093 26.8301C34.177 27.6171 35.103 28.3251 35.156 28.3951C35.209 28.4651 35.287 28.5261 35.34 28.5261C35.383 28.5261 35.497 28.5871 35.593 28.6661C35.742 28.7881 35.742 28.7971 35.602 28.7531C35.506 28.7271 35.462 28.7361 35.497 28.7881C35.523 28.8411 35.619 28.8761 35.698 28.8761C35.777 28.8761 35.917 28.9371 36.004 28.9981C36.144 29.1121 36.144 29.1211 36.013 29.1731C35.873 29.2261 35.882 29.2431 36.03 29.3571C36.231 29.5051 36.327 29.5231 36.327 29.3921C36.327 29.3481 36.293 29.3221 36.249 29.3571C36.205 29.3831 36.144 29.3651 36.109 29.3131C36.048 29.2171 36.24 29.1991 36.371 29.2951C36.424 29.3301 36.459 29.4351 36.459 29.5311C36.459 29.6361 36.529 29.7151 36.634 29.7331C36.7298 29.7522 36.8197 29.794 36.896 29.8551C36.957 29.9251 36.939 29.9251 36.852 29.8811C36.738 29.8111 36.738 29.8201 36.843 29.9601C36.913 30.0391 37.027 30.0821 37.106 30.0561C37.176 30.0301 37.211 30.0301 37.184 30.0651C37.088 30.1521 37.482 30.4321 37.63 30.3801C37.7 30.3531 37.735 30.3701 37.7 30.4231C37.622 30.5461 37.866 30.7471 37.997 30.6591C38.059 30.6241 38.077 30.6331 38.041 30.6941C38.015 30.7471 38.111 30.8781 38.268 30.9831C38.566 31.1931 39.746 32.0581 41.503 33.3611C42.063 33.7811 42.543 34.1211 42.57 34.1211C42.622 34.1211 44.117 33.0461 45.857 31.7611C46.312 31.4201 47.257 30.7381 47.956 30.2311C48.655 29.7331 50.089 28.6831 51.146 27.9141C51.8955 27.3626 52.6475 26.8146 53.402 26.2701C53.577 26.1401 53.971 25.8501 54.277 25.6321C55.02 25.0821 57.599 23.2021 57.992 22.9221C58.167 22.7991 59.636 21.7321 61.245 20.5621C62.3182 19.7712 63.3962 18.9868 64.479 18.2091C64.646 18.0871 65.118 17.7371 65.537 17.4231C65.966 17.1081 66.691 16.5751 67.155 16.2431C67.618 15.9011 68.169 15.5081 68.379 15.3511C68.5833 15.1987 68.7963 15.0585 69.017 14.9311C69.306 14.7821 69.384 14.4681 69.174 14.2931C69.114 14.2401 68.187 13.9781 67.102 13.7071C63.369 12.7711 63.299 12.7541 63.194 12.4571C63.1615 12.3766 63.1109 12.3047 63.046 12.2471C62.993 12.2121 62.976 12.1681 62.993 12.1511C63.02 12.1241 63.841 11.6871 64.829 11.1711C65.817 10.6561 67.452 9.79906 68.458 9.27406C69.472 8.74106 70.748 8.07706 71.298 7.78806C71.85 7.50006 72.663 7.07106 73.091 6.84406C73.528 6.61606 74.333 6.18806 74.883 5.90006C76.6783 4.96709 78.4707 4.02842 80.26 3.08406C81.58 2.38506 84.536 0.916061 84.745 0.855061C84.8684 0.812128 84.9714 0.724791 85.034 0.610061C85.121 0.462061 85.104 0.400061 84.938 0.270061C84.754 0.120061 84.378 0.112061 77.848 0.112061H70.949L69.918 0.382061C69.358 0.532061 68.073 0.864061 67.058 1.13506C66.053 1.40506 64.908 1.69506 64.523 1.78206C64.138 1.86906 63.159 2.11406 62.337 2.33206C60.982 2.69106 60.248 2.88306 57.967 3.47806C57.537 3.59106 55.885 4.02806 54.294 4.44006C52.712 4.86006 51.059 5.28806 50.622 5.40106C44.799 6.93106 42.745 7.45606 42.562 7.45606C42.378 7.45606 41.573 7.26306 38.863 6.54606C37.132 6.09206 32.655 4.92006 31.475 4.61406C29.6959 4.1537 27.9182 3.6877 26.142 3.21606C24.752 2.84806 22.785 2.33206 21.771 2.07906C19.611 1.53706 18.195 1.16106 15.904 0.558061L14.234 0.112061H7.318C0.638 0.112061 0.402 0.120061 0.21 0.278061ZM14.338 2.13006C14.531 2.18306 15.178 2.37506 15.781 2.55906C19.435 3.69506 20.056 3.88806 20.371 3.99306C20.563 4.06306 21.709 4.42106 22.906 4.78806C24.113 5.15506 25.766 5.67106 26.578 5.92506C28.301 6.46706 31.885 7.58506 32.523 7.77806C33.013 7.91806 36.44 8.99406 38.547 9.64906C40.837 10.3751 42.473 10.8651 42.587 10.8651C42.639 10.8651 43.452 10.6291 44.379 10.3311C45.314 10.0341 46.372 9.71106 46.731 9.59706C47.089 9.49206 48.234 9.14206 49.266 8.81906C52.422 7.83106 56.182 6.65906 56.899 6.44106C57.266 6.32706 57.878 6.13506 58.254 6.02106C58.621 5.90706 60.09 5.45306 61.506 5.00706C62.922 4.56106 64.225 4.15906 64.391 4.11506C64.557 4.06306 66.079 3.59006 67.757 3.05706L70.817 2.08706L73.265 2.06006C74.935 2.04306 75.669 2.06006 75.565 2.12206C75.485 2.17406 75.442 2.27906 75.468 2.36606C75.486 2.45406 75.433 2.58506 75.346 2.67206C75.197 2.80406 70.773 4.58706 56.216 10.3841C50.306 12.7351 50.577 12.6221 50.577 12.7701C50.577 12.8321 50.612 12.8671 50.665 12.8321C50.709 12.8051 50.805 12.8841 50.883 12.9981C51.032 13.2251 51.592 13.4261 53.987 14.1431C55.675 14.6411 55.849 14.7031 56.129 14.8861L56.391 15.0611H56.085C55.885 15.0611 55.745 15.1141 55.683 15.2191C55.622 15.3061 55.211 15.5691 54.765 15.7951C54.311 16.0311 53.471 16.4691 52.895 16.7651C52.317 17.0631 51.215 17.6401 50.446 18.0341C49.676 18.4361 48.619 18.9871 48.086 19.2581C47.561 19.5381 46.459 20.1061 45.638 20.5251C44.825 20.9541 43.828 21.4701 43.426 21.6791C43.024 21.8801 42.639 22.0551 42.569 22.0551C42.499 22.0551 40.759 21.1811 38.705 20.1231C36.65 19.0571 34.359 17.8761 33.616 17.4921C32.873 17.1071 31.693 16.4951 30.993 16.1281C29.638 15.4281 29.315 15.2011 29.393 15.0081C29.42 14.9301 29.376 14.8861 29.236 14.8861C29.114 14.8861 29.07 14.8511 29.122 14.8071C29.227 14.7031 34.062 13.2251 34.298 13.2251C34.499 13.2251 34.692 12.9551 34.622 12.7701C34.56 12.6301 34.612 12.6481 26.884 9.57006C23.396 8.18006 19.54 6.63306 18.316 6.14306C17.092 5.65306 14.749 4.71806 13.114 4.07106C11.479 3.41606 10.028 2.80406 9.897 2.70706C9.731 2.59406 9.661 2.48006 9.687 2.37506C9.69873 2.32813 9.69582 2.27874 9.67866 2.23351C9.6615 2.18829 9.63091 2.1494 9.591 2.12206C9.381 2.00806 13.884 2.00806 14.338 2.13006Z" fill="black"/>
</g>
<defs>
<clipPath id="clip0_2_8">
<rect width="89" height="35" fill="white"/>
</clipPath>
</defs>
</svg>
