<svg width="42" height="42" viewBox="0 0 42 42" fill="none" xmlns="http://www.w3.org/2000/svg">
<path d="M34.7812 7.875C29.3429 7.875 23.9032 5.30118 21.5532 1.61568C21.4939 1.52273 21.4121 1.44622 21.3154 1.39322C21.2188 1.34022 21.1103 1.31244 21 1.31244C20.8897 1.31244 20.7813 1.34022 20.6846 1.39322C20.5879 1.44622 20.5061 1.52273 20.4468 1.61568C18.0967 5.30118 12.6571 7.875 7.21875 7.875C7.0447 7.875 6.87778 7.94414 6.75471 8.06721C6.63164 8.19028 6.5625 8.3572 6.5625 8.53125V21.6562C6.5625 30.3995 15.0826 36.603 20.8405 38.0428C20.9452 38.069 21.0548 38.069 21.1595 38.0428C26.9174 36.603 35.4375 30.3995 35.4375 21.6562V8.53125C35.4375 8.3572 35.3684 8.19028 35.2453 8.06721C35.1222 7.94414 34.9553 7.875 34.7812 7.875ZM34.125 21.6562C34.125 29.8948 25.6679 35.4834 21 36.7283C16.3321 35.4834 7.875 29.8948 7.875 21.6562V9.17568C13.1289 8.98865 18.3094 6.58021 21 3.10603C23.6906 6.58021 28.8704 8.98865 34.125 9.17568V21.6562ZM11.1562 19.6875C11.1562 21.6344 11.7336 23.5376 12.8152 25.1564C13.8969 26.7752 15.4342 28.0369 17.233 28.7819C19.0317 29.527 21.0109 29.7219 22.9204 29.3421C24.8299 28.9623 26.5839 28.0247 27.9606 26.6481C29.3373 25.2714 30.2748 23.5174 30.6546 21.6079C31.0344 19.6984 30.8395 17.7192 30.0944 15.9205C29.3494 14.1217 28.0877 12.5844 26.4689 11.5027C24.8501 10.4211 22.9469 9.84375 21 9.84375C18.3902 9.8467 15.8881 10.8848 14.0427 12.7302C12.1973 14.5756 11.1592 17.0777 11.1562 19.6875ZM29.5312 19.6875C29.5312 21.3748 29.0309 23.0242 28.0935 24.4272C27.156 25.8302 25.8237 26.9236 24.2648 27.5693C22.7059 28.2151 20.9905 28.384 19.3356 28.0548C17.6807 27.7256 16.1606 26.9131 14.9675 25.72C13.7744 24.5269 12.9619 23.0068 12.6327 21.3519C12.3035 19.697 12.4724 17.9816 13.1182 16.4227C13.7639 14.8638 14.8573 13.5314 16.2603 12.594C17.6632 11.6566 19.3127 11.1562 21 11.1562C23.2618 11.1589 25.4303 12.0585 27.0296 13.6579C28.629 15.2572 29.5286 17.4257 29.5312 19.6875ZM17.2423 22.5172L24.4735 15.286C24.5973 15.1665 24.7631 15.1003 24.9351 15.1018C25.1072 15.1033 25.2718 15.1723 25.3935 15.294C25.5152 15.4157 25.5842 15.5803 25.5857 15.7524C25.5872 15.9244 25.521 16.0902 25.4015 16.214L17.5265 24.089C17.4034 24.212 17.2365 24.2812 17.0625 24.2812C17.0273 24.2813 16.9922 24.2785 16.9575 24.2727C16.8548 24.2561 16.7574 24.2153 16.6736 24.1537C16.5897 24.0921 16.5217 24.0114 16.4752 23.9183L15.1627 21.2933C15.0849 21.1376 15.0721 20.9573 15.1273 20.7921C15.1824 20.6269 15.3009 20.4904 15.4567 20.4126C15.6124 20.3349 15.7927 20.3221 15.9579 20.3773C16.1231 20.4324 16.2595 20.5509 16.3373 20.7066L17.2423 22.5172Z" fill="white"/>
</svg>
