<svg width="23" height="26" viewBox="0 0 23 26" fill="none" xmlns="http://www.w3.org/2000/svg">
<path d="M21.9203 13.4954C21.9203 13.7207 21.9203 13.946 21.9203 14.1714C21.9001 14.2533 21.89 14.3352 21.8698 14.4274C21.8194 14.7142 21.7891 15.0112 21.5671 15.2365C21.1432 15.6769 20.6285 15.8203 20.0331 15.6974C19.9423 15.6769 19.8313 15.6872 19.7505 15.7384C19.256 16.0149 18.9331 15.9637 18.5698 15.5233C18.2065 15.0727 18.045 14.5298 17.9946 13.9563C17.9643 13.608 17.9845 13.2496 17.9845 12.8911C17.7423 13.2291 17.7019 13.6183 17.6918 14.0177C15.7239 13.4032 13.8267 12.2356 13.201 9.37805C13.1707 10.2794 13.4533 11.0475 13.7863 11.7542C13.534 12.1639 13.2817 12.5531 13.0698 12.9525C12.6661 13.7105 12.5955 14.5093 12.8074 15.339C13.0294 16.2198 13.5239 16.9572 13.9982 17.7151C14.4826 18.4833 14.967 19.2412 15.3909 20.0401C15.8248 20.8595 15.9661 21.7608 15.8046 22.6826C15.6634 23.4814 15.3102 24.1881 14.8459 24.8436C14.7652 24.9563 14.6845 24.9973 14.5533 24.9768C13.978 24.8948 13.3927 24.8436 12.8276 24.7412C10.7789 24.3725 8.88168 23.6453 7.18626 22.3958C5.4202 21.1053 4.11836 19.4563 3.43212 17.3362C3.26056 16.8138 3.15964 16.2607 3.02845 15.7282C2.19083 16.0047 1.57523 16.568 1.1211 17.4181C1.07064 17.0494 1.04037 16.7421 1 16.4349C1 15.9228 1 15.4107 1 14.8985C1.01009 14.8269 1.03028 14.7552 1.04037 14.6937C1.1211 14.1406 1.16147 13.5773 1.29266 13.0447C2.04955 9.96185 3.81561 7.77004 6.70186 6.55123C6.90369 6.46929 7.10553 6.39759 7.35782 6.30541C6.60094 6.1313 5.89452 6.24396 5.14772 6.41808C5.83396 5.33241 6.7725 4.60522 7.86241 4.08288C10.0523 3.04842 12.3028 2.77189 14.6441 3.54004C14.6542 3.48883 14.6744 3.44786 14.6845 3.39665C14.9569 2.41341 15.512 1.66574 16.4606 1.26629C16.723 1.15363 17.0056 1.09218 17.2881 1C17.3386 1 17.379 1 17.4294 1C17.2276 1.28678 17.0056 1.55307 16.834 1.86034C16.5313 2.41341 16.501 3.12012 16.723 3.69368C16.8138 2.84358 17.2377 2.29051 18.0551 2.02421C17.8331 2.65922 17.934 3.25326 18.0854 3.85755C18.2166 4.3799 18.3377 4.90225 17.9643 5.40411C18.0349 5.41435 18.0753 5.41435 18.1157 5.41435C19.0845 5.52701 19.8212 5.95718 20.2047 6.91994C20.3359 7.2989 20.4872 7.67786 20.6891 8.01585C20.9414 8.41529 21.2643 8.76352 21.557 9.13224C20.9817 9.16296 20.4065 9.0503 19.8615 8.59965C19.8918 8.70207 19.8918 8.7328 19.912 8.77376C20.2047 9.6341 20.5074 10.4944 20.8001 11.3548C20.8304 11.4367 20.8606 11.5187 20.9111 11.5903C21.345 12.1639 21.7992 12.7375 21.9203 13.4954Z" stroke="#272C38" stroke-width="1.5" stroke-miterlimit="10" stroke-linecap="round" stroke-linejoin="round"/>
</svg>
