<svg width="22" height="22" viewBox="0 0 22 22" fill="none" xmlns="http://www.w3.org/2000/svg">
<path d="M17.4165 0.916748L21.0832 4.58341L17.4165 8.25008" stroke="white" stroke-linecap="round" stroke-linejoin="round"/>
<path d="M13.75 4.58325H21.0833" stroke="white" stroke-linecap="round" stroke-linejoin="round"/>
<path d="M20.1668 15.51V18.26C20.1678 18.5153 20.1156 18.768 20.0133 19.0019C19.911 19.2358 19.761 19.4458 19.5729 19.6184C19.3848 19.791 19.1627 19.9224 18.9208 20.0042C18.679 20.0859 18.4227 20.1163 18.1685 20.0933C15.3477 19.7868 12.6382 18.823 10.2576 17.2792C8.04282 15.8718 6.16503 13.994 4.75764 11.7792C3.20846 9.38778 2.24436 6.66509 1.94348 3.83167C1.92057 3.57819 1.95069 3.3227 2.03193 3.0815C2.11317 2.84029 2.24375 2.61864 2.41534 2.43066C2.58694 2.24268 2.7958 2.09249 3.02862 1.98965C3.26144 1.88681 3.51312 1.83358 3.76764 1.83334H6.51764C6.96251 1.82896 7.39378 1.9865 7.73109 2.27658C8.0684 2.56666 8.28871 2.9695 8.35098 3.41001C8.46705 4.29007 8.6823 5.15417 8.99264 5.98584C9.11597 6.31394 9.14267 6.67051 9.06956 7.01331C8.99645 7.35612 8.8266 7.67078 8.58014 7.92001L7.41598 9.08417C8.7209 11.3791 10.6211 13.2792 12.916 14.5842L14.0801 13.42C14.3294 13.1736 14.644 13.0037 14.9868 12.9306C15.3296 12.8575 15.6862 12.8842 16.0143 13.0075C16.846 13.3178 17.7101 13.5331 18.5901 13.6492C19.0354 13.712 19.4421 13.9363 19.7328 14.2794C20.0235 14.6225 20.178 15.0605 20.1668 15.51Z" stroke="white" stroke-linecap="round" stroke-linejoin="round"/>
</svg>
