<svg width="13" height="13" viewBox="0 0 13 13" fill="none" xmlns="http://www.w3.org/2000/svg">
<path d="M11.375 5.41669C11.375 9.20835 6.5 12.4584 6.5 12.4584C6.5 12.4584 1.625 9.20835 1.625 5.41669C1.625 4.12376 2.13861 2.88378 3.05285 1.96954C3.96709 1.0553 5.20707 0.541687 6.5 0.541687C7.79293 0.541687 9.03291 1.0553 9.94715 1.96954C10.8614 2.88378 11.375 4.12376 11.375 5.41669Z" stroke="white" stroke-linecap="round" stroke-linejoin="round"/>
<path d="M6.5 7.04169C7.39746 7.04169 8.125 6.31415 8.125 5.41669C8.125 4.51922 7.39746 3.79169 6.5 3.79169C5.60254 3.79169 4.875 4.51922 4.875 5.41669C4.875 6.31415 5.60254 7.04169 6.5 7.04169Z" stroke="white" stroke-linecap="round" stroke-linejoin="round"/>
</svg>
