<svg width="13" height="13" viewBox="0 0 13 13" fill="none" xmlns="http://www.w3.org/2000/svg">
<g clip-path="url(#clip0_53_142)">
<path d="M8.15219 2.70833C8.68125 2.81156 9.16748 3.07031 9.54864 3.45147C9.9298 3.83263 10.1885 4.31885 10.2918 4.84792M8.15219 0.541668C9.25138 0.663779 10.2764 1.15601 11.0589 1.93755C11.8414 2.71908 12.3349 3.74346 12.4584 4.8425M11.9168 9.165V10.79C11.9174 10.9409 11.8865 11.0902 11.826 11.2284C11.7656 11.3666 11.677 11.4907 11.5658 11.5927C11.4547 11.6947 11.3234 11.7723 11.1805 11.8206C11.0376 11.869 10.8862 11.8869 10.7359 11.8733C9.06914 11.6922 7.46806 11.1227 6.06136 10.2104C4.7526 9.37878 3.643 8.26918 2.81136 6.96042C1.89593 5.54732 1.32624 3.93846 1.14844 2.26417C1.1349 2.11438 1.15271 1.96341 1.20071 1.82088C1.24872 1.67835 1.32587 1.54737 1.42727 1.4363C1.52867 1.32522 1.65208 1.23647 1.78966 1.1757C1.92724 1.11493 2.07596 1.08348 2.22636 1.08333H3.85136C4.11423 1.08075 4.36908 1.17384 4.56839 1.34525C4.76771 1.51666 4.8979 1.7547 4.93469 2.015C5.00328 2.53504 5.13047 3.04564 5.31386 3.53708C5.38673 3.73096 5.40251 3.94166 5.35931 4.14423C5.3161 4.34679 5.21574 4.53273 5.07011 4.68L4.38219 5.36792C5.15328 6.724 6.2761 7.84682 7.63219 8.61792L8.32011 7.93C8.46738 7.78437 8.65331 7.684 8.85588 7.6408C9.05844 7.5976 9.26915 7.61337 9.46302 7.68625C9.95446 7.86963 10.4651 7.99683 10.9851 8.06542C11.2482 8.10254 11.4885 8.23507 11.6603 8.43781C11.8321 8.64055 11.9234 8.89935 11.9168 9.165Z" stroke="white" stroke-linecap="round" stroke-linejoin="round"/>
</g>
<defs>
<clipPath id="clip0_53_142">
<rect width="13" height="13" fill="white"/>
</clipPath>
</defs>
</svg>
