<svg width="19" height="18" viewBox="0 0 19 18" fill="none" xmlns="http://www.w3.org/2000/svg">
<path fill-rule="evenodd" clip-rule="evenodd" d="M1.09954 2.39621C1.09954 1.71483 1.6603 1.13565 2.386 1.13565C3.11169 1.13565 3.67245 1.71483 3.67245 2.39621C3.67245 3.0776 3.11169 3.65678 2.386 3.65678C1.6603 3.65678 1.09954 3.0776 1.09954 2.39621ZM2.386 0C1.08854 0 0 1.05615 0 2.39621C0 3.53186 0.780671 4.46309 1.81424 4.72429V13.2757C0.780671 13.5369 0 14.4681 0 15.6038C0 16.9438 1.08854 18 2.386 18C3.68345 18 4.77199 16.9438 4.77199 15.6038C4.77199 14.4454 3.96933 13.5028 2.91377 13.2644V9.60757H8.92824V13.2757C7.89468 13.5369 7.114 14.4681 7.114 15.6038C7.114 16.9438 8.20255 18 9.5 18C10.7975 18 11.886 16.9438 11.886 15.6038C11.886 14.4454 11.0833 13.5028 10.0278 13.2644V9.60757H15.3166C16.4161 9.60757 17.3397 8.71041 17.3397 7.56341V4.69022C18.2963 4.3836 19 3.48644 19 2.40757C19 1.06751 17.9115 0.0113565 16.614 0.0113565C15.3166 0.0113565 14.228 1.06751 14.228 2.40757C14.228 3.62271 15.1186 4.59937 16.2402 4.76972V7.56341C16.2402 8.04038 15.8443 8.47192 15.3166 8.47192H10.0278V4.747C11.0833 4.50852 11.886 3.56593 11.886 2.40757C11.886 1.06751 10.7975 0.0113565 9.5 0.0113565C8.20255 0.0113565 7.114 1.06751 7.114 2.40757C7.114 3.54322 7.89468 4.47445 8.92824 4.73565V8.47192H2.91377V4.747C3.96933 4.50852 4.77199 3.56593 4.77199 2.40757C4.77199 1.06751 3.68345 0.0113565 2.386 0.0113565V0ZM8.21354 2.39621C8.21354 1.71483 8.77431 1.13565 9.5 1.13565C10.2257 1.13565 10.7865 1.71483 10.7865 2.39621C10.7865 3.0776 10.2257 3.65678 9.5 3.65678C8.77431 3.65678 8.21354 3.0776 8.21354 2.39621ZM2.386 14.3319C1.6603 14.3319 1.09954 14.911 1.09954 15.5924C1.09954 16.2738 1.6603 16.853 2.386 16.853C3.11169 16.853 3.67245 16.2738 3.67245 15.5924C3.67245 14.911 3.11169 14.3319 2.386 14.3319ZM8.21354 15.5924C8.21354 14.911 8.77431 14.3319 9.5 14.3319C10.2257 14.3319 10.7865 14.911 10.7865 15.5924C10.7865 16.2738 10.2257 16.853 9.5 16.853C8.77431 16.853 8.21354 16.2738 8.21354 15.5924ZM16.625 1.13565C15.8993 1.13565 15.3385 1.71483 15.3385 2.39621C15.3385 3.0776 15.8993 3.65678 16.625 3.65678C17.3507 3.65678 17.9115 3.0776 17.9115 2.39621C17.9115 1.71483 17.3507 1.13565 16.625 1.13565Z" fill="#3C4248"/>
</svg>
