<svg width="23" height="22" viewBox="0 0 23 22" fill="none" xmlns="http://www.w3.org/2000/svg">
<path fill-rule="evenodd" clip-rule="evenodd" d="M1.32551 3.77875C1.32551 2.98345 2.00152 2.30744 2.87635 2.30744C3.75118 2.30744 4.42719 2.98345 4.42719 3.77875C4.42719 4.57406 3.75118 5.25007 2.87635 5.25007C2.00152 5.25007 1.32551 4.57406 1.32551 3.77875ZM2.87635 0.981934C1.31225 0.981934 0 2.21465 0 3.77875C0 5.10426 0.94111 6.19117 2.18709 6.49604V16.4771C0.94111 16.782 0 17.8689 0 19.1944C0 20.7585 1.31225 21.9912 2.87635 21.9912C4.44045 21.9912 5.7527 20.7585 5.7527 19.1944C5.7527 17.8424 4.78508 16.7422 3.51259 16.4639V12.1957H10.7631V16.4771C9.51714 16.782 8.57603 17.8689 8.57603 19.1944C8.57603 20.7585 9.88828 21.9912 11.4524 21.9912C13.0165 21.9912 14.3287 20.7585 14.3287 19.1944C14.3287 17.8424 13.3611 16.7422 12.0886 16.4639V12.1957H18.4643C19.7898 12.1957 20.9032 11.1486 20.9032 9.80981V6.45628C22.0564 6.09839 22.9048 5.05124 22.9048 3.79201C22.9048 2.22791 21.5925 0.995189 20.0284 0.995189C18.4643 0.995189 17.1521 2.22791 17.1521 3.79201C17.1521 5.2103 18.2257 6.35024 19.5777 6.54906V9.80981C19.5777 10.3665 19.1006 10.8702 18.4643 10.8702H12.0886V6.52255C13.3611 6.24419 14.3287 5.14402 14.3287 3.79201C14.3287 2.22791 13.0165 0.995189 11.4524 0.995189C9.88828 0.995189 8.57603 2.22791 8.57603 3.79201C8.57603 5.11751 9.51714 6.20443 10.7631 6.5093V10.8702H3.51259V6.52255C4.78508 6.24419 5.7527 5.14402 5.7527 3.79201C5.7527 2.22791 4.44045 0.995189 2.87635 0.995189V0.981934ZM9.90154 3.77875C9.90154 2.98345 10.5775 2.30744 11.4524 2.30744C12.3272 2.30744 13.0032 2.98345 13.0032 3.77875C13.0032 4.57406 12.3272 5.25007 11.4524 5.25007C10.5775 5.25007 9.90154 4.57406 9.90154 3.77875ZM2.87635 17.7098C2.00152 17.7098 1.32551 18.3858 1.32551 19.1811C1.32551 19.9764 2.00152 20.6525 2.87635 20.6525C3.75118 20.6525 4.42719 19.9764 4.42719 19.1811C4.42719 18.3858 3.75118 17.7098 2.87635 17.7098ZM9.90154 19.1811C9.90154 18.3858 10.5775 17.7098 11.4524 17.7098C12.3272 17.7098 13.0032 18.3858 13.0032 19.1811C13.0032 19.9764 12.3272 20.6525 11.4524 20.6525C10.5775 20.6525 9.90154 19.9764 9.90154 19.1811ZM20.0417 2.30744C19.1668 2.30744 18.4908 2.98345 18.4908 3.77875C18.4908 4.57406 19.1668 5.25007 20.0417 5.25007C20.9165 5.25007 21.5925 4.57406 21.5925 3.77875C21.5925 2.98345 20.9165 2.30744 20.0417 2.30744Z" fill="#272C38"/>
</svg>
