<svg width="13" height="13" viewBox="0 0 13 13" fill="none" xmlns="http://www.w3.org/2000/svg">
<path d="M11.375 5.41663C11.375 9.20829 6.5 12.4583 6.5 12.4583C6.5 12.4583 1.625 9.20829 1.625 5.41663C1.625 4.1237 2.13861 2.88372 3.05285 1.96948C3.96709 1.05524 5.20707 0.541626 6.5 0.541626C7.79293 0.541626 9.03291 1.05524 9.94715 1.96948C10.8614 2.88372 11.375 4.1237 11.375 5.41663Z" stroke="#0056B7" stroke-linecap="round" stroke-linejoin="round"/>
<path d="M6.5 7.04163C7.39746 7.04163 8.125 6.31409 8.125 5.41663C8.125 4.51916 7.39746 3.79163 6.5 3.79163C5.60254 3.79163 4.875 4.51916 4.875 5.41663C4.875 6.31409 5.60254 7.04163 6.5 7.04163Z" stroke="#0056B7" stroke-linecap="round" stroke-linejoin="round"/>
</svg>
