<svg width="18" height="26" viewBox="0 0 18 26" fill="none" xmlns="http://www.w3.org/2000/svg">
<path d="M9 0.611603C4.03737 0.611603 0 4.60464 0 9.51273C0 15.6038 8.05412 24.5459 8.39703 24.9236C8.71912 25.2784 9.28146 25.2777 9.60297 24.9236C9.94588 24.5459 18 15.6038 18 9.51273C17.9999 4.60464 13.9626 0.611603 9 0.611603ZM9 13.9911C6.50318 13.9911 4.47192 11.9821 4.47192 9.51273C4.47192 7.04332 6.50323 5.03437 9 5.03437C11.4968 5.03437 13.528 7.04337 13.528 9.51278C13.528 11.9822 11.4968 13.9911 9 13.9911Z" fill="white"/>
</svg>
