<svg width="15" height="21" viewBox="0 0 15 21" fill="none" xmlns="http://www.w3.org/2000/svg">
<path d="M7.5 0.910416C3.36448 0.910416 0 4.10352 0 8.02836C0 12.8992 6.71177 20.0499 6.99752 20.3519C7.26593 20.6356 7.73455 20.6351 8.00248 20.3519C8.28823 20.0499 15 12.8992 15 8.02836C14.9999 4.10352 11.6355 0.910416 7.5 0.910416ZM7.5 11.6096C5.41932 11.6096 3.7266 10.0031 3.7266 8.02836C3.7266 6.05366 5.41936 4.44716 7.5 4.44716C9.58064 4.44716 11.2734 6.0537 11.2734 8.0284C11.2734 10.0031 9.58064 11.6096 7.5 11.6096Z" fill="white"/>
</svg>
