<svg width="13" height="13" viewBox="0 0 13 13" fill="none" xmlns="http://www.w3.org/2000/svg">
<path d="M11.375 5.41666C11.375 9.20832 6.5 12.4583 6.5 12.4583C6.5 12.4583 1.625 9.20832 1.625 5.41666C1.625 4.12373 2.13861 2.88375 3.05285 1.96951C3.96709 1.05527 5.20707 0.541656 6.5 0.541656C7.79293 0.541656 9.03291 1.05527 9.94715 1.96951C10.8614 2.88375 11.375 4.12373 11.375 5.41666Z" stroke="black" stroke-linecap="round" stroke-linejoin="round"/>
<path d="M6.5 7.04166C7.39746 7.04166 8.125 6.31412 8.125 5.41666C8.125 4.51919 7.39746 3.79166 6.5 3.79166C5.60254 3.79166 4.875 4.51919 4.875 5.41666C4.875 6.31412 5.60254 7.04166 6.5 7.04166Z" stroke="black" stroke-linecap="round" stroke-linejoin="round"/>
</svg>
