<svg width="15" height="17" viewBox="0 0 15 17" fill="none" xmlns="http://www.w3.org/2000/svg">
<path d="M14.0909 6.99581C14.0909 11.6592 7.54545 15.6564 7.54545 15.6564C7.54545 15.6564 1 11.6592 1 6.99581C1 5.40562 1.68961 3.88056 2.91712 2.75613C4.14463 1.6317 5.80949 1 7.54545 1C9.28142 1 10.9463 1.6317 12.1738 2.75613C13.4013 3.88056 14.0909 5.40562 14.0909 6.99581Z" stroke="white" stroke-linecap="round" stroke-linejoin="round"/>
<path d="M7.5451 8.99428C8.75008 8.99428 9.72692 8.09947 9.72692 6.99567C9.72692 5.89188 8.75008 4.99707 7.5451 4.99707C6.34011 4.99707 5.36328 5.89188 5.36328 6.99567C5.36328 8.09947 6.34011 8.99428 7.5451 8.99428Z" stroke="white" stroke-linecap="round" stroke-linejoin="round"/>
</svg>
