<svg width="14" height="14" viewBox="0 0 14 14" fill="none" xmlns="http://www.w3.org/2000/svg">
<path d="M12.25 5.83334C12.25 9.91667 7 13.4167 7 13.4167C7 13.4167 1.75 9.91667 1.75 5.83334C1.75 4.44095 2.30312 3.10559 3.28769 2.12103C4.27226 1.13646 5.60761 0.583336 7 0.583336C8.39239 0.583336 9.72774 1.13646 10.7123 2.12103C11.6969 3.10559 12.25 4.44095 12.25 5.83334Z" stroke="#E67839" stroke-linecap="round" stroke-linejoin="round"/>
<path d="M7 7.58334C7.9665 7.58334 8.75 6.79983 8.75 5.83334C8.75 4.86684 7.9665 4.08334 7 4.08334C6.0335 4.08334 5.25 4.86684 5.25 5.83334C5.25 6.79983 6.0335 7.58334 7 7.58334Z" stroke="#E67839" stroke-linecap="round" stroke-linejoin="round"/>
</svg>
