<svg width="141" height="40" viewBox="0 0 141 40" fill="none" xmlns="http://www.w3.org/2000/svg">
<path d="M125.868 13.4259C125.64 13.584 125.4 13.7395 125.171 13.9155C118.879 18.6966 112.586 23.4777 106.294 28.2613C102.069 31.4742 97.8365 34.6769 93.6199 37.9051C92.716 38.5987 91.7598 38.9403 90.6751 38.9379C83.7729 38.9225 76.8706 38.9301 69.9683 38.9277C69.659 38.9277 69.3431 38.9225 69.0426 38.8511C68.019 38.614 67.3197 37.6961 67.2109 36.4771C67.1847 36.1942 67.1891 35.9059 67.1891 35.6178C67.1891 25.5533 67.1891 15.4888 67.187 5.42423C67.187 5.21514 67.1978 5.00094 67.1651 4.79695C67.1259 4.53431 66.98 4.45272 66.7666 4.54961C66.6468 4.60316 66.5357 4.68986 66.4245 4.7689C59.4919 9.64436 52.5591 14.5173 45.6263 19.3927C45.0207 19.8186 45.0121 19.9256 45.5239 20.5249C50.4507 26.2928 55.3775 32.0582 60.3042 37.8261C60.4545 38.002 60.607 38.178 60.7268 38.3793C60.8749 38.6293 60.8052 38.8205 60.5525 38.8818C60.3784 38.9225 60.1954 38.9251 60.0167 38.9251C55.6279 38.9277 51.2369 38.9301 46.8482 38.9225C46.393 38.9225 45.9356 38.8766 45.4847 38.8078C44.8988 38.7185 44.4219 38.3793 44.0036 37.8872C41.1134 34.4908 38.2144 31.1045 35.3176 27.7157C35.2021 27.5805 35.0867 27.4478 34.969 27.3153C34.8209 27.147 34.651 27.1317 34.4746 27.2414C34.3026 27.351 34.1349 27.4683 33.9671 27.5881C29.0469 31.0484 24.1288 34.5086 19.2086 37.9714C18.6749 38.3463 18.1349 38.7083 17.5119 38.8231C17.1111 38.8945 16.7016 38.9251 16.2944 38.9251C11.7901 38.9327 7.28591 38.9327 2.78386 38.9225C2.38093 38.9225 1.95838 38.8945 1.57722 38.7568C0.664611 38.4254 0.159301 37.6502 0.0286171 36.546C0.000302388 36.319 0.00248045 36.0896 0.00248045 35.86C0.000302387 28.7942 -0.00405373 21.7258 0.00901463 14.66C0.00901463 13.997 0.0634661 13.3213 0.172369 12.6711C0.342258 11.669 0.793116 10.8275 1.47267 10.1773C1.79937 9.86365 2.14569 9.57041 2.50725 9.31541C6.31885 6.62525 10.1348 3.94273 13.9508 1.26021C14.0902 1.16332 14.2296 1.05622 14.3799 0.992471C14.6216 0.890475 14.7589 0.974622 14.8068 1.27041C14.8504 1.54835 14.8634 1.83905 14.8634 2.12464C14.8656 11.2355 14.8656 20.3438 14.8656 29.4546C14.8656 29.6638 14.8656 29.8754 14.8764 30.0845C14.8917 30.337 15.0224 30.4287 15.2119 30.337C15.3904 30.2502 15.5582 30.1278 15.7259 30.0106C23.4275 24.5945 31.1291 19.1785 38.8286 13.7625C44.2519 9.9478 49.6797 6.14586 55.0921 2.31332C56.0462 1.6376 57.035 1.32141 58.1501 1.32651C65.1351 1.34946 72.118 1.33671 79.1031 1.34181C79.395 1.34181 79.6912 1.36476 79.9765 1.43361C81.0372 1.6988 81.732 2.67797 81.7821 3.94528C81.7909 4.17477 81.7865 4.40427 81.7865 4.63376C81.7865 14.6804 81.7865 24.7246 81.7865 34.7713C81.7865 34.9804 81.7755 35.1946 81.8017 35.4012C81.8475 35.7632 81.9999 35.855 82.2787 35.6969C82.4093 35.623 82.5291 35.5184 82.6533 35.4266C93.2539 27.3714 103.855 19.3163 114.455 11.2585C118.38 8.27504 122.309 5.29929 126.23 2.30313C127.092 1.64525 128.009 1.32396 129.042 1.33161C132.141 1.35201 135.243 1.33926 138.342 1.33926C138.538 1.33926 138.736 1.33416 138.928 1.36986C140.235 1.60445 140.992 2.67032 140.994 4.28442C140.997 10.5113 140.997 16.7357 140.994 22.9626C140.994 24.0309 141.01 25.102 140.989 26.1703C140.977 26.7211 140.919 27.2719 140.838 27.8177C140.664 29.0238 140.115 29.9723 139.293 30.7092C139.022 30.9515 138.736 31.1759 138.444 31.3824C134.63 34.07 130.814 36.7551 126.998 39.435C126.783 39.5855 126.558 39.8609 126.291 39.657C126.051 39.4759 126.139 39.1342 126.139 38.8588C126.134 30.6838 126.136 22.5112 126.132 14.3362C126.13 14.0429 126.214 13.7115 125.868 13.4259Z" fill="white"/>
</svg>
