<svg width="181" height="27" viewBox="0 0 181 27" fill="none" xmlns="http://www.w3.org/2000/svg">
<path d="M24.5829 11.665C31.656 12.1139 38.729 12.4782 43.2976 12.4782C47.8662 12.4782 54.9392 12.1204 62.0123 11.665L62.4593 1.05379C56.438 0.969211 49.7593 0.930176 43.2976 0.930176C36.8359 0.930176 30.1506 0.969211 24.1359 1.05379L24.5829 11.665Z" fill="#313E48"/>
<path d="M0.787749 9.88648C0.971806 9.89955 12.0152 10.8429 23.4137 11.591L22.9733 1.06445C12.9158 1.20758 4.94219 1.46782 3.39742 1.83215C0.879778 2.4242 0.531383 4.38248 0.505089 5.68367C0.491942 6.30174 0.491942 7.98027 0.662853 9.86702L0.787749 9.88648Z" fill="#313E48"/>
<path d="M63.1766 11.5883C74.5749 10.8466 85.6186 9.90328 85.8027 9.88374L85.9339 9.87074C86.1049 7.99052 86.1049 6.31199 86.0854 5.69393C86.0593 4.39273 85.7106 2.43445 83.1925 1.84241C81.6414 1.47808 73.6747 1.21784 63.617 1.07471L63.1766 11.5883Z" fill="#313E48"/>
<path d="M63.1038 12.7467L62.1639 23.7157C67.9419 22.7008 73.1682 21.6143 75.3238 21.0483C80.0766 19.7992 82.9955 18.4394 84.5467 15.7199C85.2106 14.5553 85.5919 12.7792 85.8151 11.0356C84.7243 11.1333 74.0684 12.0311 63.1038 12.7467Z" fill="#313E48"/>
<path d="M61.9345 12.8237C54.8877 13.2726 47.8541 13.6305 43.2987 13.6305C38.7433 13.6305 31.7096 13.2726 24.6629 12.8237L25.6161 23.9229C32.2618 25.0679 39.394 26.0698 43.2987 26.0698C47.2034 26.0698 54.3355 25.0679 60.9814 23.9229L61.9345 12.8237Z" fill="#313E48"/>
<path d="M23.4856 12.7436C12.5211 12.028 1.86551 11.1301 0.780884 11.0391C0.997808 12.7826 1.38564 14.5587 2.04956 15.7233C3.59433 18.4428 6.51953 19.8026 11.2721 21.0517C13.4282 21.6177 18.6542 22.6977 24.4323 23.7191L23.4856 12.7436Z" fill="#313E48"/>
<path d="M96.9841 18.6237C95.8468 18.6237 94.9263 17.7129 94.9263 16.5873V8.35078C94.9263 7.22529 95.8468 6.31445 96.9841 6.31445H111.255V8.42239H97.2733V16.5092H108.901V13.5295H100.494V11.4021H111.255V18.6237H96.9841Z" fill="#313E48"/>
<path d="M116.835 18.6237C115.698 18.6237 114.778 17.7129 114.778 16.5873V6.31445H130.646V8.42239H117.124V11.4021H130.272V13.523H117.124V16.5028H130.646V18.6237H116.835Z" fill="#313E48"/>
<path d="M155.107 18.6264C153.969 18.6264 153.049 17.7091 153.049 16.5901V6.3042H155.396V16.5055H167.09V18.6264H155.107Z" fill="#313E48"/>
<path d="M135.931 18.6237C134.794 18.6237 133.874 17.7129 133.874 16.5873V6.31445H149.742V8.42239H136.22V11.4021H149.367V13.523H136.22V16.5028H149.742V18.6237H135.931Z" fill="#313E48"/>
<path d="M170.462 18.6264V13.9096L162.771 6.3042H165.802L171.639 12.075L177.469 6.3042H180.5L172.809 13.9096V18.6264H170.462Z" fill="#313E48"/>
</svg>
