<svg width="202" height="35" viewBox="0 0 202 35" fill="none" xmlns="http://www.w3.org/2000/svg">
<path d="M17.4471 0C23.2823 11.6695 29.0556 23.2141 34.8821 34.865C33.7062 34.865 32.6106 34.8687 31.515 34.8613C31.2727 34.8601 31.2616 34.6178 31.1849 34.4645C29.9335 31.9646 28.6624 29.4747 27.458 26.9514C27.1563 26.3184 26.8051 26.1033 26.1127 26.1083C21.2519 26.1379 16.3911 26.1243 11.5304 26.1243C10.9632 26.1243 10.8 25.8791 11.0407 25.3887C11.4141 24.6334 11.8073 23.8866 12.1585 23.1214C12.3267 22.7554 12.5418 22.6268 12.9548 22.6293C16.7856 22.6491 20.6176 22.6417 24.4483 22.6429C24.5509 22.6429 24.6548 22.6404 24.7574 22.6466C25.1309 22.6676 25.2768 22.6256 25.0542 22.1855C23.4739 19.0688 21.9246 15.9372 20.3616 12.8106C18.8815 9.84964 17.4014 6.88869 15.9114 3.93268C15.7605 3.63473 15.7185 3.39736 15.8879 3.07963C16.4084 2.10543 16.8894 1.10896 17.4459 0L17.4471 0Z" fill="#194079"/>
<path d="M14.2967 6.28784C14.8816 7.45615 15.4232 8.53297 15.9586 9.6135C16.0661 9.82985 15.9289 10.0042 15.8362 10.1896C14.7146 12.4335 13.6092 14.6848 12.4666 16.9176C12.2329 17.3738 12.3108 17.4504 12.7869 17.448C14.9904 17.4319 17.1939 17.4517 19.3973 17.4307C19.7634 17.4269 19.9427 17.5456 20.0947 17.8658C20.5671 18.8611 21.0691 19.8402 21.6021 20.9096C21.0246 20.9096 20.5572 20.9096 20.0898 20.9096C17.1246 20.9096 14.1582 20.9319 11.193 20.8923C10.6143 20.8849 10.3645 21.1012 10.1308 21.5723C8.01267 25.8449 5.86978 30.1052 3.75285 34.3791C3.57108 34.7451 3.38807 34.8972 2.96766 34.8811C2.02295 34.8452 1.07701 34.87 0 34.87C4.77793 25.3195 9.51381 15.8519 14.2967 6.28784Z" fill="#194079"/>
<path d="M202 27.7097C202 28.7357 201.824 29.6796 201.471 30.5411C201.119 31.4027 200.629 32.1468 200.003 32.7734C199.376 33.4 198.632 33.8896 197.77 34.242C196.917 34.5867 195.984 34.759 194.974 34.759H190.838C189.828 34.759 188.892 34.5867 188.03 34.242C187.169 33.8896 186.425 33.4 185.798 32.7734C185.172 32.1468 184.678 31.4027 184.318 30.5411C183.965 29.6796 183.789 28.7357 183.789 27.7097V24.4904C183.789 23.4722 183.965 22.5323 184.318 21.6707C184.678 20.8013 185.172 20.0572 185.798 19.4384C186.425 18.8118 187.169 18.3223 188.03 17.9698C188.892 17.6173 189.828 17.4411 190.838 17.4411H194.974C195.984 17.4411 196.917 17.6173 197.77 17.9698C198.632 18.3223 199.376 18.8118 200.003 19.4384C200.629 20.0572 201.119 20.8013 201.471 21.6707C201.824 22.5323 202 23.4722 202 24.4904V27.7097ZM198.945 24.4904C198.945 23.8873 198.847 23.343 198.651 22.8574C198.463 22.3639 198.193 21.9449 197.841 21.6002C197.496 21.2477 197.077 20.9775 196.584 20.7895C196.098 20.5937 195.561 20.4958 194.974 20.4958H190.838C190.243 20.4958 189.699 20.5937 189.205 20.7895C188.72 20.9775 188.301 21.2477 187.948 21.6002C187.596 21.9449 187.322 22.3639 187.126 22.8574C186.938 23.343 186.844 23.8873 186.844 24.4904V27.7097C186.844 28.3128 186.938 28.861 187.126 29.3545C187.322 29.8401 187.596 30.2592 187.948 30.6116C188.301 30.9563 188.72 31.2265 189.205 31.4223C189.699 31.6103 190.243 31.7043 190.838 31.7043H194.951C195.546 31.7043 196.086 31.6103 196.572 31.4223C197.065 31.2265 197.488 30.9563 197.841 30.6116C198.193 30.2592 198.463 29.8401 198.651 29.3545C198.847 28.861 198.945 28.3128 198.945 27.7097V24.4904Z" fill="#194079"/>
<path d="M182.297 20.7308H175.565V34.524H172.51V20.7308H165.766V17.6761H182.297V20.7308Z" fill="#194079"/>
<path d="M163.511 32.9849C163.511 33.2042 163.471 33.4079 163.393 33.5959C163.315 33.7838 163.205 33.9483 163.064 34.0893C162.923 34.2225 162.759 34.3282 162.571 34.4065C162.383 34.4849 162.183 34.524 161.971 34.524H155.087C154.436 34.524 153.779 34.4535 153.113 34.3125C152.447 34.1716 151.801 33.9562 151.174 33.6664C150.555 33.3687 149.972 32.9928 149.424 32.5385C148.875 32.0842 148.394 31.5476 147.978 30.9289C147.571 30.3023 147.25 29.5895 147.015 28.7906C146.78 27.9838 146.663 27.087 146.663 26.1001V17.6761H149.717V26.1001C149.717 26.9616 149.835 27.6901 150.07 28.2854C150.313 28.8806 150.618 29.378 150.986 29.7775C151.354 30.1769 151.758 30.4902 152.196 30.7174C152.635 30.9445 153.05 31.1129 153.442 31.2226C153.841 31.3322 154.19 31.4027 154.487 31.4341C154.793 31.4576 154.993 31.4693 155.087 31.4693H160.456V17.6761H163.511V32.9849Z" fill="#194079"/>
<path d="M143.443 34.524H140.388V30.3884H129.65V34.524H126.595V26.1001C126.595 24.8703 126.807 23.7385 127.23 22.7046C127.653 21.6707 128.24 20.7817 128.992 20.0376C129.744 19.2935 130.633 18.7139 131.659 18.2988C132.685 17.8837 133.805 17.6761 135.019 17.6761H141.904C142.116 17.6761 142.315 17.7152 142.503 17.7936C142.691 17.8719 142.856 17.9816 142.997 18.1225C143.138 18.2635 143.247 18.428 143.326 18.616C143.404 18.804 143.443 19.0037 143.443 19.2152V34.524ZM129.65 27.3337H140.388V20.7308H135.019C134.925 20.7308 134.725 20.7465 134.42 20.7778C134.122 20.8013 133.774 20.8679 133.374 20.9775C132.983 21.0872 132.568 21.2556 132.129 21.4827C131.69 21.7099 131.287 22.0232 130.919 22.4226C130.551 22.8221 130.245 23.3234 130.002 23.9265C129.767 24.5218 129.65 25.2463 129.65 26.1001V27.3337Z" fill="#194079"/>
<path d="M123.775 27.4746H112.755V24.7254H123.775V27.4746Z" fill="#194079"/>
<path d="M111.651 34.524H97.7164C97.497 34.524 97.2934 34.4849 97.1054 34.4065C96.9174 34.3282 96.7529 34.2225 96.612 34.0893C96.4788 33.9483 96.3731 33.7838 96.2947 33.5959C96.2164 33.4079 96.1772 33.2042 96.1772 32.9849V17.6761H99.232V31.4693H111.651V34.524Z" fill="#194079"/>
<path d="M92.6175 34.524H89.5628V30.3884H78.8243V34.524H75.7695V26.1001C75.7695 24.8703 75.981 23.7385 76.404 22.7046C76.8269 21.6707 77.4144 20.7817 78.1663 20.0376C78.9182 19.2935 79.8072 18.7139 80.8333 18.2988C81.8594 17.8837 82.9794 17.6761 84.1935 17.6761H91.0784C91.2898 17.6761 91.4896 17.7152 91.6776 17.7936C91.8655 17.8719 92.03 17.9816 92.171 18.1225C92.312 18.2635 92.4217 18.428 92.5 18.616C92.5783 18.804 92.6175 19.0037 92.6175 19.2152V34.524ZM78.8243 27.3337H89.5628V20.7308H84.1935C84.0995 20.7308 83.8998 20.7465 83.5943 20.7778C83.2967 20.8013 82.9481 20.8679 82.5487 20.9775C82.157 21.0872 81.7419 21.2556 81.3033 21.4827C80.8646 21.7099 80.4613 22.0232 80.0931 22.4226C79.725 22.8221 79.4195 23.3234 79.1767 23.9265C78.9417 24.5218 78.8243 25.2463 78.8243 26.1001V27.3337Z" fill="#194079"/>
<path d="M71.7511 27.6392H62.1052V24.561H71.7511V27.6392ZM73.1257 34.524H62.1052C61.6823 34.524 61.2201 34.4496 60.7188 34.3008C60.2176 34.152 59.7515 33.9092 59.3207 33.5724C58.8978 33.2277 58.5414 32.7852 58.2516 32.2447C57.9696 31.6965 57.8286 31.0268 57.8286 30.2357V19.2152C57.8286 19.0037 57.8678 18.804 57.9461 18.616C58.0244 18.428 58.1302 18.2635 58.2633 18.1225C58.4043 17.9816 58.5688 17.8719 58.7568 17.7936C58.9448 17.7152 59.1484 17.6761 59.3677 17.6761H73.1257V20.7308H60.8833V30.2357C60.8833 30.6351 60.9891 30.9406 61.2006 31.1521C61.412 31.3636 61.7214 31.4693 62.1287 31.4693H73.1257V34.524Z" fill="#194079"/>
<path d="M54.8333 23.3391C54.8333 24.0362 54.7471 24.6589 54.5748 25.2071C54.4025 25.7554 54.1675 26.241 53.8699 26.664C53.58 27.0791 53.2432 27.4355 52.8594 27.7332C52.4756 28.0308 52.0723 28.2775 51.6493 28.4733C51.2342 28.6613 50.8112 28.7984 50.3804 28.8846C49.9575 28.9707 49.558 29.0138 49.182 29.0138L55.5617 34.524H50.8386L44.4707 29.0138H42.2737V25.9591H49.182C49.5658 25.9277 49.9144 25.8494 50.2277 25.7241C50.5488 25.5909 50.823 25.4147 51.0501 25.1954C51.2851 24.9761 51.4652 24.7137 51.5906 24.4082C51.7159 24.0949 51.7785 23.7385 51.7785 23.3391V21.4122C51.7785 21.2399 51.755 21.1107 51.7081 21.0245C51.6689 20.9305 51.6141 20.864 51.5436 20.8248C51.4809 20.7778 51.4104 20.7504 51.3321 20.7426C51.2616 20.7347 51.195 20.7308 51.1324 20.7308H41.0518V34.524H37.9971V19.2152C37.9971 19.0037 38.0362 18.804 38.1146 18.616C38.1929 18.428 38.2986 18.2635 38.4318 18.1225C38.5728 17.9816 38.7373 17.8719 38.9252 17.7936C39.1132 17.7152 39.3169 17.6761 39.5362 17.6761H51.1324C51.8138 17.6761 52.3895 17.8014 52.8594 18.0521C53.3294 18.2949 53.7093 18.6043 53.9991 18.9802C54.2967 19.3483 54.5082 19.7478 54.6335 20.1786C54.7667 20.6094 54.8333 21.0128 54.8333 21.3887V23.3391Z" fill="#194079"/>
</svg>
