<svg width="308" height="29" viewBox="0 0 308 29" fill="none" xmlns="http://www.w3.org/2000/svg">
<g clip-path="url(#clip0_23_259)">
<path fill-rule="evenodd" clip-rule="evenodd" d="M87.1312 14.3724V28.2659H100.338L115 17.5756C123.064 11.6944 130.014 6.63932 130.434 6.33772L131.206 5.78009L130.809 6.2822C130.599 6.56143 128.37 9.362 125.866 12.5205C122.17 17.1854 121.343 18.2791 121.464 18.4017C121.541 18.468 124.609 20.7217 128.282 23.4005L134.957 28.2659H148.163L139.403 21.8941C134.593 18.3901 130.566 15.4329 130.456 15.3211C130.268 15.1429 130.467 14.819 134.946 7.92194C137.538 3.96137 139.646 0.657859 139.646 0.602345C139.646 0.512859 137.417 0.479716 132.442 0.479716H125.249L110.63 11.1476L96.0124 21.8047L95.9576 11.1699L95.9019 0.535231L91.5227 0.502088L87.1312 0.479716V14.3724ZM169.753 13.3905C165.268 18.0161 160.789 22.6473 156.316 27.284L155.389 28.2659H168.528L178.337 17.5309C181.664 13.8843 184.988 10.2352 188.31 6.5838C188.464 6.37169 189.005 6.91855 199.066 17.308L209.646 28.2435L215.472 28.2551L221.308 28.2659L220.933 27.8309C220.734 27.5964 215.041 21.3473 208.278 13.9374L195.977 0.480545H182.253L169.753 13.3913V13.3905ZM228.534 0.557602C228.49 0.590745 228.457 6.85143 228.457 14.4511V28.2659H237.284V0.480545H232.948C230.554 0.480545 228.568 0.513688 228.534 0.558431V0.557602ZM246.506 0.579973C246.561 0.646259 250.578 3.58189 255.432 7.11906C260.286 10.6571 264.269 13.6026 264.291 13.659C264.312 13.7145 262.217 17.0064 259.624 20.9794L254.924 28.2103L262.217 28.2435L269.509 28.2659L283.818 17.8325L298.127 7.38669L298.16 17.8325L298.182 28.2659H307.008V0.992602L307.251 0.735745L307.482 0.478888H294.42L279.063 11.6729C273.897 15.4435 268.726 19.2077 263.551 22.9655C263.408 23.055 264.622 21.5039 271.109 13.3574L273.337 10.5568L266.431 5.51246L259.524 0.479716H252.961C248.867 0.479716 246.44 0.524459 246.506 0.579973ZM0.172021 0.230316L0 0.367859L0.200691 0.447402C0.307181 0.491316 0.522617 0.621402 0.665968 0.737402C0.809319 0.853402 1.6899 1.33894 2.6139 1.81703C3.53872 2.29512 4.56921 2.8312 4.9067 3.00437C5.76599 3.46837 8.3373 4.83054 9.52588 5.45363C10.0772 5.74363 10.6932 6.06926 10.8865 6.1778C11.0872 6.28552 11.7319 6.62689 12.3192 6.93843C12.9131 7.24997 13.6511 7.64106 13.9657 7.8076C14.281 7.97414 14.9257 8.32132 15.3992 8.56823C16.179 8.98086 17.9631 9.93703 18.2277 10.082C18.4063 10.1839 18.4063 10.3795 18.2195 10.3795C18.1343 10.3795 17.8976 10.459 17.6977 10.5535C17.497 10.6471 16.4444 10.9446 15.3631 11.2122C13.4291 11.6977 12.9991 11.8353 12.9991 11.9728C12.9991 12.0167 13.0925 12.0457 13.2071 12.0457C13.3357 12.0457 13.4578 12.1037 13.5151 12.1833C13.5651 12.2554 14.2237 12.7699 14.9757 13.3201C15.735 13.8785 16.9236 14.7477 17.6256 15.2689C18.335 15.7826 19.1656 16.3916 19.481 16.6236C19.7956 16.8481 20.1322 17.0942 20.233 17.1671C20.3255 17.2392 21.1349 17.8259 22.0228 18.4779C22.9108 19.13 23.7135 19.7241 23.8135 19.7962C23.9134 19.8757 24.1714 20.0647 24.3869 20.2237C25.2961 20.8899 25.5746 21.0937 27.1081 22.2305C27.996 22.8826 28.7546 23.4693 28.798 23.5273C28.8414 23.5853 28.9053 23.6358 28.9487 23.6358C28.9839 23.6358 29.0773 23.6863 29.156 23.7518C29.278 23.8529 29.278 23.8603 29.1633 23.8239C29.0847 23.8023 29.0487 23.8098 29.0773 23.8529C29.0986 23.8968 29.1773 23.9258 29.242 23.9258C29.3067 23.9258 29.4214 23.9763 29.4926 24.0269C29.6073 24.1213 29.6073 24.1288 29.5 24.1719C29.3853 24.2158 29.3927 24.2299 29.5139 24.3243C29.6786 24.447 29.7572 24.4619 29.7572 24.3533C29.7572 24.3169 29.7294 24.2953 29.6933 24.3243C29.6573 24.3459 29.6073 24.331 29.5786 24.2879C29.5287 24.2083 29.686 24.1934 29.7933 24.273C29.8367 24.302 29.8653 24.389 29.8653 24.4685C29.8653 24.5555 29.9227 24.621 30.0087 24.6359C30.0872 24.6517 30.1608 24.6864 30.2233 24.737C30.2733 24.795 30.2585 24.795 30.1873 24.7585C30.0939 24.7005 30.0939 24.708 30.1799 24.824C30.2372 24.8894 30.3306 24.9251 30.3953 24.9035C30.4527 24.882 30.4813 24.882 30.4592 24.911C30.3806 24.9831 30.7033 25.2151 30.8246 25.172C30.8819 25.1496 30.9106 25.1637 30.8819 25.2076C30.818 25.3095 31.0179 25.4761 31.1252 25.4031C31.176 25.3741 31.1907 25.3816 31.1612 25.4321C31.1399 25.4761 31.2186 25.5846 31.3472 25.6716C31.5913 25.8456 32.5579 26.5623 33.9971 27.6419C34.4559 27.9899 34.8491 28.2717 34.8712 28.2717C34.9138 28.2717 36.1384 27.3809 37.5637 26.3162C37.9364 26.0337 38.7105 25.4686 39.2831 25.0485C39.8557 24.6359 41.0303 23.7659 41.8962 23.1287C42.5101 22.6718 43.1261 22.2177 43.7442 21.7665C43.8875 21.6588 44.2103 21.4185 44.4609 21.2379C45.0696 20.7822 47.1822 19.2245 47.5041 18.9925C47.6474 18.8906 48.8508 18.0065 50.1688 17.0371C51.0479 16.3818 51.931 15.7319 52.8179 15.0874C52.9547 14.9863 53.3413 14.6963 53.6846 14.4362C54.036 14.1752 54.6299 13.7335 55.0099 13.4585C55.3892 13.1751 55.8406 12.8495 56.0126 12.7194C56.1799 12.5932 56.3544 12.477 56.5352 12.3714C56.7719 12.2479 56.8358 11.9877 56.6638 11.8427C56.6147 11.7988 55.8553 11.5817 54.9665 11.3572C51.9086 10.5817 51.8513 10.5676 51.7653 10.3215C51.7387 10.2548 51.6972 10.1953 51.6441 10.1475C51.6006 10.1185 51.5867 10.082 51.6006 10.0679C51.6228 10.0456 52.2953 9.68349 53.1046 9.25594C53.9139 8.82923 55.2532 8.11914 56.0773 7.68414C56.9079 7.24252 57.9531 6.69235 58.4037 6.45289C58.8558 6.21426 59.5218 5.8588 59.8724 5.67072C60.2304 5.4818 60.8898 5.12717 61.3403 4.88855C62.811 4.11552 64.2792 3.33776 65.7449 2.55529C66.8262 1.97612 69.2476 0.758945 69.4188 0.708402C69.5199 0.672829 69.6043 0.600464 69.6555 0.505402C69.7268 0.382773 69.7129 0.331402 69.5769 0.223688C69.4261 0.099402 69.1181 0.0927734 63.7691 0.0927734H58.1178L57.2733 0.316488C56.8145 0.440773 55.7619 0.715859 54.9305 0.940402C54.1072 1.16412 53.1693 1.4044 52.8539 1.47649C52.5386 1.54857 51.7366 1.75157 51.0633 1.9322C49.9533 2.22966 49.3521 2.38874 47.4836 2.88174C47.1314 2.97537 45.7781 3.33746 44.4749 3.67883C43.179 4.02683 41.8249 4.38146 41.467 4.47509C36.6971 5.7428 35.0145 6.1778 34.8646 6.1778C34.7139 6.1778 34.0545 6.01789 31.8346 5.4238C30.4166 5.04763 26.7493 4.07654 25.7827 3.823C24.3253 3.44156 22.8691 3.05545 21.4142 2.66466C20.2756 2.35975 18.6643 1.9322 17.8337 1.72257C16.0643 1.27349 14.9044 0.961945 13.0277 0.462316L11.6598 0.0927734H5.99453C0.522617 0.0927734 0.329298 0.099402 0.172021 0.230316ZM11.745 1.76483C11.9031 1.80875 12.433 1.96783 12.927 2.12029C15.9202 3.06154 16.4289 3.22146 16.6869 3.30846C16.8442 3.36646 17.7829 3.66309 18.7634 3.96717C19.7521 4.27126 21.1062 4.6988 21.7713 4.90926C23.1827 5.35835 26.1186 6.28469 26.6412 6.4446C27.0426 6.5606 29.8498 7.45214 31.5757 7.99486C33.4516 8.5964 34.7917 9.0024 34.8851 9.0024C34.9277 9.0024 35.5937 8.80686 36.353 8.55995C37.1189 8.31386 37.9856 8.04623 38.2796 7.95177C38.5729 7.86477 39.5108 7.57477 40.3562 7.30714C42.9414 6.48852 46.0214 5.51743 46.6088 5.3368C46.9094 5.24234 47.4107 5.08326 47.7187 4.9888C48.0193 4.89434 49.2227 4.51817 50.3826 4.14863C51.5425 3.77909 52.6098 3.446 52.7458 3.40954C52.8818 3.36646 54.1285 2.97454 55.5031 2.53292L58.0097 1.7292L60.0149 1.70683C61.3829 1.69274 61.9842 1.70683 61.899 1.7582C61.8335 1.80129 61.7982 1.88829 61.8195 1.96037C61.8343 2.03329 61.7909 2.14183 61.7196 2.21392C61.5975 2.32329 57.9736 3.80063 46.0493 8.60386C41.2081 10.5518 41.4301 10.4582 41.4301 10.5808C41.4301 10.6322 41.4588 10.6612 41.5022 10.6322C41.5382 10.6098 41.6169 10.6753 41.6808 10.7697C41.8028 10.9578 42.2615 11.1244 44.2234 11.7185C45.6061 12.1311 45.7486 12.1825 45.978 12.3341L46.1926 12.4791H45.942C45.7781 12.4791 45.6635 12.523 45.6127 12.61C45.5627 12.6821 45.226 12.9 44.8607 13.0873C44.4888 13.2828 43.8007 13.6457 43.3289 13.891C42.8554 14.1379 41.9527 14.616 41.3228 14.9424C40.692 15.2755 39.8262 15.7321 39.3896 15.9566C38.9595 16.1886 38.0568 16.6592 37.3843 17.0064C36.7183 17.3619 35.9017 17.7894 35.5724 17.9626C35.2431 18.1291 34.9277 18.2741 34.8703 18.2741C34.813 18.2741 33.3877 17.5499 31.7052 16.6733C30.0218 15.7901 28.1451 14.8115 27.5365 14.4933C26.9279 14.1743 25.9613 13.6673 25.3879 13.3632C24.2779 12.7832 24.0133 12.5951 24.0772 12.4352C24.0994 12.3705 24.0633 12.3341 23.9486 12.3341C23.8487 12.3341 23.8127 12.3051 23.8553 12.2686C23.9413 12.1825 27.9018 10.9578 28.0952 10.9578C28.2598 10.9578 28.4179 10.7341 28.3606 10.5808C28.3098 10.4648 28.3524 10.4797 22.022 7.9294C19.1648 6.77769 16.0062 5.49589 15.0035 5.08989C14.0009 4.68389 12.0816 3.90917 10.7423 3.37309C9.40301 2.83037 8.21443 2.32329 8.10712 2.24292C7.97114 2.14929 7.9138 2.05483 7.9351 1.96783C7.9447 1.92895 7.94232 1.88802 7.92826 1.85055C7.9142 1.81308 7.88915 1.78085 7.85646 1.7582C7.68444 1.66374 11.3731 1.66375 11.745 1.76483Z" fill="white"/>
</g>
<defs>
<clipPath id="clip0_23_259">
<rect width="308" height="29" fill="white"/>
</clipPath>
</defs>
</svg>
