<svg width="240" height="34" viewBox="0 0 240 34" fill="none" xmlns="http://www.w3.org/2000/svg">
<path d="M32.1107 14.5391C41.5414 15.1376 50.9721 15.6233 57.0636 15.6233C63.155 15.6233 72.5857 15.1462 82.0165 14.5391L82.6125 0.390769C74.5841 0.278 65.6792 0.225952 57.0636 0.225952C48.4479 0.225952 39.5343 0.278 31.5146 0.390769L32.1107 14.5391Z" fill="white"/>
<path d="M0.383666 12.1677C0.629075 12.1852 15.3536 13.443 30.5516 14.4405L29.9643 0.405029C16.5544 0.59587 5.92292 0.942853 3.86323 1.42863C0.50637 2.21802 0.0418443 4.82906 0.00678582 6.56399C-0.0107435 7.38808 -0.0107435 9.62611 0.217137 12.1418L0.383666 12.1677Z" fill="white"/>
<path d="M83.5688 14.437C98.7666 13.4481 113.491 12.1903 113.737 12.1642L113.912 12.1469C114.14 9.63991 114.14 7.40187 114.114 6.57778C114.079 4.84286 113.614 2.23181 110.257 1.44243C108.189 0.956648 97.5663 0.609664 84.1561 0.418823L83.5688 14.437Z" fill="white"/>
<path d="M83.4718 15.981L82.2185 30.6064C89.9226 29.2531 96.8909 27.8044 99.7651 27.0498C106.102 25.3843 109.994 23.5713 112.062 19.9453C112.948 18.3925 113.456 16.0243 113.754 13.6996C112.299 13.8297 98.0912 15.0268 83.4718 15.981Z" fill="white"/>
<path d="M81.9128 16.0839C72.5171 16.6824 63.1389 17.1595 57.065 17.1595C50.9911 17.1595 41.6129 16.6824 32.2173 16.0839L33.4882 30.8827C42.3492 32.4094 51.8588 33.7453 57.065 33.7453C62.2712 33.7453 71.7808 32.4094 80.6419 30.8827L81.9128 16.0839Z" fill="white"/>
<path d="M30.6474 15.9772C16.028 15.023 1.82055 13.8259 0.37439 13.7045C0.663622 16.0292 1.18073 18.3974 2.06596 19.9501C4.12565 23.5761 8.02591 25.3891 14.3627 27.0546C17.2375 27.8093 24.2054 29.2493 31.9096 30.6113L30.6474 15.9772Z" fill="white"/>
<path d="M128.645 23.8175C127.129 23.8175 125.902 22.6031 125.902 21.1023V10.1203C125.902 8.6196 127.129 7.40515 128.645 7.40515H147.673V10.2157H129.031V20.9982H144.535V17.0253H133.325V14.1886H147.673V23.8175H128.645Z" fill="white"/>
<path d="M155.114 23.8175C153.597 23.8175 152.371 22.6031 152.371 21.1023V7.40515H173.528V10.2157H155.499V14.1886H173.029V17.0166H155.499V20.9896H173.528V23.8175H155.114Z" fill="white"/>
<path d="M206.142 23.8211C204.626 23.8211 203.398 22.5981 203.398 21.106V7.39148H206.528V20.9932H222.12V23.8211H206.142Z" fill="white"/>
<path d="M180.574 23.8175C179.059 23.8175 177.832 22.6031 177.832 21.1023V7.40515H198.989V10.2157H180.96V14.1886H198.49V17.0166H180.96V20.9896H198.989V23.8175H180.574Z" fill="white"/>
<path d="M226.617 23.8211V17.5321L216.362 7.39148H220.402L228.185 15.0859L235.959 7.39148H240L229.745 17.5321V23.8211H226.617Z" fill="white"/>
</svg>
