<svg width="142" height="34" viewBox="0 0 142 34" fill="none" xmlns="http://www.w3.org/2000/svg">
<path d="M82.3777 30.0985C82.3777 30.3754 82.4665 30.532 82.6203 30.532C82.7451 30.5148 82.8633 30.465 82.9635 30.3875L127.22 1.16204C127.968 0.629231 128.864 0.354851 129.776 0.379321H139.503C140.994 0.379321 142 1.39083 142 2.9081V21.8077C142 24.0956 141.503 25.4202 139.515 26.6304L127.717 33.8555C127.6 33.9384 127.463 33.9882 127.321 34C127.179 34 127.037 33.8856 127.037 33.4702V11.4156C127.037 11.1567 126.966 10.9881 126.794 10.9881C126.669 11.0024 126.55 11.0525 126.451 11.1326L94.1105 32.5128C93.3783 33.02 92.5111 33.2868 91.6255 33.2775H70.1835C68.6807 33.2775 67.6867 32.266 67.6867 30.7367V3.49814C67.6867 3.29945 67.5979 3.1128 67.4263 3.1128C67.3033 3.1296 67.1869 3.17948 67.0891 3.25731L45.7477 16.2805C45.5347 16.425 45.4755 16.5274 45.4755 16.6297C45.4755 16.714 45.5228 16.8043 45.6648 16.9609L60.9121 32.4647C61.1132 32.6694 61.2552 32.8259 61.2552 33.0005C61.2552 33.145 61.0245 33.2594 60.7582 33.2594H46.9783C45.8956 33.2594 45.0613 33.1029 44.4756 32.5068L35.2337 23.1142C35.1988 23.0715 35.1555 23.0366 35.1066 23.0118C35.0577 22.9869 35.0043 22.9726 34.9497 22.9697C34.8492 22.9755 34.7516 23.0065 34.6657 23.06L19.2232 32.5128C18.4848 33.0176 17.6097 33.2745 16.7205 33.2474H2.51458C0.994 33.2594 0 32.2359 0 30.7246V12.1803C0 9.89234 0.497 8.56774 2.49683 7.36356L14.3775 0.0963388C14.4697 0.0367469 14.576 0.00347018 14.6852 0C14.8745 0 14.9692 0.180629 14.9692 0.602092V25.4323C14.9692 25.6912 15.0283 25.8116 15.2118 25.8116C15.3393 25.7914 15.4607 25.742 15.5667 25.6671L55.6581 1.10784C56.4353 0.575448 57.3611 0.313519 58.2969 0.361256H79.8809C81.3719 0.361256 82.3777 1.37277 82.3777 2.89003L82.3659 30.0924L82.3777 30.0985Z" fill="white"/>
</svg>
