<svg width="158" height="31" viewBox="0 0 158 31" fill="none" xmlns="http://www.w3.org/2000/svg">
<path fill-rule="evenodd" clip-rule="evenodd" d="M34.4742 0.0528109C42.6265 -0.207994 50.8519 0.476618 58.758 2.56602C62.67 3.6448 66.541 5.05848 69.9871 7.25161C72.1936 8.70678 74.3328 10.5383 75.3438 13.0693C76.1848 15.0995 75.8507 17.4971 74.6668 19.3168C72.9878 21.9841 70.2772 23.7682 67.5461 25.1879C61.0114 28.4509 53.75 29.8705 46.5502 30.641C38.1958 31.3019 29.73 31.1212 21.487 29.5C16.4438 28.4924 11.4242 27.0224 6.92314 24.4558C4.58766 23.0925 2.32543 21.3765 0.93645 18.9878C-0.115544 17.2126 -0.303086 14.9394 0.485177 13.0278C1.26758 11.0362 2.81187 9.47141 4.47631 8.19999C7.392 6.01279 10.7736 4.55762 14.2051 3.41363C20.7514 1.27978 27.6231 0.387708 34.4742 0.0528109ZM23.3946 3.10245C18.4335 4.13974 13.4344 5.63344 9.20588 8.54378C7.01691 10.073 4.94516 12.2514 4.64627 15.0491C4.45286 17.5178 5.94148 19.7554 7.71141 21.3113C10.6242 23.8809 14.2783 25.3657 17.9119 26.563C18.2108 25.9228 18.5127 25.2827 18.8262 24.6485C21.3815 24.8589 23.9191 25.3153 26.4891 25.3597C29.7242 25.4072 32.9739 25.4546 36.1914 25.0486C38.6705 24.767 41.2551 24.5595 43.5026 23.3652C44.6044 22.7932 45.4161 21.6492 45.4777 20.3837C45.6037 19.4205 45.1612 18.3921 45.5275 17.4763C46.4213 16.6643 47.4586 16.0034 48.4872 15.378C50.6292 15.3395 52.7801 15.5618 54.9222 15.707C54.7317 16.3501 54.6555 17.0644 54.2629 17.6186C53.1054 18.0365 51.7984 17.9624 50.7113 18.5848C52.1061 19.7554 53.5977 21.1098 53.9024 23.0184C54.2951 24.764 53.5215 26.4978 52.4197 27.8078C56.4284 27.0994 60.355 25.7954 63.977 23.9105C66.0634 22.7784 68.0706 21.3677 69.486 19.4146C70.8252 17.506 71.2852 14.8505 70.1893 12.7137C68.686 9.57218 65.615 7.57465 62.5909 6.12541C58.7873 4.33534 54.6848 3.29509 50.5589 2.6164C50.8285 3.7752 51.06 4.95772 50.9867 6.15505C50.9633 8.16739 50.0227 10.0286 48.8857 11.629C45.7092 15.9174 41.047 19.1004 35.8837 20.3393C30.8025 21.6166 25.5133 21.8359 20.306 21.4862C20.5082 20.446 21.0503 19.5302 21.443 18.561C23.8107 13.1523 26.1843 7.74358 28.5608 2.33781C26.8173 2.40894 25.1118 2.81793 23.3946 3.10245ZM24.2766 18.5018C26.5682 18.0157 28.5227 16.5487 30.1285 14.8831C31.9659 12.9093 33.5219 10.6687 34.7556 8.26519C35.412 6.92264 36.0332 5.33707 35.5174 3.85226C34.738 2.34374 32.7864 2.52749 31.3622 2.48007C28.9183 7.78211 26.6854 13.182 24.2766 18.5018ZM84.3516 7.12714C85.515 6.8278 86.8512 7.09453 88.082 7.00266C88.0878 11.6053 88.0937 16.2079 88.079 20.8105C91.2643 20.8431 94.4555 20.7631 97.6378 20.852C97.8986 21.8893 97.6583 23.0777 97.7521 24.1743C93.2745 24.2217 88.794 24.2247 84.3165 24.2009C84.3546 18.5107 84.2813 12.8145 84.3516 7.12714ZM105.752 10.1442C106.235 9.08317 106.649 7.98661 107.241 6.97895C108.468 7.02044 109.696 7.00266 110.927 7.00266C113.476 12.7374 116.043 18.4632 118.56 24.2098C117.259 24.198 115.955 24.2009 114.654 24.2098C114.174 23.1014 113.69 21.993 113.216 20.8786C110.443 20.852 107.671 20.8875 104.902 20.8579C104.381 21.9515 103.894 23.0599 103.469 24.1921C102.148 24.3343 100.814 24.3136 99.4927 24.2098C101.597 19.5302 103.66 14.8327 105.752 10.1471V10.1442ZM106.209 17.4586C108.105 17.4586 110.004 17.4645 111.903 17.4497C110.942 15.1558 110.001 12.85 109.034 10.5591C108.067 12.8471 107.135 15.1528 106.209 17.4586ZM121.072 7.00266C123.832 7.02637 126.595 6.97006 129.356 7.02933C131.894 7.10639 134.642 7.74062 136.418 9.70851C138.267 11.6764 138.595 14.5956 138.296 17.18C138.056 19.6487 136.608 22.0345 134.361 23.1222C132.269 24.1357 129.886 24.2484 127.604 24.2039C125.423 24.3402 123.24 24.1565 121.057 24.198C121.084 18.4662 121.057 12.7344 121.072 7.00266ZM124.776 10.405C124.767 13.8784 124.767 17.3519 124.776 20.8253C127.158 20.7097 129.687 21.1128 131.932 20.0933C135.354 18.5551 135.422 12.7344 132.005 11.1518C129.749 10.076 127.182 10.488 124.776 10.405ZM138.976 24.2839C141.332 18.4573 144.066 12.7789 146.554 7.00266C147.797 7.00562 149.039 7.01451 150.281 6.98784C152.951 12.6663 155.369 18.4692 158 24.1683C156.678 24.1683 155.354 24.3373 154.035 24.1861C153.581 23.0688 153.08 21.9722 152.605 20.8609C149.824 20.8727 147.04 20.846 144.26 20.8727C143.767 21.9663 143.378 23.1103 142.797 24.1595C141.558 24.441 140.242 24.0765 138.976 24.2839ZM145.628 17.4556C147.518 17.4645 149.411 17.4704 151.304 17.4556C150.375 15.1558 149.405 12.8708 148.453 10.5798C147.468 12.8559 146.525 15.1498 145.628 17.4586V17.4556Z" fill="white"/>
</svg>
