<svg width="122" height="18" viewBox="0 0 122 18" fill="none" xmlns="http://www.w3.org/2000/svg">
<path d="M16.3225 7.65084C21.1165 7.9551 25.9104 8.20201 29.0069 8.20201C32.1034 8.20201 36.8974 7.95948 41.6913 7.65084L41.9943 0.458782C37.9132 0.401457 33.3865 0.375 29.0069 0.375C24.6273 0.375 20.0962 0.401457 16.0195 0.458782L16.3225 7.65084Z" fill="white"/>
<path d="M0.19503 6.44422C0.31978 6.45308 7.80477 7.09247 15.5304 7.59954L15.2319 0.464844C8.41518 0.561854 3.01082 0.738238 1.96381 0.985174C0.257405 1.38645 0.0212709 2.71373 0.00344946 3.59565C-0.00546126 4.01456 -0.00546126 5.15223 0.110378 6.43103L0.19503 6.44422Z" fill="white"/>
<path d="M42.4805 7.59854C50.206 7.09586 57.6911 6.45647 57.8159 6.44323L57.9048 6.43442C58.0208 5.16004 58.0208 4.02237 58.0075 3.60346C57.9898 2.72154 57.7535 1.39426 56.0468 0.992987C54.9955 0.74605 49.5958 0.569667 42.779 0.472656L42.4805 7.59854Z" fill="white"/>
<path d="M42.431 8.38235L41.7939 15.8169C45.7102 15.129 49.2524 14.3926 50.7135 14.009C53.9348 13.1624 55.9132 12.2408 56.9645 10.3975C57.4145 9.60821 57.6729 8.40441 57.8243 7.22266C57.0849 7.28881 49.8626 7.89734 42.431 8.38235Z" fill="white"/>
<path d="M41.6389 8.4375C36.8627 8.74176 32.0954 8.98429 29.0079 8.98429C25.9203 8.98429 21.1531 8.74176 16.377 8.4375L17.023 15.9603C21.5273 16.7363 26.3614 17.4154 29.0079 17.4154C31.6544 17.4154 36.4884 16.7363 40.9928 15.9603L41.6389 8.4375Z" fill="white"/>
<path d="M15.5792 8.38188C8.14768 7.89681 0.925563 7.28829 0.19043 7.22656C0.337456 8.40831 0.600321 9.61212 1.05031 10.4014C2.09732 12.2446 4.07996 13.1663 7.30116 14.0129C8.76252 14.3965 12.3045 15.1285 16.2208 15.8208L15.5792 8.38188Z" fill="white"/>
<path d="M65.3947 12.3664C64.6239 12.3664 64 11.749 64 10.9862V5.40362C64 4.64078 64.6239 4.02344 65.3947 4.02344H75.0671V5.45215H65.5908V10.9332H73.4719V8.91367H67.7735V7.47172H75.0671V12.3664H65.3947Z" fill="white"/>
<path d="M78.8493 12.3664C78.0785 12.3664 77.4551 11.749 77.4551 10.9862V4.02344H88.2102V5.45215H79.0454V7.47172H87.9562V8.90924H79.0454V10.9289H88.2102V12.3664H78.8493Z" fill="white"/>
<path d="M104.789 12.3674C104.018 12.3674 103.395 11.7456 103.395 10.9872V4.01562H104.985V10.9298H112.911V12.3674H104.789Z" fill="white"/>
<path d="M91.7917 12.3664C91.0214 12.3664 90.3975 11.749 90.3975 10.9862V4.02344H101.153V5.45215H91.9877V7.47172H100.899V8.90924H91.9877V10.9289H101.153V12.3664H91.7917Z" fill="white"/>
<path d="M115.196 12.3674V9.17043L109.983 4.01562H112.037L115.994 7.92695L119.946 4.01562H122L116.787 9.17043V12.3674H115.196Z" fill="white"/>
</svg>
