<svg width="40" height="40" viewBox="0 0 40 40" fill="none" xmlns="http://www.w3.org/2000/svg">
<path d="M24.7104 8.54183C26.379 8.86738 27.9125 9.68344 29.1146 10.8856C30.3167 12.0877 31.1328 13.6212 31.4583 15.2897M24.7104 1.7085C28.1771 2.09362 31.4098 3.64604 33.8777 6.11088C36.3457 8.57572 37.9022 11.8065 38.2917 15.2727M36.5833 28.9052V34.0302C36.5853 34.5059 36.4878 34.9769 36.2972 35.4128C36.1066 35.8487 35.827 36.24 35.4765 36.5617C35.1259 36.8833 34.712 37.1282 34.2613 37.2806C33.8106 37.433 33.333 37.4897 32.8592 37.4468C27.6023 36.8756 22.5528 35.0793 18.1162 32.2022C13.9886 29.5794 10.4891 26.0799 7.86624 21.9522C4.97912 17.4956 3.1824 12.4214 2.62165 7.141C2.57896 6.66859 2.63511 6.19246 2.78651 5.74294C2.93791 5.29341 3.18125 4.88034 3.50105 4.53002C3.82084 4.17969 4.21007 3.89979 4.64396 3.70814C5.07786 3.51648 5.5469 3.41728 6.02124 3.41683H11.1462C11.9753 3.40867 12.779 3.70226 13.4077 4.24286C14.0363 4.78347 14.4469 5.53422 14.5629 6.35516C14.7792 7.99528 15.1804 9.60566 15.7587 11.1556C15.9886 11.767 16.0383 12.4316 15.9021 13.0704C15.7658 13.7093 15.4493 14.2957 14.99 14.7602L12.8204 16.9297C15.2523 21.2066 18.7935 24.7478 23.0704 27.1797L25.24 25.0102C25.7045 24.5509 26.2909 24.2343 26.9297 24.0981C27.5686 23.9618 28.2331 24.0116 28.8446 24.2414C30.3945 24.8198 32.0049 25.2209 33.645 25.4372C34.4748 25.5543 35.2327 25.9723 35.7745 26.6117C36.3162 27.2511 36.6041 28.0674 36.5833 28.9052Z" stroke="#192A31" stroke-width="4" stroke-linecap="round" stroke-linejoin="round"/>
</svg>
