<svg width="27" height="26" viewBox="0 0 27 26" fill="none" xmlns="http://www.w3.org/2000/svg">
<path d="M26.0394 12.7298C26.0394 5.7104 20.3287 0 13.3091 0C6.28973 0 0.579102 5.7104 0.579102 12.7298C0.579102 19.7489 6.28973 25.4593 13.3091 25.4593C20.3287 25.4593 26.0394 19.7489 26.0394 12.7298Z" fill="#4C5865"/>
<path d="M15.4365 14.5105H8.10474V12.9745H15.4365C16.1133 12.9745 16.6726 12.8582 17.1144 12.6254C17.5562 12.3881 17.8852 12.0669 18.1014 11.662C18.3176 11.2524 18.4257 10.7869 18.4257 10.2656C18.4257 9.74427 18.3176 9.28115 18.1014 8.8762C17.8852 8.4666 17.5562 8.14543 17.1144 7.91271C16.6726 7.67532 16.1133 7.55663 15.4365 7.55663H12.1372V20.3194H10.3889V6.02063H15.4365C16.5081 6.02063 17.3917 6.21379 18.0873 6.60012C18.7829 6.98645 19.2998 7.50078 19.6382 8.14311C19.9766 8.78544 20.1458 9.49293 20.1458 10.2656C20.1458 11.0382 19.9766 11.7457 19.6382 12.3881C19.2998 13.0304 18.7829 13.5447 18.0873 13.931C17.3917 14.3174 16.5081 14.5105 15.4365 14.5105ZM15.3238 15.8511V17.3871H8.10474V15.8511H15.3238Z" fill="white"/>
</svg>
