<svg width="26" height="27" viewBox="0 0 26 27" fill="none" xmlns="http://www.w3.org/2000/svg">
<path d="M25.3047 14.6523L24.9171 14.1233C24.4981 13.5471 24.4876 12.7666 24.9014 12.18L25.2786 11.6457C25.8547 10.8286 25.5876 9.69198 24.7024 9.21529L24.1262 8.90629C23.4976 8.57105 23.1519 7.8691 23.2724 7.16199L23.3824 6.51773C23.55 5.53298 22.8114 4.62158 21.811 4.57967L21.1562 4.55348C20.4438 4.52205 19.8258 4.04016 19.6267 3.35398L19.4434 2.72542C19.1658 1.76163 18.1077 1.26402 17.1859 1.66211L16.5835 1.91877C15.9287 2.20162 15.164 2.034 14.6873 1.49973L14.2526 1.0126C13.5873 0.2688 12.4192 0.274038 11.7593 1.03355L11.3298 1.52592C10.8583 2.06543 10.0988 2.24353 9.43885 1.97115L8.83125 1.71973C7.90411 1.33735 6.85652 1.85592 6.58939 2.81971L6.41653 3.4535C6.22794 4.14491 5.62034 4.63729 4.90797 4.67396L4.25322 4.71062C3.25276 4.76824 2.52992 5.69013 2.71325 6.67489L2.83372 7.31914C2.96467 8.02102 2.62944 8.72814 2.00612 9.07384L1.43518 9.39338C0.560431 9.88053 0.309007 11.0224 0.900901 11.829L1.28851 12.3581C1.70755 12.9343 1.71803 13.7147 1.30423 14.3014L0.92709 14.8356C0.350911 15.6528 0.618048 16.7894 1.50327 17.2661L2.07945 17.5751C2.70801 17.9104 3.05372 18.6123 2.93324 19.3194L2.82324 19.9637C2.65563 20.9484 3.39418 21.8598 4.39464 21.9017L5.04939 21.9279C5.76176 21.9593 6.37984 22.4413 6.57886 23.1274L6.76224 23.756C7.03984 24.7198 8.0979 25.2174 9.0198 24.8193L9.62217 24.5626C10.2769 24.2798 11.0416 24.4474 11.5183 24.9817L11.9531 25.4688C12.6236 26.2126 13.7916 26.2073 14.4464 25.4479L14.8759 24.9555C15.3473 24.416 16.1068 24.2378 16.7668 24.5103L17.3744 24.7617C18.3015 25.144 19.3491 24.6255 19.6163 23.6617L19.7891 23.0279C19.9777 22.3365 20.5853 21.8441 21.2976 21.8074L21.9524 21.7708C22.9529 21.7131 23.6757 20.7912 23.4924 19.8065L23.3719 19.1623C23.241 18.4603 23.5762 17.7532 24.1995 17.4075L24.7705 17.088C25.6452 16.6061 25.8966 15.4642 25.3047 14.6523Z" fill="#4C5865"/>
<path d="M10.7233 18.6443L6.32178 14.1591L7.65599 12.7997L10.7233 15.9255L18.3871 8.11615L19.7213 9.47544L10.7233 18.6443Z" fill="white"/>
</svg>
