<svg width="26" height="26" viewBox="0 0 26 26" fill="none" xmlns="http://www.w3.org/2000/svg">
<path d="M2.06101 24.597C2.06101 25.1434 2.50249 25.5849 3.04894 25.5849H11.8786V13.9767H2.06101V24.597ZM13.978 25.5849H22.8077C23.3541 25.5849 23.7956 25.1434 23.7956 24.597V13.9767H13.978V25.5849ZM24.2896 6.56717H19.7327C20.1526 5.90649 20.3996 5.12231 20.3996 4.28257C20.3996 1.93313 18.4885 0.0220947 16.1391 0.0220947C14.8609 0.0220947 13.7094 0.590158 12.9283 1.48547C12.1472 0.590158 10.9956 0.0220947 9.71751 0.0220947C7.36807 0.0220947 5.45703 1.93313 5.45703 4.28257C5.45703 5.12231 5.70093 5.90649 6.12389 6.56717H1.56704C1.02059 6.56717 0.579102 7.00865 0.579102 7.5551V11.8773H11.8786V6.56717H13.978V11.8773H25.2775V7.5551C25.2775 7.00865 24.836 6.56717 24.2896 6.56717ZM11.8786 6.44368H9.71751C8.52581 6.44368 7.5564 5.47426 7.5564 4.28257C7.5564 3.09087 8.52581 2.12146 9.71751 2.12146C10.9092 2.12146 11.8786 3.09087 11.8786 4.28257V6.44368ZM16.1391 6.44368H13.978V4.28257C13.978 3.09087 14.9474 2.12146 16.1391 2.12146C17.3308 2.12146 18.3002 3.09087 18.3002 4.28257C18.3002 5.47426 17.3308 6.44368 16.1391 6.44368Z" fill="#4C5865"/>
</svg>
