<svg width="17" height="21" viewBox="0 0 17 21" fill="none" xmlns="http://www.w3.org/2000/svg">
<path d="M0.890911 19.2859C3.16678 20.4289 5.83304 21.0001 8.49998 21.0001C11.1663 20.9995 13.8338 20.4283 16.109 19.2859C16.3932 19.1436 16.6287 18.9231 16.7864 18.6514C16.9441 18.3798 17.0172 18.0689 16.9966 17.7571C16.9689 17.3335 16.771 16.9378 16.4462 16.6566C17.0689 14.3394 16.3665 11.6193 14.3965 8.90963C13.682 7.92657 12.8087 6.96859 11.9494 6.14418H8.50002C7.51586 6.14418 6.60368 5.87462 5.79702 5.4397C4.72833 6.38818 3.56559 7.61077 2.66114 8.85503C0.660521 11.6072 -0.0615298 14.346 0.554448 16.6566C0.393163 16.7956 0.261468 16.9643 0.166911 17.1531C0.0723534 17.3419 0.0167921 17.5472 0.00341133 17.7571C-0.0171914 18.0689 0.05586 18.3797 0.213561 18.6514C0.371262 18.9231 0.60672 19.1436 0.890911 19.2859Z" fill="#BF906C"/>
<path d="M12.2659 0H11.0106C10.1071 0 9.23311 0.270585 8.50001 0.771C7.76695 0.270585 6.89289 0 5.9894 0H4.7341C4.38717 0 4.10645 0.274804 4.10645 0.614408C4.10645 2.98565 6.07765 4.91526 8.50001 4.91526H12.2659C13.3042 4.91526 14.1489 5.74209 14.1489 6.75848C14.1489 7.09809 14.4296 7.37289 14.7765 7.37289C15.1235 7.37289 15.4042 7.09809 15.4042 6.75848C15.4042 5.06464 13.9963 3.68645 12.2659 3.68645H11.5651C12.3824 2.90492 12.8936 1.81832 12.8936 0.614408C12.8936 0.274804 12.6128 0 12.2659 0Z" fill="#BF906C"/>
</svg>
