<svg width="21" height="21" viewBox="0 0 21 21" fill="none" xmlns="http://www.w3.org/2000/svg">
<path d="M16.3983 7.71775C16.6519 7.71775 16.8966 7.75638 17.127 7.82791L19.2262 5.72869L18.2479 4.75031L15.2804 7.71775H16.3983ZM20.6396 7.14213L20.0963 6.59876L18.1952 8.49983C18.6066 8.93989 18.8592 9.53019 18.8592 10.1787V10.6627L20.6396 8.88226C21.1202 8.40176 21.1202 7.62267 20.6396 7.14213ZM17.3778 3.88028L13.8579 0.360404C13.3774 -0.120135 12.5983 -0.120135 12.1178 0.360404L4.7604 7.71779H13.5403L17.3778 3.88028ZM3.22937 12.8487H5.10387V14.2323H3.22937V12.8487Z" fill="#BF906C"/>
<path d="M16.3982 8.94824H1.23047C0.550881 8.94824 0 9.49912 0 10.1787V19.7695C0 20.4491 0.550881 21 1.23047 21H16.3982C17.0778 21 17.6287 20.4491 17.6287 19.7695V10.1787C17.6287 9.49912 17.0778 8.94824 16.3982 8.94824ZM1.99886 11.6182H6.33429V15.4628H1.99886V11.6182ZM4.39257 18.33H1.96059V17.0995H4.39257V18.33ZM8.15104 18.33H5.71905V17.0995H8.15104V18.33ZM11.9096 18.33H9.4776V17.0995H11.9096V18.33ZM15.6681 18.33H13.2361V17.0995H15.6681V18.33Z" fill="#BF906C"/>
</svg>
