<svg width="20" height="20" viewBox="0 0 20 20" fill="none" xmlns="http://www.w3.org/2000/svg">
<path d="M18.6956 3.88485H17.2398C17.4318 3.58041 17.5586 3.23868 17.5947 2.87726C17.7101 1.72223 17.1029 0.686829 16.0691 0.227784C15.1189 -0.194166 14.051 -0.0216763 13.2821 0.676968L11.4438 2.3459C11.0858 1.95366 10.5712 1.70713 9.99998 1.70713C9.42779 1.70713 8.91233 1.95444 8.55424 2.3479L6.71362 0.676773C5.94343 -0.0218719 4.87601 -0.193696 3.9262 0.228018C2.89269 0.687103 2.28535 1.72286 2.40113 2.87785C2.43734 3.23899 2.56398 3.58056 2.75597 3.88485H1.30433C0.583944 3.88485 0 4.46986 0 5.19147V7.15142C0 7.51221 0.291992 7.80475 0.652186 7.80475H19.3478C19.708 7.80475 20 7.51225 20 7.15142V5.19147C20 4.46986 19.416 3.88485 18.6956 3.88485ZM8.04346 3.66708V3.88485H4.97538C4.16476 3.88485 3.52679 3.12782 3.72925 2.28236C3.81843 1.91002 4.08671 1.59263 4.4337 1.43196C4.91019 1.21134 5.438 1.28217 5.83819 1.64503L8.04401 3.64783C8.04389 3.65429 8.04346 3.66063 8.04346 3.66708ZM16.3005 2.7038C16.2519 3.38284 15.6396 3.88493 14.96 3.88493H11.9565V3.66716C11.9565 3.65945 11.956 3.65182 11.956 3.64411L14.1276 1.67226C14.4617 1.36888 14.9293 1.22727 15.3615 1.3564C15.9816 1.54172 16.3459 2.07007 16.3005 2.7038ZM1.30433 9.11138V18.6934C1.30433 19.415 1.88828 20 2.60867 20H8.69561V9.11138H1.30433ZM11.3043 9.11138V20H17.3913C18.1116 20 18.6956 19.415 18.6956 18.6934V9.11138H11.3043Z" fill="#BF906C"/>
</svg>
