<svg width="21" height="21" viewBox="0 0 21 21" fill="none" xmlns="http://www.w3.org/2000/svg">
<path d="M19.9875 10.772C19.9441 10.6874 19.9215 10.5943 19.9215 10.5C19.9215 10.4057 19.9441 10.3126 19.9875 10.228L20.8038 8.62577C21.2582 7.73365 20.8981 6.67033 19.984 6.20493L18.3422 5.36904C18.2552 5.3251 18.1799 5.26256 18.1221 5.18626C18.0643 5.10996 18.0256 5.02194 18.0089 4.92899L17.6878 3.17235C17.509 2.19431 16.5662 1.53708 15.5417 1.67616L13.7014 1.92594C13.6041 1.93944 13.5049 1.9313 13.4114 1.90214C13.3179 1.87299 13.2327 1.82362 13.1622 1.75782L11.8264 0.517852C11.0826 -0.172597 9.91739 -0.172638 9.17362 0.517852L7.83776 1.75795C7.76732 1.82372 7.68207 1.87309 7.58859 1.90224C7.49511 1.93139 7.3959 1.93954 7.29862 1.92607L5.45832 1.67628C4.43351 1.53712 3.49098 2.19443 3.31218 3.17248L2.99108 4.92903C2.97439 5.02198 2.93566 5.11 2.87789 5.18631C2.82012 5.26262 2.74485 5.32516 2.65788 5.36912L1.01605 6.20501C0.101904 6.67037 -0.258179 7.73377 0.196285 8.62589L1.0125 10.2281C1.05595 10.3127 1.07854 10.4058 1.07854 10.5001C1.07854 10.5944 1.05595 10.6875 1.0125 10.7721L0.196242 12.3743C-0.258222 13.2664 0.101861 14.3297 1.01601 14.7951L2.65784 15.631C2.74481 15.675 2.8201 15.7375 2.87788 15.8138C2.93566 15.8901 2.97439 15.9781 2.99108 16.0711L3.31218 17.8277C3.47495 18.7181 4.27061 19.3425 5.18505 19.3424C5.27511 19.3424 5.3665 19.3363 5.45836 19.3239L7.29866 19.0741C7.39594 19.0606 7.49516 19.0687 7.58865 19.0979C7.68213 19.127 7.76738 19.1764 7.8378 19.2422L9.17362 20.4822C9.54559 20.8274 10.0227 21 10.5 21C10.9772 21 11.4546 20.8274 11.8264 20.4822L13.1622 19.2422C13.3064 19.1085 13.5028 19.0473 13.7014 19.0741L15.5417 19.3239C16.5666 19.463 17.509 18.8057 17.6878 17.8277L18.009 16.0711C18.0257 15.9782 18.0644 15.8902 18.1221 15.8138C18.1799 15.7375 18.2552 15.675 18.3422 15.631L19.984 14.7951C20.8981 14.3298 21.2582 13.2664 20.8038 12.3743L19.9875 10.772ZM7.97544 5.0497C9.25146 5.0497 10.2896 6.04583 10.2896 7.27022C10.2896 8.4946 9.25146 9.49074 7.97544 9.49074C6.69942 9.49074 5.66127 8.4946 5.66127 7.27022C5.66127 6.04583 6.69942 5.0497 7.97544 5.0497ZM6.78097 14.9249C6.65774 15.0432 6.49621 15.1023 6.33472 15.1023C6.17323 15.1023 6.01165 15.0432 5.88846 14.9249C5.64199 14.6884 5.64199 14.305 5.88846 14.0685L14.219 6.07508C14.4654 5.83858 14.8651 5.83858 15.1115 6.07508C15.358 6.31157 15.358 6.69502 15.1115 6.93151L6.78097 14.9249ZM13.0245 15.9504C11.7485 15.9504 10.7103 14.9542 10.7103 13.7299C10.7103 12.5055 11.7485 11.5093 13.0245 11.5093C14.3005 11.5093 15.3386 12.5055 15.3386 13.7299C15.3386 14.9542 14.3005 15.9504 13.0245 15.9504Z" fill="#BF906C"/>
<path d="M13.0244 12.7204C12.4444 12.7204 11.9725 13.1732 11.9725 13.7297C11.9725 14.2863 12.4443 14.739 13.0244 14.739C13.6044 14.739 14.0762 14.2863 14.0762 13.7297C14.0762 13.1732 13.6044 12.7204 13.0244 12.7204ZM7.97533 6.26074C7.39532 6.26074 6.92346 6.71351 6.92346 7.27004C6.92346 7.82658 7.39532 8.27939 7.97533 8.27939C8.55534 8.27939 9.02724 7.82662 9.02724 7.27004C9.0272 6.71355 8.55534 6.26074 7.97533 6.26074Z" fill="#BF906C"/>
</svg>
