<svg width="18" height="18" viewBox="0 0 18 18" fill="none" xmlns="http://www.w3.org/2000/svg">
<path d="M18 9.00044C18.0022 10.1828 17.7709 11.354 17.3195 12.4468C16.868 13.5396 16.2052 14.5325 15.3692 15.3687C14.5331 16.2048 13.5402 16.8676 12.4473 17.3191C11.3545 17.7707 10.1833 18.002 9.00088 18C7.81803 18.0032 6.64621 17.7727 5.55277 17.3215C4.45933 16.8704 3.46584 16.2077 2.6294 15.3714C1.79296 14.535 1.13006 13.5417 0.678826 12.4483C0.227589 11.355 -0.00309563 10.1832 3.37596e-05 9.00044C-0.00320958 7.81788 0.227273 6.64633 0.678239 5.55311C1.1292 4.4599 1.79176 3.46657 2.62784 2.63021C3.46392 1.79384 4.45704 1.13093 5.55014 0.679555C6.64323 0.228184 7.81474 -0.00274529 8.99737 3.62247e-05C10.1804 -0.00332438 11.3524 0.227172 12.4461 0.678272C13.5397 1.12937 14.5334 1.79218 15.37 2.62859C16.2067 3.465 16.8697 4.45852 17.321 5.55203C17.7724 6.64554 18.0031 7.81746 18 9.00044ZM8.99649 16.8222C13.3212 16.7476 16.7888 13.4436 16.8055 9.01274C16.8213 4.74352 13.4916 1.2173 9.01844 1.19623C4.66909 1.17515 1.19101 4.58279 1.1954 9.00659C1.19892 13.3917 4.62957 16.7397 8.99649 16.8222Z" fill="#B3DAFF"/>
<path d="M14.0868 7.24318C14.1166 7.75054 13.8366 8.14813 13.4842 8.51115L11.3564 10.6988C10.6868 11.3902 10.0172 12.0817 9.34765 12.7731C8.63184 13.513 7.66749 13.5311 6.94572 12.8077C6.22395 12.0843 5.49878 11.3479 4.78466 10.6106C4.10971 9.91481 4.09013 8.91824 4.72849 8.26222C5.36685 7.6062 6.34566 7.61743 7.03764 8.2942C7.32788 8.57856 7.62068 8.86293 7.88879 9.1663C8.07264 9.37461 8.1918 9.33917 8.37054 9.15593C9.34425 8.13257 10.3282 7.12045 11.3121 6.10487C11.7011 5.70296 12.1632 5.50935 12.7207 5.59405C13.5446 5.71851 14.0885 6.36676 14.0868 7.24318ZM8.12881 12.2165C8.3399 12.2321 8.47863 12.0981 8.61482 11.9572C9.45518 11.0871 10.2955 10.2176 11.1359 9.34868C11.6943 8.77131 12.2586 8.20085 12.811 7.62003C13.0825 7.33394 13.0833 7.04871 12.8433 6.82399C12.6203 6.61569 12.3564 6.64334 12.0858 6.90437C12.016 6.97179 11.9505 7.04179 11.8832 7.11094C10.8119 8.219 9.74032 9.32649 8.66844 10.4334C8.26159 10.8517 8.00625 10.8457 7.59344 10.4282C7.15681 9.98655 6.72612 9.53969 6.28608 9.10235C6.02137 8.83873 5.74986 8.82403 5.52686 9.04098C5.30386 9.25792 5.30301 9.55957 5.57283 9.83443C6.28183 10.5639 6.99679 11.2865 7.7092 12.0108C7.8207 12.1249 7.94667 12.2217 8.12541 12.2148L8.12881 12.2165Z" fill="#B3DAFF"/>
</svg>
