<svg width="11" height="9" viewBox="0 0 11 9" fill="none" xmlns="http://www.w3.org/2000/svg">
<path d="M10.748 0.260447C10.6753 0.17792 10.5887 0.112417 10.4933 0.0677155C10.3979 0.0230142 10.2956 0 10.1923 0C10.089 0 9.98667 0.0230142 9.89129 0.0677155C9.79591 0.112417 9.70935 0.17792 9.63658 0.260447L3.80544 6.82889L1.35558 4.06416C1.28003 3.98206 1.19085 3.91751 1.09313 3.87419C0.995402 3.83086 0.891049 3.80962 0.786026 3.81166C0.681002 3.81371 0.577365 3.839 0.481031 3.8861C0.384697 3.9332 0.297553 4.00118 0.224575 4.08617C0.151597 4.17116 0.0942139 4.27148 0.0557018 4.38141C0.0171897 4.49135 -0.00169733 4.60874 0.00011969 4.72688C0.00193671 4.84503 0.0244221 4.96161 0.0662916 5.06998C0.108161 5.17835 0.168595 5.27638 0.244143 5.35848L3.24972 8.73955C3.32249 8.82208 3.40905 8.88758 3.50443 8.93229C3.59981 8.97699 3.70212 9 3.80544 9C3.90877 9 4.01107 8.97699 4.10645 8.93229C4.20183 8.88758 4.2884 8.82208 4.36116 8.73955L10.748 1.55477C10.8275 1.47231 10.8909 1.37225 10.9342 1.26086C10.9776 1.14948 11 1.0292 11 0.907606C11 0.786009 10.9776 0.66573 10.9342 0.554349C10.8909 0.442967 10.8275 0.342898 10.748 0.260447Z" fill="#192A31"/>
</svg>
