<svg width="4" height="4" viewBox="0 0 4 4" fill="none" xmlns="http://www.w3.org/2000/svg">
<rect width="4" height="4" rx="1" fill="#192A31"/>
<path d="M3.93128 0.0868157C3.91143 0.0593067 3.88783 0.0374722 3.86181 0.0225718C3.8358 0.00767141 3.8079 0 3.77972 0C3.75154 0 3.72364 0.00767141 3.69763 0.0225718C3.67161 0.0374722 3.648 0.0593067 3.62816 0.0868157L2.03785 2.2763L1.3697 1.35472C1.3491 1.32735 1.32478 1.30584 1.29813 1.2914C1.27147 1.27695 1.24301 1.26987 1.21437 1.27055C1.18573 1.27124 1.15746 1.27967 1.13119 1.29537C1.10492 1.31107 1.08115 1.33373 1.06125 1.36206C1.04134 1.39039 1.02569 1.42383 1.01519 1.46047C1.00469 1.49712 0.999537 1.53625 1.00003 1.57563C1.00053 1.61501 1.00666 1.65387 1.01808 1.68999C1.0295 1.72612 1.04598 1.75879 1.06658 1.78616L1.88629 2.91318C1.90613 2.94069 1.92974 2.96253 1.95575 2.97743C1.98177 2.99233 2.00967 3 2.03785 3C2.06603 3 2.09393 2.99233 2.11994 2.97743C2.14595 2.96253 2.16956 2.94069 2.18941 2.91318L3.93128 0.518255C3.95295 0.490772 3.97024 0.457415 3.98207 0.420288C3.99389 0.383161 4 0.343068 4 0.302535C4 0.262003 3.99389 0.22191 3.98207 0.184783C3.97024 0.147656 3.95295 0.114299 3.93128 0.0868157Z" fill="white"/>
</svg>
