<svg width="17" height="16" viewBox="0 0 17 16" fill="none" xmlns="http://www.w3.org/2000/svg">
<rect width="17" height="16" rx="3" fill="#192A31"/>
<path d="M14.7251 3.28939C14.6457 3.19769 14.5513 3.12491 14.4472 3.07524C14.3432 3.02557 14.2316 3 14.1189 3C14.0062 3 13.8946 3.02557 13.7905 3.07524C13.6865 3.12491 13.592 3.19769 13.5126 3.28939L7.15139 10.5877L4.47882 7.51573C4.3964 7.42451 4.29911 7.35279 4.1925 7.30465C4.08589 7.25652 3.97205 7.23291 3.85748 7.23518C3.74291 7.23745 3.62985 7.26555 3.52476 7.31789C3.41967 7.37022 3.3246 7.44576 3.24499 7.54019C3.16538 7.63462 3.10278 7.74609 3.06077 7.86824C3.01875 7.99039 2.99815 8.12082 3.00013 8.25209C3.00211 8.38336 3.02664 8.5129 3.07232 8.63331C3.11799 8.75372 3.18392 8.86265 3.26634 8.95386L6.54515 12.7106C6.62453 12.8023 6.71897 12.8751 6.82302 12.9248C6.92707 12.9744 7.03867 13 7.15139 13C7.26411 13 7.37572 12.9744 7.47977 12.9248C7.58382 12.8751 7.67826 12.8023 7.75763 12.7106L14.7251 4.72752C14.8118 4.63591 14.881 4.52472 14.9283 4.40096C14.9756 4.2772 15 4.14356 15 4.00845C15 3.87334 14.9756 3.7397 14.9283 3.61594C14.881 3.49219 14.8118 3.381 14.7251 3.28939Z" fill="white"/>
</svg>
