<svg width="47" height="48" viewBox="0 0 47 48" fill="none" xmlns="http://www.w3.org/2000/svg">
<g filter="url(#filter0_d_33_1354)">
<rect x="14" y="12" width="19" height="20" rx="4" fill="white" shape-rendering="crispEdges"/>
<rect x="14.5" y="12.5" width="18" height="19" rx="3.5" stroke="white" shape-rendering="crispEdges"/>
<path d="M26.2751 18.5652C26.4138 18.4288 26.6022 18.3514 26.7992 18.35C26.9962 18.3486 27.1858 18.4233 27.3265 18.5577C27.4672 18.6921 27.5476 18.8754 27.5502 19.0674C27.5527 19.2594 27.4771 19.4446 27.34 19.5825L23.3721 24.4178C23.304 24.4894 23.2217 24.5468 23.1303 24.5867C23.0388 24.6266 22.9401 24.648 22.84 24.6499C22.7398 24.6517 22.6403 24.6338 22.5474 24.5974C22.4545 24.5609 22.3701 24.5065 22.2992 24.4376L19.6685 21.8741C19.5287 21.7378 19.4501 21.5529 19.4502 21.3601C19.4502 21.1674 19.5288 20.9825 19.6687 20.8462C19.8086 20.71 19.9982 20.6334 20.196 20.6335C20.3937 20.6335 20.5834 20.7101 20.7232 20.8465L22.84 22.8239L26.2554 18.5879C26.2617 18.5801 26.2684 18.5727 26.2756 18.5657L26.2751 18.5652Z" fill="#38AB96"/>
<path fill-rule="evenodd" clip-rule="evenodd" d="M27.3265 18.5577C27.1858 18.4233 26.9962 18.3486 26.7992 18.35C26.7559 18.3503 26.7129 18.3543 26.6708 18.3618C26.5795 18.3781 26.4922 18.4108 26.4134 18.4582C26.4117 18.4592 26.4099 18.4602 26.4082 18.4613C26.3603 18.4906 26.3156 18.5254 26.2751 18.5652L26.2756 18.5657C26.2684 18.5727 26.2617 18.5801 26.2554 18.5879L22.84 22.8239L20.7232 20.8465C20.5834 20.7101 20.3937 20.6335 20.196 20.6335C19.9982 20.6334 19.8086 20.71 19.6687 20.8462C19.5288 20.9825 19.4502 21.1674 19.4502 21.3601C19.4501 21.5529 19.5287 21.7378 19.6685 21.8741L22.2992 24.4376C22.3701 24.5065 22.4545 24.5609 22.5474 24.5974C22.6403 24.6338 22.7398 24.6517 22.84 24.6499C22.9401 24.648 23.0388 24.6266 23.1303 24.5867C23.2217 24.5468 23.304 24.4894 23.3721 24.4178L27.34 19.5825C27.4771 19.4446 27.5527 19.2594 27.5502 19.0674C27.5476 18.8754 27.4672 18.6921 27.3265 18.5577ZM23.018 24.1743L26.9867 19.3379L27.0005 19.3241C27.0613 19.2629 27.1015 19.1728 27.1002 19.0719C27.0988 18.9711 27.0563 18.8825 26.9947 18.8236C26.9345 18.7662 26.8644 18.7433 26.8029 18.7438C26.7474 18.7442 26.6849 18.7636 26.6294 18.8105L26.617 18.8225L22.8892 23.4458L20.3914 21.1126L20.3882 21.1094C20.3281 21.0508 20.2576 21.0272 20.1959 21.0272C20.1341 21.0272 20.0636 21.0507 20.0035 21.1093C19.9419 21.1693 19.9002 21.259 19.9002 21.3602C19.9002 21.4614 19.9418 21.551 20.0033 21.6111L22.6338 24.1743C22.6338 24.1743 22.6338 24.1743 22.6338 24.1743C22.6645 24.2042 22.6983 24.2251 22.7316 24.2382C22.7647 24.2511 22.7982 24.2568 22.8305 24.2562C22.8628 24.2556 22.8964 24.2487 22.9296 24.2342C22.9598 24.2211 22.9902 24.2013 23.018 24.1743Z" fill="#38AB96"/>
</g>
<defs>
<filter id="filter0_d_33_1354" x="0" y="0" width="47" height="48" filterUnits="userSpaceOnUse" color-interpolation-filters="sRGB">
<feFlood flood-opacity="0" result="BackgroundImageFix"/>
<feColorMatrix in="SourceAlpha" type="matrix" values="0 0 0 0 0 0 0 0 0 0 0 0 0 0 0 0 0 0 127 0" result="hardAlpha"/>
<feOffset dy="2"/>
<feGaussianBlur stdDeviation="7"/>
<feComposite in2="hardAlpha" operator="out"/>
<feColorMatrix type="matrix" values="0 0 0 0 0 0 0 0 0 0 0 0 0 0 0 0 0 0 0.1 0"/>
<feBlend mode="normal" in2="BackgroundImageFix" result="effect1_dropShadow_33_1354"/>
<feBlend mode="normal" in="SourceGraphic" in2="effect1_dropShadow_33_1354" result="shape"/>
</filter>
</defs>
</svg>
