<svg width="9" height="9" viewBox="0 0 9 9" fill="none" xmlns="http://www.w3.org/2000/svg">
<path d="M7.27512 1.56524C7.41377 1.42881 7.60223 1.35144 7.79919 1.35002C7.99625 1.34861 8.18579 1.42327 8.3265 1.55769C8.46722 1.69212 8.54763 1.87537 8.55015 2.0674C8.55267 2.25944 8.47712 2.44464 8.33996 2.58253L4.37212 7.41785C4.30396 7.4894 4.2217 7.54682 4.13026 7.58669C4.03883 7.62656 3.94009 7.64802 3.83995 7.64987C3.7398 7.65171 3.64031 7.63385 3.54739 7.5974C3.45449 7.5609 3.37006 7.50654 3.29918 7.43756L0.668454 4.87413C0.528657 4.73778 0.450148 4.55292 0.450195 4.36014C0.450245 4.16737 0.528846 3.98252 0.668706 3.84624C0.808571 3.70996 0.998241 3.63344 1.19599 3.63348C1.39374 3.63353 1.58338 3.71015 1.72317 3.84649L3.83995 5.82386L7.25537 1.58793C7.26167 1.58013 7.26842 1.57272 7.27562 1.56573L7.27512 1.56524Z" fill="#38AB96"/>
<path fill-rule="evenodd" clip-rule="evenodd" d="M8.3265 1.55769C8.18579 1.42327 7.99625 1.34861 7.79919 1.35002C7.75586 1.35033 7.71288 1.35432 7.67081 1.36182C7.57946 1.37808 7.49216 1.41082 7.41336 1.45819C7.41165 1.45922 7.40994 1.46025 7.40823 1.46128C7.36031 1.49062 7.31562 1.52541 7.27512 1.56524L7.27562 1.56573C7.26842 1.57272 7.26167 1.58013 7.25537 1.58793L3.83995 5.82386L1.72317 3.84649C1.58338 3.71015 1.39374 3.63353 1.19599 3.63348C0.998241 3.63344 0.808571 3.70996 0.668706 3.84624C0.528846 3.98252 0.450245 4.16737 0.450195 4.36014C0.450148 4.55292 0.528657 4.73778 0.668454 4.87413L3.29918 7.43756C3.37006 7.50654 3.45449 7.5609 3.54739 7.5974C3.64031 7.63385 3.7398 7.65171 3.83995 7.64987C3.94009 7.64802 4.03883 7.62656 4.13026 7.58669C4.2217 7.54682 4.30396 7.4894 4.37212 7.41785L8.33996 2.58253C8.47712 2.44464 8.55267 2.25944 8.55015 2.0674C8.54763 1.87537 8.46722 1.69212 8.3265 1.55769ZM4.018 7.17426L7.98671 2.33793L8.00048 2.32406C8.06127 2.26295 8.1015 2.17275 8.10015 2.07192C8.09885 1.97111 8.05632 1.88253 7.99467 1.82364C7.9345 1.76615 7.8644 1.74331 7.80293 1.74375C7.7474 1.74416 7.68489 1.76362 7.62936 1.81053L7.61699 1.82248L3.88918 6.44584L1.39144 4.11258L1.38822 4.10943C1.3281 4.05081 1.25763 4.02725 1.19588 4.02723C1.13411 4.02722 1.06364 4.05074 1.00352 4.10932C0.941942 4.16933 0.900222 4.25898 0.900195 4.36023C0.900168 4.46139 0.941793 4.55103 1.00328 4.61106L3.63381 7.1743C3.6338 7.1743 3.63382 7.1743 3.63381 7.1743C3.6645 7.20419 3.6983 7.22507 3.73161 7.23816C3.76473 7.25112 3.79816 7.25679 3.83049 7.25621C3.86283 7.25562 3.89639 7.24869 3.92955 7.23424C3.95984 7.22106 3.99023 7.2013 4.018 7.17426Z" fill="#38AB96"/>
</svg>
