<svg width="30" height="40" viewBox="0 0 30 40" fill="none" xmlns="http://www.w3.org/2000/svg">
<g clip-path="url(#clip0_4151_1982)">
<path d="M0.36648 39.9989C0.0884606 39.784 0 39.5029 0 39.1522C0.00631862 28.161 0.00315931 17.1729 0.00315931 6.18165C0.00315931 5.56243 0.107417 5.43606 0.77719 5.27177C7.91723 3.53415 15.0573 1.79653 22.1973 0.0683913C23.5337 -0.253858 24.5826 0.592836 24.5921 1.97345C24.5921 2.10299 24.5921 2.22936 24.5921 2.32414C25.0217 2.35889 25.4293 2.33362 25.8084 2.43155C26.5729 2.62743 27.0721 3.30984 27.1005 4.09967C27.1132 4.48826 27.1005 4.87686 27.1005 5.28125C27.3027 5.32232 27.4828 5.35075 27.6534 5.39814C28.4148 5.60034 28.9298 6.25432 29.0088 7.11997C29.0246 7.28741 29.0182 7.45801 29.0182 7.62861C29.0182 17.6436 29.0119 27.6586 29.0309 37.6705C29.0309 38.8015 28.6676 39.6103 27.5618 40.002H0.36648V39.9989ZM1.23529 38.811C1.32375 38.8173 1.3743 38.8268 1.42485 38.8268C9.95498 38.8268 18.4851 38.8268 27.0152 38.8268C27.5681 38.8268 27.8114 38.5709 27.8114 38.0022C27.8114 27.7818 27.8114 17.5583 27.8114 7.33796C27.8114 6.74717 27.5997 6.53549 27.0184 6.52602C26.4592 6.5197 25.8968 6.53549 25.3377 6.5197C24.9048 6.50706 24.671 6.27643 24.6742 5.91311C24.6774 5.55295 24.9269 5.3318 25.3503 5.316C25.5304 5.30968 25.7073 5.316 25.9284 5.316C25.9284 4.93057 25.9348 4.58304 25.9284 4.23552C25.9158 3.73951 25.5683 3.46465 25.0691 3.53731C24.7469 3.58154 24.4246 3.61945 24.1024 3.66052C22.3079 3.87852 20.5165 4.09335 18.7221 4.3145C16.8644 4.54197 15.0067 4.76628 13.149 4.99375C12.4572 5.07905 11.7653 5.16751 11.0734 5.25597C11.0734 5.27809 11.0765 5.29705 11.0797 5.31916H11.5062C15.1394 5.31916 18.7726 5.31916 22.4058 5.31916C22.5353 5.31916 22.668 5.30652 22.7944 5.3318C23.1135 5.39182 23.322 5.59086 23.3252 5.91311C23.3283 6.2322 23.1419 6.45335 22.8134 6.5039C22.6491 6.52918 22.4753 6.52918 22.3079 6.52918C15.4585 6.52918 8.60911 6.52918 1.75658 6.52918C1.59229 6.52918 1.42485 6.52918 1.24161 6.52918V38.8141L1.23529 38.811ZM11.383 3.91643C11.3893 3.94486 11.3925 3.97645 11.3988 4.00489C15.3858 3.51836 19.3697 3.03498 23.4042 2.54213C23.4042 2.33362 23.4105 2.1409 23.4042 1.95134C23.3789 1.34791 23.0408 1.08885 22.4469 1.23102C19.9005 1.84392 17.3572 2.46631 14.8108 3.08237C13.6672 3.36039 12.5267 3.63841 11.383 3.91327V3.91643Z" fill="white"/>
<path d="M11.3802 19.8047H8.19242C8.2872 20.803 8.59681 21.7003 9.10862 22.5312C9.16233 22.6196 9.22551 22.7049 9.2729 22.7966C9.4435 23.1156 9.37716 23.4505 9.10862 23.6275C8.8148 23.8202 8.49255 23.7507 8.26824 23.4221C7.67113 22.5533 7.26674 21.5992 7.09298 20.5629C6.38529 16.3137 9.05175 12.5225 13.2947 11.7453C17.2407 11.0187 21.3067 13.8999 21.9354 17.8649C22.5957 22.0352 20.0809 25.7442 15.9612 26.594C13.936 27.0111 12.0341 26.6035 10.306 25.4567C9.96795 25.2324 9.88897 24.9165 10.069 24.6195C10.2554 24.3162 10.5903 24.2625 10.9537 24.4584C11.4591 24.7332 11.971 24.9986 12.5049 25.2261C11.7119 23.4884 11.5002 21.6655 11.3802 19.8079V19.8047ZM16.4066 19.8047H12.5712C12.647 20.5345 12.6913 21.2453 12.7987 21.9435C12.9693 23.0398 13.2252 24.114 13.8665 25.046C14.3215 25.7031 14.7511 25.7347 15.1397 25.046C15.5094 24.3888 15.7937 23.6654 16.0149 22.9387C16.3213 21.9309 16.4224 20.882 16.4098 19.8015L16.4066 19.8047ZM16.4224 18.5757C16.3845 17.0435 16.1949 15.5712 15.6073 14.1716C15.4683 13.8399 15.2851 13.5177 15.0671 13.2302C14.6816 12.7152 14.3468 12.7278 13.9424 13.2365C13.8223 13.3881 13.7117 13.5524 13.6233 13.7262C12.8556 15.2458 12.6565 16.8823 12.5997 18.5757H16.4161H16.4224ZM16.4761 25.2071C19.0541 24.452 20.7538 21.8835 20.7981 19.8079H17.6451C17.5282 21.6687 17.3165 23.4821 16.4761 25.2071ZM12.5238 13.2144C10.8399 13.5872 8.4578 15.5839 8.2019 18.5947C8.73266 18.5947 9.26342 18.5947 9.79419 18.5947C10.325 18.5947 10.8526 18.5947 11.3738 18.5947C11.734 15.2521 11.7846 15.0152 12.527 13.2144H12.5238ZM20.8297 18.5726C20.5422 15.4606 18.021 13.4987 16.5014 13.227C17.3165 14.9172 17.5313 16.7244 17.6451 18.5726H20.8297Z" fill="white"/>
<path d="M14.0686 34.3843C13.958 34.5107 13.8348 34.7635 13.6579 34.8108C13.462 34.8646 13.2124 34.735 12.9913 34.6655C12.9439 34.6529 12.8996 34.5644 12.8933 34.5044C12.808 33.8409 12.372 33.7398 11.816 33.8188C11.7275 33.8315 11.6327 33.8346 11.5443 33.8188C11.023 33.7272 10.7071 33.8883 10.5744 34.4475C10.4859 34.8203 10.1289 34.9562 9.80351 34.8393C9.48758 34.7255 9.33593 34.4001 9.47178 34.0337C10.0025 32.6151 10.5459 31.1998 11.0925 29.7844C11.1999 29.5064 11.4211 29.3547 11.7275 29.3516C12.0308 29.3516 12.2646 29.4874 12.372 29.7686C12.9217 31.2092 13.462 32.653 14.0054 34.0968C14.0275 34.1569 14.037 34.2201 14.0749 34.3812L14.0686 34.3843ZM11.7307 31.443C11.5632 31.879 11.4337 32.2234 11.2884 32.6056H12.1635C12.0213 32.2234 11.8918 31.8758 11.7307 31.443Z" fill="white"/>
<path d="M16.5894 29.3469C17.2213 29.3438 17.7394 29.5333 18.2007 29.8777C18.5071 30.1051 18.5735 30.4179 18.3934 30.6959C18.2102 30.9834 17.8816 31.0213 17.5341 30.8665C17.2118 30.7244 16.8643 30.6106 16.5168 30.5632C16.3841 30.5443 16.2198 30.7528 16.0713 30.8571C16.1787 30.9803 16.2609 31.1477 16.3936 31.2141C16.7285 31.3815 17.0918 31.4952 17.4361 31.6437C18.3397 32.0292 18.763 32.7337 18.583 33.5267C18.3966 34.3386 17.5815 34.9199 16.6747 34.882C15.9734 34.8536 15.351 34.6293 14.8487 34.1206C14.5612 33.8268 14.5327 33.5172 14.7634 33.255C14.9972 32.9864 15.3447 32.9738 15.6574 33.255C16.0081 33.5741 16.4094 33.7541 16.8675 33.6562C17.0697 33.612 17.2339 33.3877 17.4172 33.2455C17.2908 33.0844 17.196 32.8632 17.0286 32.7748C16.6653 32.5789 16.264 32.4557 15.8786 32.2945C15.1488 31.9881 14.776 31.4163 14.8676 30.7654C14.975 30.0072 15.5469 29.4606 16.3272 29.369C16.4315 29.3564 16.5357 29.3501 16.5863 29.3438L16.5894 29.3469Z" fill="white"/>
<path d="M21.2782 29.3516C21.9164 29.3516 22.4219 29.538 22.8768 29.8665C23.2022 30.1003 23.2717 30.4257 23.0758 30.7132C22.8831 30.9944 22.5609 31.0228 22.2133 30.8649C21.9037 30.7227 21.5688 30.6058 21.234 30.5711C21.0886 30.5553 20.9212 30.7701 20.7632 30.8807C20.877 31.0007 20.9654 31.1618 21.1044 31.2282C21.4425 31.3925 21.8026 31.5062 22.147 31.6547C23.0284 32.0338 23.4613 32.7447 23.2843 33.5092C23.0916 34.3496 22.2765 34.9341 21.3572 34.8898C20.6558 34.8551 20.0334 34.6276 19.5343 34.119C19.2531 33.8315 19.2341 33.5092 19.4679 33.2501C19.7017 32.9942 20.0397 32.9784 20.3336 33.2501C20.6811 33.5692 21.0792 33.762 21.5373 33.6703C21.7458 33.6293 22.0017 33.4555 22.0838 33.2723C22.207 33.0006 21.9195 32.8647 21.711 32.7699C21.3319 32.5993 20.9401 32.4603 20.5579 32.2992C19.8407 31.9959 19.4837 31.4525 19.5595 30.8017C19.6448 30.0782 20.1851 29.5158 20.9212 29.3926C21.0634 29.3705 21.2055 29.3642 21.275 29.3579L21.2782 29.3516Z" fill="white"/>
<path d="M6.89657 32.9702C6.89657 33.4157 6.90605 33.7917 6.89657 34.1676C6.88393 34.6194 6.6533 34.8816 6.28998 34.8785C5.93298 34.8753 5.69603 34.5973 5.69603 34.155C5.69287 32.7902 5.68971 31.4222 5.69603 30.0574C5.69603 29.5835 5.9077 29.356 6.3816 29.3433C6.83654 29.3307 7.29464 29.3307 7.74642 29.3718C8.69737 29.4602 9.3861 30.2817 9.35451 31.2484C9.32608 32.1678 8.55836 32.9292 7.61689 32.9702C7.3989 32.9797 7.18091 32.9702 6.89973 32.9702H6.89657ZM6.91868 30.547V31.7887C7.32939 31.7792 7.7717 31.9245 8.0276 31.5043C8.1287 31.34 8.14765 31.0304 8.05919 30.863C7.81593 30.4017 7.35467 30.547 6.91868 30.547Z" fill="white"/>
</g>
<defs>
<clipPath id="clip0_4151_1982">
<rect width="29.034" height="40" fill="white"/>
</clipPath>
</defs>
</svg>
