<svg width="30" height="34" viewBox="0 0 30 34" fill="none" xmlns="http://www.w3.org/2000/svg">
<path fill-rule="evenodd" clip-rule="evenodd" d="M5.5 4.00175C3.56975 4.00175 2 5.96525 2 8.37675C2 10.7882 3.56975 12.7517 5.5 12.7517C7.43025 12.7517 9 10.7882 9 8.37675C9 5.96525 7.43025 4.00175 5.5 4.00175ZM5.5 14.5017C2.6055 14.5017 0.25 11.7542 0.25 8.37675C0.25 4.99925 2.6055 2.25175 5.5 2.25175C8.3945 2.25175 10.75 4.99925 10.75 8.37675C10.75 11.7542 8.3945 14.5017 5.5 14.5017ZM24.75 21.5017C22.8197 21.5017 21.25 23.4652 21.25 25.8767C21.25 28.2882 22.8197 30.2517 24.75 30.2517C26.6803 30.2517 28.25 28.2882 28.25 25.8767C28.25 23.4652 26.6803 21.5017 24.75 21.5017ZM24.75 32.0017C21.8555 32.0017 19.5 29.2542 19.5 25.8767C19.5 22.4992 21.8555 19.7517 24.75 19.7517C27.6445 19.7517 30 22.4992 30 25.8767C30 29.2542 27.6445 32.0017 24.75 32.0017ZM2.875 33.7517C2.68775 33.7517 2.497 33.6922 2.33775 33.568C1.95625 33.2705 1.888 32.721 2.18375 32.3395L26.6838 0.839498C26.9795 0.457998 27.5325 0.387998 27.9122 0.685498C28.2937 0.982998 28.362 1.5325 28.0662 1.914L3.56625 33.414C3.393 33.6362 3.134 33.7517 2.875 33.7517Z" fill="white"/>
</svg>
