<svg width="17" height="17" viewBox="0 0 17 17" fill="none" xmlns="http://www.w3.org/2000/svg">
<g clip-path="url(#clip0_162_17)">
<path d="M10.6604 3.54168C11.3523 3.67666 11.9881 4.01503 12.4865 4.51346C12.985 5.0119 13.3233 5.64774 13.4583 6.33959M10.6604 0.708344C12.0978 0.868027 13.4382 1.51172 14.4615 2.53372C15.4848 3.55573 16.1302 4.89531 16.2917 6.33251M15.5833 11.985V14.11C15.5841 14.3073 15.5437 14.5025 15.4647 14.6833C15.3857 14.864 15.2697 15.0263 15.1244 15.1597C14.979 15.293 14.8074 15.3946 14.6205 15.4578C14.4336 15.521 14.2356 15.5444 14.0392 15.5267C11.8595 15.2898 9.76578 14.545 7.92624 13.3521C6.21479 12.2646 4.76377 10.8135 3.67624 9.10209C2.47914 7.2542 1.73417 5.1503 1.50166 2.96084C1.48396 2.76497 1.50724 2.56755 1.57001 2.38116C1.63279 2.19477 1.73369 2.0235 1.86629 1.87824C1.99888 1.73299 2.16027 1.61693 2.34018 1.53746C2.52009 1.458 2.71457 1.41686 2.91124 1.41668H5.03624C5.38 1.41329 5.71326 1.53502 5.97391 1.75918C6.23455 1.98333 6.4048 2.29462 6.45291 2.63501C6.5426 3.31506 6.70894 3.98278 6.94874 4.62543C7.04404 4.87896 7.06467 5.15449 7.00818 5.41938C6.95168 5.68428 6.82044 5.92742 6.62999 6.12001L5.73041 7.01959C6.73876 8.79294 8.20707 10.2612 9.98041 11.2696L10.88 10.37C11.0726 10.1796 11.3157 10.0483 11.5806 9.99183C11.8455 9.93533 12.121 9.95596 12.3746 10.0513C13.0172 10.2911 13.6849 10.4574 14.365 10.5471C14.7091 10.5956 15.0233 10.7689 15.248 11.0341C15.4726 11.2992 15.5919 11.6376 15.5833 11.985Z" stroke="black" stroke-linecap="round" stroke-linejoin="round"/>
</g>
<defs>
<clipPath id="clip0_162_17">
<rect width="17" height="17" fill="white"/>
</clipPath>
</defs>
</svg>
