<svg width="16" height="15" viewBox="0 0 16 15" fill="none" xmlns="http://www.w3.org/2000/svg">
<path d="M9.67161 3.45113C10.3263 3.5679 10.9279 3.86062 11.3995 4.29182C11.8712 4.72302 12.1913 5.27309 12.319 5.87161M9.67161 1C11.0317 1.13814 12.3 1.695 13.2683 2.57914C14.2365 3.46328 14.8472 4.62216 15 5.86549M14.3298 10.7555V12.5938C14.3305 12.7645 14.2923 12.9334 14.2175 13.0898C14.1427 13.2462 14.033 13.3865 13.8955 13.5019C13.758 13.6173 13.5956 13.7051 13.4187 13.7598C13.2419 13.8144 13.0546 13.8348 12.8686 13.8194C10.8062 13.6145 8.8251 12.9702 7.08449 11.9382C5.46509 10.9973 4.09211 9.74205 3.06307 8.26146C1.93035 6.66284 1.22544 4.84275 1.00544 2.94865C0.988691 2.77919 1.01072 2.6084 1.07012 2.44716C1.12952 2.28592 1.22499 2.13775 1.35046 2.01208C1.47592 1.88642 1.62863 1.78602 1.79886 1.71727C1.96909 1.64853 2.15312 1.61294 2.33921 1.61278H4.34993C4.6752 1.60985 4.99053 1.71516 5.23716 1.90908C5.48379 2.103 5.64488 2.37229 5.6904 2.66677C5.77527 3.25508 5.93266 3.83272 6.15957 4.38868C6.24974 4.60801 6.26926 4.84638 6.2158 5.07554C6.16235 5.3047 6.03816 5.51504 5.85796 5.68165L5.00676 6.45988C5.96088 7.99401 7.35021 9.26425 9.02818 10.1366L9.87939 9.35834C10.0616 9.19359 10.2917 9.08005 10.5423 9.03117C10.793 8.9823 11.0537 9.00014 11.2936 9.08259C11.9017 9.29005 12.5335 9.43394 13.177 9.51154C13.5025 9.55353 13.7999 9.70346 14.0124 9.93282C14.225 10.1622 14.3379 10.455 14.3298 10.7555Z" stroke="white" stroke-linecap="round" stroke-linejoin="round"/>
</svg>
