<svg width="14" height="14" viewBox="0 0 14 14" fill="none" xmlns="http://www.w3.org/2000/svg">
<g clip-path="url(#clip0_194_135)">
<path d="M8.77917 2.91671C9.34893 3.02787 9.87256 3.30652 10.283 3.717C10.6935 4.12748 10.9722 4.65111 11.0833 5.22087M8.77917 0.583374C9.96291 0.714878 11.0668 1.24498 11.9095 2.08663C12.7522 2.92828 13.2837 4.03146 13.4167 5.21504M12.8333 9.87004V11.62C12.834 11.7825 12.8007 11.9433 12.7356 12.0922C12.6705 12.241 12.5751 12.3746 12.4554 12.4845C12.3357 12.5943 12.1943 12.6779 12.0404 12.73C11.8865 12.782 11.7235 12.8013 11.5617 12.7867C9.76665 12.5917 8.04242 11.9783 6.5275 10.9959C5.11807 10.1003 3.92311 8.90531 3.0275 7.49587C2.04166 5.97408 1.42814 4.24145 1.23667 2.43837C1.22209 2.27706 1.24126 2.11448 1.29296 1.96099C1.34466 1.80749 1.42775 1.66644 1.53695 1.54682C1.64615 1.4272 1.77905 1.33162 1.92721 1.26618C2.07537 1.20074 2.23553 1.16686 2.3975 1.16671H4.1475C4.4306 1.16392 4.70505 1.26417 4.9197 1.44877C5.13434 1.63337 5.27455 1.88972 5.31417 2.17004C5.38803 2.73008 5.52501 3.27996 5.7225 3.80921C5.80099 4.018 5.81797 4.24491 5.77145 4.46305C5.72492 4.6812 5.61684 4.88144 5.46 5.04004L4.71917 5.78087C5.54958 7.24128 6.75877 8.45047 8.21917 9.28087L8.96 8.54004C9.1186 8.3832 9.31884 8.27512 9.53699 8.22859C9.75513 8.18207 9.98205 8.19906 10.1908 8.27754C10.7201 8.47503 11.27 8.61201 11.83 8.68587C12.1134 8.72585 12.3722 8.86858 12.5571 9.08691C12.7421 9.30525 12.8404 9.58396 12.8333 9.87004Z" stroke="#0056B7" stroke-linecap="round" stroke-linejoin="round"/>
</g>
<defs>
<clipPath id="clip0_194_135">
<rect width="14" height="14" fill="white"/>
</clipPath>
</defs>
</svg>
