<svg width="17" height="16" viewBox="0 0 17 16" fill="none" xmlns="http://www.w3.org/2000/svg">
<path d="M10.291 3.67583C10.9924 3.80331 11.637 4.12286 12.1424 4.59359C12.6477 5.06432 12.9907 5.66481 13.1276 6.3182M10.291 1C11.7483 1.15081 13.1072 1.75871 14.1446 2.72391C15.182 3.6891 15.8363 4.95421 16 6.31151M15.2819 11.6498V13.6567C15.2827 13.843 15.2417 14.0274 15.1616 14.1981C15.0815 14.3688 14.964 14.522 14.8166 14.648C14.6692 14.7739 14.4952 14.8698 14.3058 14.9295C14.1163 14.9892 13.9156 15.0113 13.7164 14.9946C11.5067 14.7709 9.38404 14.0675 7.5191 12.9409C5.78402 11.9138 4.31297 10.5434 3.21043 8.92713C1.99681 7.18196 1.24154 5.19502 1.00583 3.12728C0.987883 2.94229 1.01148 2.75585 1.07513 2.57982C1.13877 2.4038 1.24106 2.24204 1.37549 2.10486C1.50992 1.96768 1.67353 1.85808 1.85592 1.78303C2.03831 1.70798 2.23548 1.66913 2.43487 1.66896H4.58921C4.93771 1.66576 5.27557 1.78072 5.53981 1.99242C5.80406 2.20411 5.97665 2.49809 6.02543 2.81956C6.11636 3.4618 6.28499 4.0924 6.52811 4.69933C6.62472 4.93876 6.64564 5.19898 6.58836 5.44915C6.53109 5.69932 6.39803 5.92895 6.20496 6.11083L5.29296 6.9604C6.31523 8.63517 7.8038 10.0218 9.60163 10.9741L10.5136 10.1246C10.7089 9.94471 10.9554 9.82076 11.2239 9.76741C11.4925 9.71405 11.7718 9.73353 12.0288 9.82354C12.6804 10.05 13.3573 10.2071 14.0467 10.2918C14.3956 10.3376 14.7142 10.5013 14.9419 10.7517C15.1696 11.0021 15.2906 11.3217 15.2819 11.6498Z" stroke="white" stroke-linecap="round" stroke-linejoin="round"/>
</svg>
