<svg width="71" height="71" viewBox="0 0 71 71" fill="none" xmlns="http://www.w3.org/2000/svg">
<circle cx="35.5" cy="35.5" r="35.5" fill="#264385"/>
<path d="M23.4749 36.8979C28.0198 37.1863 32.5647 37.4204 35.5003 37.4204C38.436 37.4204 42.9809 37.1905 47.5258 36.8979L47.813 30.0794C43.9439 30.0251 39.6524 30 35.5003 30C31.3482 30 27.0525 30.0251 23.1877 30.0794L23.4749 36.8979Z" fill="white"/>
<path d="M8.18487 35.7551C8.30314 35.7635 15.3993 36.3696 22.7236 36.8504L22.4406 30.0863C15.978 30.1783 10.8544 30.3455 9.86176 30.5796C8.244 30.96 8.02014 32.2184 8.00324 33.0545C7.99479 33.4516 7.99479 34.5302 8.10461 35.7425L8.18487 35.7551Z" fill="white"/>
<path d="M48.274 36.8487C55.5981 36.3721 62.6944 35.7659 62.8127 35.7534L62.897 35.745C63.007 34.5368 63.007 33.4583 62.9944 33.0611C62.9776 32.225 62.7536 30.9667 61.1355 30.5863C60.1388 30.3521 55.0197 30.1849 48.5569 30.093L48.274 36.8487Z" fill="white"/>
<path d="M48.2272 37.5927L47.6232 44.6411C51.336 43.9889 54.6942 43.2908 56.0794 42.9271C59.1333 42.1244 61.0089 41.2507 62.0057 39.5032C62.4323 38.7549 62.6773 37.6136 62.8207 36.4933C62.1198 36.556 55.2727 37.1329 48.2272 37.5927Z" fill="white"/>
<path d="M47.4758 37.6423C42.9478 37.9308 38.4282 38.1607 35.5011 38.1607C32.5739 38.1607 28.0543 37.9308 23.5263 37.6423L24.1387 44.7743C28.4091 45.5101 32.992 46.1538 35.5011 46.1538C38.01 46.1538 42.593 45.5101 46.8634 44.7743L47.4758 37.6423Z" fill="white"/>
<path d="M22.7698 37.591C15.7243 37.1311 8.87739 36.5542 8.18045 36.4957C8.31984 37.616 8.56905 38.7573 8.99566 39.5056C9.98828 41.2531 11.8679 42.1268 14.9218 42.9295C16.3072 43.2931 19.6652 43.9871 23.3781 44.6435L22.7698 37.591Z" fill="white"/>
</svg>
