<svg width="18" height="18" viewBox="0 0 18 18" fill="none" xmlns="http://www.w3.org/2000/svg">
<path d="M18 9.00044C18.0022 10.1828 17.7709 11.354 17.3195 12.4468C16.868 13.5396 16.2052 14.5325 15.3692 15.3687C14.5331 16.2048 13.5402 16.8676 12.4473 17.3191C11.3545 17.7707 10.1833 18.002 9.00088 18C7.81803 18.0032 6.64621 17.7727 5.55277 17.3215C4.45933 16.8704 3.46584 16.2077 2.6294 15.3714C1.79296 14.535 1.13006 13.5417 0.678826 12.4483C0.227589 11.355 -0.00309563 10.1832 3.37596e-05 9.00044C-0.00320958 7.81788 0.227273 6.64633 0.678239 5.55311C1.1292 4.4599 1.79176 3.46657 2.62784 2.63021C3.46392 1.79384 4.45704 1.13093 5.55014 0.679555C6.64323 0.228184 7.81474 -0.00274529 8.99737 3.62247e-05C10.1804 -0.00332438 11.3524 0.227172 12.4461 0.678272C13.5397 1.12937 14.5334 1.79218 15.37 2.62859C16.2067 3.465 16.8697 4.45852 17.321 5.55203C17.7724 6.64554 18.0031 7.81746 18 9.00044ZM8.99649 16.8222C13.3212 16.7476 16.7888 13.4436 16.8055 9.01274C16.8213 4.74352 13.4916 1.2173 9.01844 1.19623C4.66909 1.17515 1.19101 4.58279 1.1954 9.00659C1.19892 13.3917 4.62957 16.7397 8.99649 16.8222Z" fill="#B3DAFF"/>
<path d="M14.0868 7.24324C14.1166 7.7506 13.8366 8.14819 13.4842 8.51121L11.3564 10.6988C10.6868 11.3903 10.0172 12.0817 9.34765 12.7732C8.63184 13.5131 7.66749 13.5312 6.94572 12.8078C6.22395 12.0843 5.49878 11.3479 4.78466 10.6107C4.10971 9.91487 4.09013 8.9183 4.72849 8.26228C5.36685 7.60626 6.34566 7.61749 7.03764 8.29426C7.32788 8.57862 7.62068 8.86299 7.88879 9.16637C8.07264 9.37467 8.1918 9.33923 8.37054 9.15599C9.34425 8.13263 10.3282 7.12051 11.3121 6.10493C11.7011 5.70302 12.1632 5.50941 12.7207 5.59411C13.5446 5.71858 14.0885 6.36682 14.0868 7.24324ZM8.12881 12.2166C8.3399 12.2321 8.47863 12.0982 8.61482 11.9573C9.45518 11.0872 10.2955 10.2177 11.1359 9.34874C11.6943 8.77137 12.2586 8.20091 12.811 7.62009C13.0825 7.334 13.0833 7.04877 12.8433 6.82405C12.6203 6.61575 12.3564 6.6434 12.0858 6.90443C12.016 6.97185 11.9505 7.04185 11.8832 7.111C10.8119 8.21906 9.74032 9.32655 8.66844 10.4335C8.26159 10.8518 8.00625 10.8457 7.59344 10.4283C7.15681 9.98661 6.72612 9.53975 6.28608 9.10241C6.02137 8.83879 5.74986 8.82409 5.52686 9.04104C5.30386 9.25798 5.30301 9.55963 5.57283 9.83449C6.28183 10.564 6.99679 11.2866 7.7092 12.0109C7.8207 12.1249 7.94667 12.2218 8.12541 12.2148L8.12881 12.2166Z" fill="#B3DAFF"/>
</svg>
