<svg width="20" height="23" viewBox="0 0 20 23" fill="none" xmlns="http://www.w3.org/2000/svg">
<path d="M18.6923 11.9417C18.6923 12.139 18.6923 12.3363 18.6923 12.5337C18.6753 12.6054 18.6669 12.6772 18.65 12.7579C18.6077 13.009 18.5823 13.2691 18.3962 13.4664C18.0408 13.852 17.6093 13.9776 17.1102 13.87C17.034 13.852 16.941 13.861 16.8733 13.9059C16.4587 14.148 16.188 14.1032 15.8834 13.7175C15.5788 13.3229 15.4435 12.8476 15.4012 12.3453C15.3758 12.0404 15.3927 11.7265 15.3927 11.4126C15.1897 11.7085 15.1558 12.0493 15.1474 12.3991C13.4976 11.861 11.907 10.8386 11.3825 8.33634C11.3571 9.12558 11.594 9.79822 11.8732 10.4171C11.6617 10.7758 11.4501 11.1166 11.2725 11.4664C10.9341 12.1301 10.8748 12.8296 11.0525 13.5561C11.2386 14.3274 11.6532 14.9731 12.0508 15.6368C12.4569 16.3094 12.863 16.9731 13.2184 17.6727C13.5822 18.3902 13.7006 19.1794 13.5653 19.9866C13.4468 20.6861 13.1507 21.305 12.7615 21.879C12.6938 21.9776 12.6261 22.0135 12.5162 21.9956C12.0339 21.9238 11.5432 21.879 11.0694 21.7893C9.35196 21.4664 7.7614 20.8296 6.34005 19.7355C4.85948 18.6054 3.76808 17.1615 3.19277 15.305C3.04894 14.8476 2.96434 14.3633 2.85435 13.8969C2.15214 14.139 1.63605 14.6323 1.25533 15.3767C1.21303 15.0538 1.18765 14.7848 1.15381 14.5157C1.15381 14.0673 1.15381 13.6189 1.15381 13.1704C1.16227 13.1076 1.17919 13.0449 1.18765 12.9911C1.25533 12.5067 1.28918 12.0135 1.39916 11.5471C2.03369 8.84755 3.51427 6.92826 5.93395 5.861C6.10316 5.78925 6.27237 5.72647 6.48388 5.64575C5.84934 5.49328 5.25711 5.59194 4.63104 5.7444C5.20635 4.79373 5.99317 4.15696 6.9069 3.69956C8.74281 2.79373 10.6295 2.55157 12.5923 3.22422C12.6008 3.17938 12.6177 3.1435 12.6261 3.09866C12.8546 2.23767 13.3199 1.58296 14.1152 1.23318C14.3352 1.13453 14.572 1.08072 14.8089 1C14.8512 1 14.8851 1 14.9274 1C14.7582 1.25112 14.572 1.48431 14.4282 1.75336C14.1744 2.23767 14.149 2.85651 14.3352 3.35875C14.4113 2.61435 14.7666 2.13005 15.4519 1.89686C15.2658 2.45292 15.3504 2.9731 15.4773 3.50225C15.5873 3.95965 15.6888 4.41705 15.3758 4.85651C15.435 4.86548 15.4688 4.86548 15.5027 4.86548C16.3149 4.96413 16.9325 5.34082 17.254 6.18387C17.364 6.51571 17.4909 6.84755 17.6601 7.14351C17.8716 7.49329 18.1423 7.79822 18.3877 8.12109C17.9055 8.148 17.4232 8.04934 16.9663 7.65472C16.9917 7.74441 16.9917 7.77131 17.0086 7.80719C17.254 8.56055 17.5078 9.31392 17.7532 10.0673C17.7785 10.139 17.8039 10.2108 17.8462 10.2736C18.21 10.7758 18.5907 11.278 18.6923 11.9417Z" stroke="#3C4248" stroke-miterlimit="10" stroke-linecap="round" stroke-linejoin="round"/>
</svg>
