<svg width="27" height="24" viewBox="0 0 27 24" fill="none" xmlns="http://www.w3.org/2000/svg">
<path d="M4.16023 15.1605C3.77514 15.1605 3.46539 15.1605 3.09705 15.1605C3.09705 15.5184 3.11379 15.8596 3.09705 16.1926C3.06356 16.8168 2.66173 17.208 2.06736 17.208C1.46462 17.208 1.02093 16.7918 1.01256 16.1593C0.995814 14.7693 0.995814 13.3876 1.01256 11.9976C1.02093 11.3983 1.47299 10.9655 2.03388 10.9489C2.60313 10.9322 3.06356 11.3817 3.09705 12.0059C3.09705 12.0725 3.09705 12.1391 3.10542 12.2057C3.12216 13.1546 3.12216 13.1546 4.16023 13.0047C4.16023 12.4138 4.16023 11.8228 4.16023 11.2236C4.16023 10.4911 4.16023 9.75866 4.16023 9.01789C4.1686 8.25215 4.56206 7.83599 5.33223 7.81934C6.15263 7.8027 6.97303 7.81934 7.79344 7.81102C7.96924 7.81102 8.14504 7.81102 8.34595 7.81102C8.34595 7.46144 8.34595 7.17013 8.34595 6.79558C8.05295 6.79558 7.76832 6.8039 7.48369 6.79558C6.68841 6.77061 6.26146 6.37109 6.25309 5.58038C6.23635 4.63153 6.23635 3.691 6.25309 2.74215C6.26146 1.95976 6.68841 1.5436 7.49207 1.5436C10.1877 1.53527 12.8749 1.53527 15.5705 1.5436C16.3742 1.5436 16.776 1.96808 16.776 2.75879C16.776 3.691 16.776 4.62321 16.776 5.54709C16.776 6.37109 16.3742 6.77061 15.5454 6.78726C15.2859 6.79558 15.0264 6.78726 14.725 6.78726C14.725 7.12019 14.725 7.41983 14.725 7.8027C15.244 7.8027 15.7798 7.8027 16.3156 7.8027C17.5043 7.8027 17.8392 8.13563 17.8392 9.30921C17.8392 9.484 17.8392 9.66711 17.8392 9.90848C18.4922 9.90848 19.1116 9.90848 19.7311 9.90848C20.4762 9.91681 20.7608 10.1249 20.9952 10.8157C21.1208 11.1986 21.2464 11.5815 21.4724 11.9643C21.5729 11.6564 21.6817 11.3401 21.7738 11.0321C22.0165 10.2331 22.2426 9.44238 22.4853 8.64335C22.6611 8.06904 23.0044 7.81102 23.6071 7.79437C24.101 7.77773 24.595 7.77773 25.0805 7.79437C25.8256 7.81934 26.2274 8.23551 26.2274 8.96795C26.2274 13.063 26.2274 17.1581 26.2274 21.2531C26.2274 21.9939 25.8256 22.41 25.0889 22.435C24.6284 22.4517 24.168 22.4433 23.7076 22.435C23.1048 22.435 22.6863 22.177 22.4686 21.586C22.2175 20.9118 21.9496 20.246 21.6733 19.5884C21.6231 19.4719 21.4975 19.3221 21.3971 19.3221C21.2882 19.3138 21.1375 19.4386 21.0706 19.5468C20.8111 19.9463 20.5767 20.3542 20.3339 20.762C20.0911 21.1782 19.7395 21.378 19.2456 21.378C15.1101 21.3696 10.9746 21.3696 6.83909 21.378C6.30332 21.378 5.93497 21.1532 5.70894 20.6788C5.24014 19.6883 4.7546 18.7145 4.30254 17.7157C4.20208 17.4993 4.17697 17.2413 4.1686 17.0082C4.15185 16.4173 4.16023 15.8014 4.16023 15.1605Z" stroke="#272C38" stroke-width="1.5" stroke-miterlimit="10" stroke-linecap="round" stroke-linejoin="round"/>
</svg>
