<svg width="13" height="18" viewBox="0 0 13 18" fill="none" xmlns="http://www.w3.org/2000/svg">
<path d="M4.31982 2.15991V2.38463C4.31982 2.76425 4.51947 3.11589 4.84545 3.31043L4.89469 3.33981C4.93621 3.36459 4.98057 3.38429 5.0268 3.39848V3.39848C5.28006 3.47621 5.45294 3.71011 5.45294 3.97503V5.00382C5.45294 5.36955 5.62138 5.71491 5.90959 5.94007L6.00095 6.01144C6.15064 6.12839 6.33514 6.19191 6.5251 6.19191V6.19191C6.7029 6.19191 6.87625 6.13624 7.0208 6.03272L7.12537 5.95784C7.45362 5.72276 7.64835 5.3438 7.64835 4.94005V4.00317C7.64835 3.72531 7.83903 3.48375 8.1093 3.41924V3.41924C8.22435 3.39177 8.32872 3.33093 8.40932 3.24436L8.43954 3.21189C8.56826 3.07362 8.63982 2.89171 8.63982 2.7028V2.15991" stroke="#3C4248" stroke-linecap="round"/>
<path d="M2.87988 2.51994H3.84413C4.10688 2.51994 4.31988 2.30694 4.31988 2.04419V2.04419C4.31988 1.93289 4.3589 1.82512 4.43015 1.73962L4.47684 1.6836C4.60549 1.52921 4.79608 1.43994 4.99705 1.43994H7.96271C8.16368 1.43994 8.35427 1.52921 8.48293 1.6836L8.52961 1.73962C8.60086 1.82512 8.63988 1.93289 8.63988 2.04419V2.04419C8.63988 2.30694 8.85288 2.51994 9.11564 2.51994H10.0799" stroke="#3C4248" stroke-linecap="round"/>
<rect x="0.5" y="0.5" width="2.024" height="4.184" rx="1.012" fill="#3C4248" stroke="#3C4248"/>
<rect x="10.436" y="0.5" width="2.024" height="4.184" rx="1.012" fill="#3C4248" stroke="#3C4248"/>
<rect x="0.5" y="13.3159" width="2.024" height="4.184" rx="1.012" fill="#3C4248" stroke="#3C4248"/>
<rect x="10.436" y="13.3159" width="2.024" height="4.184" rx="1.012" fill="#3C4248" stroke="#3C4248"/>
<path d="M2.73584 15.2639H10.2238" stroke="#3C4248" stroke-linecap="round"/>
<path d="M6.47998 15.12V6.47998" stroke="#3C4248" stroke-linecap="round"/>
</svg>
