<?xml version="1.0" standalone="no"?>
<!DOCTYPE svg PUBLIC "-//W3C//DTD SVG 20010904//EN"
 "http://www.w3.org/TR/2001/REC-SVG-20010904/DTD/svg10.dtd">
<svg version="1.0" xmlns="http://www.w3.org/2000/svg"
 width="512.000000pt" height="512.000000pt" viewBox="0 0 512.000000 512.000000"
 preserveAspectRatio="xMidYMid meet">
<metadata>
Created by potrace 1.14, written by Peter Selinger 2001-2017
</metadata>
<g transform="translate(0.000000,512.000000) scale(0.100000,-0.100000)"
fill="#000000" stroke="none">
<path d="M1217 3284 c-1 -1 -135 -5 -297 -8 -697 -16 -794 -27 -863 -102 -47
-50 -57 -102 -54 -261 2 -78 5 -145 8 -147 5 -5 138 -18 324 -31 81 -6 147
-11 253 -20 31 -3 91 -7 132 -10 41 -2 100 -7 130 -9 30 -3 91 -8 135 -11 44
-2 107 -7 140 -9 33 -3 98 -7 146 -11 l85 -6 -2 58 c-10 305 -22 555 -29 561
-4 4 -104 9 -108 6z"/>
<path d="M1412 3281 c-9 -5 -11 -36 -8 -112 6 -119 18 -415 20 -473 2 -46 -11
-42 175 -51 75 -4 159 -9 186 -10 43 -3 188 -10 415 -21 91 -4 580 -4 670 0
41 2 145 7 230 11 85 4 173 8 195 10 22 1 100 6 172 10 152 8 160 9 169 18 4
4 8 35 9 69 4 102 15 366 20 460 3 67 1 87 -10 91 -21 9 -2230 6 -2243 -2z"/>
<path d="M3742 3281 c-4 -3 -8 -24 -8 -46 -5 -132 -15 -375 -20 -467 l-5 -106
73 3 c40 2 105 6 143 9 39 3 104 8 145 11 41 2 105 7 143 10 37 3 99 7 137 10
69 5 157 12 255 20 28 2 86 7 130 10 44 3 100 7 125 10 25 2 79 7 120 11 41 3
77 7 78 9 2 2 5 66 7 142 4 116 1 147 -15 193 -30 88 -97 135 -205 145 -134
13 -369 23 -727 31 -170 3 -321 7 -338 8 -17 1 -33 0 -38 -3z"/>
<path d="M20 2668 c0 -44 40 -188 66 -241 40 -79 135 -165 235 -214 102 -51
293 -114 416 -137 11 -3 65 -14 119 -26 132 -29 137 -30 229 -46 11 -2 79 -15
150 -28 72 -14 141 -26 155 -28 28 -3 27 -9 16 122 -3 41 -9 107 -12 145 -3
39 -7 86 -9 105 -2 19 -7 76 -11 125 -8 120 -10 134 -15 139 -7 7 -77 15 -189
21 -58 4 -121 8 -140 10 -34 3 -187 14 -280 20 -73 5 -222 16 -260 20 -19 2
-75 7 -125 10 -49 4 -106 9 -125 10 -19 2 -77 7 -127 10 -93 7 -93 7 -93 -17z"/>
<path d="M4896 2683 c-3 -3 -79 -10 -196 -18 -52 -4 -106 -8 -120 -10 -14 -2
-72 -7 -129 -10 -57 -4 -112 -8 -121 -10 -10 -2 -71 -6 -136 -10 -66 -3 -135
-8 -154 -10 -19 -2 -84 -7 -145 -11 -60 -4 -121 -8 -135 -9 -14 -2 -32 -3 -41
-4 -12 -1 -16 -13 -18 -48 -1 -27 -4 -64 -6 -83 -2 -19 -6 -73 -10 -120 -4
-47 -8 -98 -10 -115 -1 -16 -5 -66 -9 -110 -4 -44 -9 -101 -11 -126 l-5 -46
47 8 c27 5 62 11 78 14 17 3 68 12 115 21 203 36 564 118 665 151 329 106 451
234 490 511 l6 43 -76 -3 c-42 -2 -78 -4 -79 -5z"/>
<path d="M1435 2532 c2 -32 7 -79 10 -107 2 -27 7 -79 10 -115 3 -36 7 -87 10
-115 14 -168 18 -213 18 -237 1 -26 4 -27 86 -42 77 -14 148 -25 191 -31 8 -1
33 -5 55 -8 22 -4 60 -9 85 -12 25 -3 56 -8 70 -10 59 -10 229 -30 360 -42
142 -12 387 -7 530 12 19 2 58 7 85 10 28 3 61 8 75 10 14 3 50 7 80 10 30 3
69 8 85 11 17 4 41 8 55 9 14 2 39 5 55 8 17 3 50 9 75 12 25 4 52 9 60 10 8
2 35 6 60 9 71 10 79 12 85 17 5 6 11 51 20 164 3 39 8 90 10 115 2 25 7 74
10 110 5 63 14 170 20 237 3 31 2 32 -34 28 -33 -3 -143 -10 -336 -20 -399
-21 -921 -27 -1210 -13 -266 14 -526 28 -582 33 l-43 3 5 -56z"/>
</g>
</svg>
