<svg width="24" height="24" viewBox="0 0 24 24" fill="none" xmlns="http://www.w3.org/2000/svg">
<path d="M3 12.6719C3 12.227 3 11.7821 3 11.3372C3.01208 11.2929 3.02618 11.2506 3.03424 11.2043C3.1007 10.7896 3.13695 10.3669 3.23363 9.96022C3.77542 7.70355 5.00604 5.90385 6.91541 4.5893C8.97181 3.1741 11.2538 2.71511 13.7009 3.16806C15.6344 3.52639 17.28 4.45241 18.6073 5.90586C20.432 7.90284 21.2054 10.2682 20.9537 12.9557C20.8328 14.2461 20.43 15.458 19.7533 16.5672C18.3293 18.9003 16.2769 20.3417 13.5841 20.8591C13.2699 20.9195 12.9496 20.9537 12.6334 21H11.3686C11.3182 20.9879 11.2679 20.9738 11.2155 20.9658C10.857 20.9134 10.4945 20.8853 10.14 20.8088C8.00302 20.3397 6.25075 19.2446 4.89929 17.5254C3.93454 16.2994 3.33233 14.9084 3.1007 13.3603C3.06647 13.1308 3.03223 12.9013 3 12.6719ZM19.7996 12.0257C19.7915 7.75991 16.3917 4.23097 12.0211 4.21486C7.7432 4.19876 4.22054 7.62504 4.20443 11.9814C4.18831 16.2572 7.61833 19.774 11.9768 19.7921C16.2628 19.8103 19.7573 16.3739 19.7996 12.0257Z" fill="white"/>
<path d="M12.0038 9.21395C12.0038 8.35603 12.0019 7.49597 12.0038 6.63805C12.0038 6.30609 12.2203 6.04743 12.5171 6.00432C12.7699 5.96767 13.0419 6.16814 13.1166 6.4613C13.1415 6.55614 13.1415 6.65961 13.1415 6.75876C13.1415 8.26981 13.1434 9.78086 13.1415 11.2919C13.1415 11.4234 13.176 11.5053 13.2679 11.5894C14.0934 12.3244 14.9131 13.0659 15.7348 13.8075C16.0278 14.0726 16.0853 14.4692 15.8708 14.7624C15.6582 15.0534 15.3115 15.0814 15.0242 14.8227C14.0972 13.9885 13.1722 13.1543 12.2452 12.3223C12.0824 12.1757 12 11.9946 12 11.7554C12.0038 10.9082 12 10.0632 12 9.2161L12.0038 9.21395Z" fill="white"/>
</svg>
