<svg width="25" height="24" viewBox="0 0 25 24" fill="none" xmlns="http://www.w3.org/2000/svg">
<path d="M8.19197 19.6161C8.78197 19.6161 9.07797 19.6161 9.34697 19.7161C9.38497 19.7301 9.42197 19.7454 9.45797 19.7621C9.71897 19.8821 9.92797 20.0901 10.346 20.5081C11.308 21.4701 11.789 21.9511 12.38 21.9961C12.46 22.0021 12.54 22.0021 12.62 21.9961C13.211 21.9511 13.692 21.4701 14.654 20.5081C15.072 20.0901 15.281 19.8821 15.542 19.7621C15.578 19.7454 15.6146 19.7301 15.652 19.7161C15.922 19.6161 16.217 19.6161 16.808 19.6161H16.918C18.425 19.6161 19.179 19.6161 19.648 19.1481C20.117 18.6801 20.116 17.9251 20.116 16.4181V16.3081C20.116 15.7181 20.116 15.4221 20.216 15.1531C20.23 15.1151 20.2453 15.0781 20.262 15.0421C20.382 14.7811 20.59 14.5721 21.008 14.1541C21.97 13.1921 22.451 12.7111 22.496 12.1201C22.502 12.0401 22.502 11.9601 22.496 11.8801C22.451 11.2891 21.97 10.8081 21.008 9.84609C20.59 9.42809 20.382 9.21909 20.262 8.95809L20.216 8.84809C20.116 8.57809 20.116 8.28309 20.116 7.69209V7.58209C20.116 6.07509 20.116 5.32109 19.648 4.85209C19.18 4.38309 18.425 4.38409 16.918 4.38409H16.808C16.218 4.38409 15.922 4.38409 15.653 4.28409L15.542 4.23809C15.281 4.11809 15.072 3.91009 14.654 3.49209C13.692 2.53009 13.211 2.04909 12.62 2.00409C12.54 1.99929 12.4599 1.99929 12.38 2.00409C11.789 2.04909 11.308 2.53009 10.346 3.49209C9.92797 3.91009 9.71897 4.11909 9.45797 4.23809L9.34797 4.28409C9.07797 4.38409 8.78297 4.38409 8.19197 4.38409H8.08197C6.57497 4.38409 5.82097 4.38409 5.35197 4.85209C4.88297 5.32009 4.88397 6.07509 4.88397 7.58209V7.69209C4.88397 8.28209 4.88397 8.57809 4.78397 8.84709C4.7693 8.88509 4.75397 8.92209 4.73797 8.95809C4.61797 9.21909 4.40997 9.42809 3.99197 9.84609C3.02997 10.8081 2.54897 11.2891 2.50397 11.8801C2.49917 11.96 2.49917 12.0402 2.50397 12.1201C2.54897 12.7111 3.02997 13.1921 3.99197 14.1541C4.40997 14.5721 4.61897 14.7811 4.73797 15.0421C4.75464 15.0781 4.76997 15.1148 4.78397 15.1521C4.88397 15.4221 4.88397 15.7171 4.88397 16.3081V16.4181C4.88397 17.9251 4.88397 18.6791 5.35197 19.1481C5.81997 19.6171 6.57497 19.6161 8.08197 19.6161H8.19197Z" stroke="white" stroke-width="1.5" stroke-linecap="round" stroke-linejoin="round"/>
<path d="M12.0349 9.74834C12.0349 10.1015 11.9546 10.4124 11.7941 10.6808C11.6409 10.9422 11.4293 11.1435 11.1594 11.2848C10.8894 11.426 10.5903 11.4967 10.262 11.4967C9.93365 11.4967 9.63452 11.426 9.36457 11.2848C9.10192 11.1435 8.89033 10.9422 8.72982 10.6808C8.57661 10.4124 8.5 10.1015 8.5 9.74834C8.5 9.39514 8.57661 9.08786 8.72982 8.82649C8.89033 8.55806 9.10192 8.3532 9.36457 8.21192C9.63452 8.07064 9.93365 8 10.262 8C10.5903 8 10.8894 8.07064 11.1594 8.21192C11.4293 8.3532 11.6409 8.55806 11.7941 8.82649C11.9546 9.08786 12.0349 9.39514 12.0349 9.74834ZM14.3878 8.11656H15.3947L10.6122 15.8834H9.60534L14.3878 8.11656ZM11.1594 9.74834C11.1594 9.45872 11.0718 9.22561 10.8967 9.04901C10.7289 8.86534 10.5173 8.77351 10.262 8.77351C10.0139 8.77351 9.80233 8.86534 9.62722 9.04901C9.45942 9.22561 9.37551 9.45872 9.37551 9.74834C9.37551 10.038 9.45942 10.2746 9.62722 10.4583C9.79503 10.6349 10.0066 10.7232 10.262 10.7232C10.5173 10.7232 10.7289 10.6349 10.8967 10.4583C11.0718 10.2746 11.1594 10.038 11.1594 9.74834ZM16.5 14.2517C16.5 14.6049 16.4197 14.9157 16.2592 15.1841C16.106 15.4455 15.8944 15.6468 15.6245 15.7881C15.3545 15.9294 15.0554 16 14.7271 16C14.3988 16 14.0996 15.9294 13.8297 15.7881C13.567 15.6468 13.3554 15.4455 13.1949 15.1841C13.0417 14.9157 12.9651 14.6049 12.9651 14.2517C12.9651 13.8985 13.0417 13.5912 13.1949 13.3298C13.3554 13.0614 13.567 12.8565 13.8297 12.7152C14.0996 12.574 14.3988 12.5033 14.7271 12.5033C15.0554 12.5033 15.3545 12.574 15.6245 12.7152C15.8944 12.8565 16.106 13.0614 16.2592 13.3298C16.4197 13.5912 16.5 13.8985 16.5 14.2517ZM15.6245 14.2517C15.6245 13.962 15.5369 13.7289 15.3618 13.5523C15.194 13.3687 14.9824 13.2768 14.7271 13.2768C14.479 13.2768 14.2674 13.3687 14.0923 13.5523C13.9245 13.7289 13.8406 13.962 13.8406 14.2517C13.8406 14.5413 13.9245 14.7779 14.0923 14.9616C14.2601 15.1382 14.4717 15.2265 14.7271 15.2265C14.9824 15.2265 15.194 15.1382 15.3618 14.9616C15.5369 14.7779 15.6245 14.5413 15.6245 14.2517Z" fill="white"/>
</svg>
