<svg width="36" height="22" viewBox="0 0 36 22" fill="none" xmlns="http://www.w3.org/2000/svg">
<g clip-path="url(#clip0_4151_1989)">
<path d="M17.5342 21.9968C12.6127 21.9968 7.69122 21.9968 2.7729 21.9968C1.6136 21.9968 0.725967 21.5419 0.239505 20.4581C0.109992 20.1706 0.0436562 19.8325 0.0436562 19.5166C0.0341797 13.8389 0.0341797 8.16114 0.0341797 2.48341C0.0373385 1.1248 1.10187 0.0821485 2.53598 0.00631911C2.64023 0 2.74447 0.00315956 2.84871 0.00315956C12.638 0 22.4272 0.00315956 32.2196 0C33.0473 0 33.7928 0.189573 34.3708 0.821485C34.8004 1.29226 35.0342 1.83886 35.0342 2.48341C35.0342 8.16114 35.0342 13.8389 35.0342 19.5166C35.0342 20.9321 33.9033 21.9874 32.3776 21.9968C30.0464 22.0063 27.7183 21.9968 25.3871 21.9968C22.7715 21.9968 20.1529 21.9968 17.5373 21.9968H17.5342ZM17.4931 20.7046C22.402 20.7046 27.3108 20.7046 32.2196 20.7046C33.3474 20.7046 33.7833 20.2717 33.7833 19.1532C33.7833 13.7093 33.7833 8.2654 33.7833 2.82149C33.7833 1.73144 33.3379 1.29226 32.2386 1.29226C22.4335 1.29226 12.6317 1.29226 2.8266 1.29226C1.72732 1.29226 1.28192 1.7346 1.28192 2.82149C1.28192 8.2654 1.28192 13.7093 1.28192 19.1532C1.28192 20.2717 1.71784 20.7046 2.84555 20.7046C7.72913 20.7046 12.6095 20.7046 17.4931 20.7046Z" fill="white"/>
<path d="M8.92923 18.4744C7.68148 18.4744 6.43374 18.4744 5.18284 18.4744C4.48789 18.4744 4.28572 18.2627 4.27309 17.5644C4.25098 16.3512 4.29204 15.1442 4.80378 14.0131C5.4545 12.5692 6.44637 11.4696 8.03843 11.0968C9.70314 10.7082 11.0899 11.2801 12.1892 12.5439C13.1463 13.6434 13.579 14.961 13.6233 16.408C13.6359 16.8377 13.6296 17.2674 13.6233 17.6971C13.6201 18.2406 13.3927 18.4712 12.8304 18.4744C11.6079 18.4807 10.3855 18.4744 9.16298 18.4744C9.08401 18.4744 9.0082 18.4744 8.92923 18.4744ZM12.3629 17.1695C12.3787 15.9625 12.2302 14.8441 11.6016 13.833C10.5939 12.209 8.62598 11.7635 7.19818 12.8693C5.79249 13.9594 5.52399 15.4949 5.56822 17.1695H12.3629Z" fill="white"/>
<path d="M8.96395 3.57348C10.8877 3.57664 12.306 4.99844 12.3123 6.92577C12.3155 8.75831 10.8024 10.2781 8.96395 10.2844C7.14129 10.2907 5.58714 8.75199 5.58398 6.94472C5.58398 5.00476 7.02442 3.56716 8.96395 3.57032V3.57348ZM8.94815 8.99528C10.0917 8.99844 11.0298 8.07269 11.0456 6.92577C11.0614 5.78833 10.1201 4.82782 8.98606 4.81834C7.80781 4.80886 6.88859 5.72514 6.88543 6.90681C6.88543 8.07269 7.79202 8.99212 8.94499 8.99528H8.94815Z" fill="white"/>
<path d="M24.2909 13.4255C26.502 13.4255 28.7164 13.4255 30.9276 13.4255C31.5025 13.4255 31.85 13.9058 31.5783 14.3449C31.4867 14.4903 31.2909 14.5851 31.1266 14.6641C31.0287 14.7114 30.896 14.683 30.7791 14.683C26.4452 14.683 22.1144 14.683 17.7805 14.683C17.6762 14.683 17.572 14.6862 17.4677 14.6735C17.1234 14.6261 16.9307 14.4239 16.915 14.0764C16.8992 13.7257 17.095 13.5171 17.4235 13.435C17.5341 13.4065 17.6573 13.4223 17.7742 13.4223C19.9474 13.4223 22.1207 13.4223 24.294 13.4223L24.2909 13.4255Z" fill="white"/>
<path d="M24.2531 18.4236C22.0419 18.4236 19.8275 18.4236 17.6163 18.4267C17.291 18.4267 17.013 18.3193 16.9561 18.0065C16.9182 17.798 17.0067 17.5263 17.1299 17.343C17.2057 17.2293 17.4489 17.1787 17.6195 17.1787C22.0577 17.1692 26.4927 17.1724 30.9309 17.1724C31.3826 17.1724 31.6669 17.422 31.6669 17.798C31.6669 18.1771 31.3826 18.4204 30.9277 18.4204C28.7039 18.4204 26.4769 18.4204 24.2531 18.4204V18.4236Z" fill="white"/>
<path d="M24.2499 10.9385C22.064 10.9385 19.8781 10.9385 17.6921 10.9385C17.2341 10.9385 16.9814 10.7679 16.9182 10.4425C16.8456 10.0728 17.0856 9.73789 17.4679 9.68101C17.5816 9.66522 17.7016 9.6747 17.8185 9.6747C22.124 9.6747 26.4327 9.6747 30.7382 9.6747C30.8171 9.6747 30.8929 9.6747 30.9719 9.6747C31.3826 9.69365 31.67 9.9559 31.6669 10.3161C31.6669 10.6794 31.392 10.9354 30.9656 10.9354C29.443 10.9417 27.9205 10.9354 26.3979 10.9385C25.6808 10.9385 24.967 10.9385 24.2499 10.9385Z" fill="white"/>
<path d="M21.5178 5.92999C22.7813 5.92999 24.0449 5.92999 25.3052 5.92999C25.7791 5.92999 26.0634 6.19224 26.0444 6.5935C26.0286 6.90314 25.8643 7.10535 25.5611 7.1717C25.4095 7.20646 25.2515 7.20645 25.0967 7.20645C22.6865 7.20645 20.2795 7.20645 17.8693 7.20645C17.7524 7.20645 17.6356 7.20646 17.5187 7.19382C17.127 7.14642 16.8838 6.8747 16.909 6.52083C16.9343 6.17644 17.206 5.93315 17.6071 5.92999C18.4663 5.92052 19.3255 5.92999 20.1847 5.92999C20.627 5.92999 21.0692 5.92999 21.5115 5.92999H21.5178Z" fill="white"/>
</g>
<defs>
<clipPath id="clip0_4151_1989">
<rect width="35" height="22" fill="white" transform="translate(0.0341797)"/>
</clipPath>
</defs>
</svg>
